<svg id="Layer_1" data-name="Layer 1" xmlns="http://www.w3.org/2000/svg" viewBox="0 0 256 256"><defs><style>.cls-1{fill:#fff;}</style></defs><path class="cls-1" d="M229.4,30.69c2.74,28.91-23.06,54.81-52,52.84C171.19,58,199.9,28.58,229.4,30.69Z"/><path class="cls-1" d="M6.51,124.48C24,102.17,60.57,101.92,80.72,124,65.66,146.62,24.5,146.89,6.51,124.48Z"/><path class="cls-1" d="M105.77,134.11a46.61,46.61,0,0,0-47,46.29C58.7,206,80,227.31,105.5,227.13a46.51,46.51,0,0,0,.27-93ZM124.87,181a19.3,19.3,0,0,0-20-20.24c-9.67.33-9.63-14.67,0-15,19.34-.68,35.88,15.87,35,35.24C139.44,190.66,124.44,190.68,124.87,181Z"/><path class="cls-1" d="M203.6,96.51a46.6,46.6,0,0,0-47,46.29c-.05,25.59,21.27,46.91,46.75,46.73a46.51,46.51,0,0,0,.26-93Zm19.11,46.92a19.31,19.31,0,0,0-20-20.24c-9.67.33-9.62-14.67,0-15,19.35-.68,35.88,15.87,35,35.24C237.28,153.06,222.28,153.08,222.71,143.43Z"/><path class="cls-1" d="M117,30.14a46.62,46.62,0,0,0-47,46.3c0,25.59,21.27,46.91,46.75,46.73a46.52,46.52,0,0,0,.26-93Zm19.11,46.93a19.33,19.33,0,0,0-20-20.25c-9.67.34-9.62-14.66,0-15,19.35-.67,35.88,15.88,35,35.25C150.71,86.7,135.71,86.72,136.14,77.07Z"/></svg>