<svg xmlns="http://www.w3.org/2000/svg" viewBox="0 0 846.77 846.77"><defs><style>.cls-1{fill:#fff;}.cls-2{fill:#474068;}.cls-3{fill:#f96058;}</style></defs><title>Prancheta 22 cópia</title><g id="Camada_3" data-name="Camada 3"><path class="cls-1" d="M403.8,621.56c-2.1.2-4.2.35-6.31.43-6.17.23-95.06-13.3-95.05-11.55l-1.31-429.69c65.84,0,129.8,4,195.63,4.93,6.25.09,12.64.19,18.53,2.3,5.69,2,10.57,5.81,15.34,9.53,34.12,26.6,69.46,54.69,87.74,93.91,16.24,34.84,11.74,60.75,9.38,97.85-2.76,43.26,0,87.58,0,130.91v45.08c0,9.25,3.67,28.19-.37,36.6-13.56,28.19-78,8.32-102,9.39-28,1.25-57.71-.15-85.53,4.21C427.83,617.35,415.92,620.38,403.8,621.56Z"/><path class="cls-2" d="M296.72,320.75V445.52c0,20.84.06,41.66-.64,62.49-.68,20.36-1.73,40.71-2.18,61.08-.22,10.21-.29,20.43-.1,30.64.08,4.31-.41,9.38,1.55,13.35,2.14,4.35,6.39,5.81,10.85,6.59,19.72,3.42,39.79,4.74,59.78,5.06,40.61.64,81.32-1.8,121.93-2.47q70.15-1.15,140.3-2.67a7.67,7.67,0,0,0,7.23-5.51c4-14.65,3.28-29.43,3.28-44.41V348.36c0-12.82-.29-25.68,0-38.49.06-2.73.06-5.43-1.25-7.93-2.18-4.18-6.17-6.2-10.38-7.84-5-1.94-9.85-4-14.8-6A168.68,168.68,0,0,0,575,277.65c-6-1-12.06-1.67-18.13-2a22.58,22.58,0,0,0-3.61-.18l1.31,1.49q-.43-1.47-.81-3c-.94-3.43-1.91-6.86-3-10.27A338.22,338.22,0,0,0,521.2,195c-2.88-5-5.62-10.67-9.23-15.22-3-3.73-10-6.23-14.75-6.55-.94-.06-1.9,0-2.84,0H301.13c-4.4,0-7,3.46-7.5,7.5-.85,7.35-.35,14.64.18,22,.69,9.57,15.69,9.65,15,0-.53-7.35-1-14.65-.18-22l-7.5,7.5h191.3c1.33,0,2.67,0,4,0,.24,0,.5,0,.74,0-1.2-.16-.55-.12.41.4a18.61,18.61,0,0,0,5.93,2.18L499,187.38a324.73,324.73,0,0,1,39.34,87.15c2.06,7.3,3.74,14.58,12.53,15.69,7.91,1,15.81,1.07,23.69,2.5a168.89,168.89,0,0,1,23.58,6c7.17,2.4,13.88,5.77,21,8.36.39.14,5.75,2.26,5.64,2.37-.35.33-.48-3.37-1-.7a7.92,7.92,0,0,0,0,1.39c0,2.46,0,4.92,0,7.38V544c0,15.57.06,31.14,0,46.71A74.53,74.53,0,0,1,621,610.1l7.23-5.51q-60.2,1.23-120.4,2.34c-39.2.68-78.38,2.08-117.58,2.75A534.92,534.92,0,0,1,332.17,608c-4.79-.44-9.57-1-14.33-1.62-2.24-.31-4.47-.66-6.7-1-.95-.16-2.77-1-3.58-.63q-1.7-.56.35.89,1.79,2.48,1-.94c.73-4.27-.2-9.51-.22-13.86q0-7.91.09-15.81c.62-39.53,2.93-79,2.93-118.52V320.75c0-9.65-15-9.67-15,0Z"/><path class="cls-3" d="M196.26,211.76l1.2,91.9a14.06,14.06,0,0,0,.95,6c.88,1.83,2.84,3.3,4.83,2.94H421.07c25.77,0,51.57-1.58,77-1.91q.52-44.88-.07-89.93a14.06,14.06,0,0,0-.95-6c-.88-1.83-2.84-3.3-4.83-2.94h-296"/><path class="cls-2" d="M188.76,211.76l1.07,81.91c.14,10.64-1,25.71,13.41,26.38,13.92.64,28,0,42,0H407.08c30.37,0,60.67-1.48,91-1.91a7.63,7.63,0,0,0,7.5-7.5q.28-24.42.24-48.84,0-11.74-.12-23.48c-.06-7.65,1.15-16.71-.89-24.15-2.65-9.69-10.8-9.86-18.71-9.86H196.26c-9.65,0-9.67,15,0,15H487.87c.41,0,4.09.32,4.28,0,0,0,.09,0,.09,0h0q1.11,0-1.89-1.15c-.55.26.27,11.13.28,12.33q.14,13.7.18,27.39.08,26.37-.23,52.75l7.5-7.5c-25.36.36-50.69,1.86-76,1.91-25.64.05-51.29,0-76.93,0H212.23c-.74,0-8.94.27-9,0l1.89,1.15a8.71,8.71,0,0,1-.15-1.78c.37-1.74-.06-4-.08-5.76l-1.13-86.9c-.13-9.64-15.13-9.67-15,0Z"/><path class="cls-2" d="M499.14,188.95c51.12,27,100.36,63.36,124.61,117.53,1.67,3.73,7,4.54,10.26,2.69,3.83-2.18,4.34-6.59,2.69-10.26C611.5,242.62,559.84,204,506.71,176c-8.53-4.5-16.12,8.44-7.57,13Z"/><path class="cls-3" d="M371.13,503.48c-12.59.82-24.72,9.34-27,22.34-2,11.86,5.17,24.48,16.75,28.25,13.34,4.34,26.24-5.08,36-13.06,10.11-8.23,18.56-18.34,25.94-29,15.07-21.85,26-46.62,37.2-70.62,6.4-13.75,12.49-27.69,17.62-42,4.95-13.76,10.9-30.21,4.07-44.4-4.94-10.25-17.26-17.59-28.62-14.12-11.84,3.62-15.66,16.4-14.48,27.51,1.25,11.8,6.21,23.25,11.12,33.94a185.59,185.59,0,0,0,19,32.19,199.21,199.21,0,0,0,52.48,49.73,167.1,167.1,0,0,0,33.84,17.13c12.41,4.45,29.08,3.44,35.22-10.25,6.83-15.24-7.75-28.62-21.95-30.28-8.5-1-17.19.89-25.56,2.24q-12.24,2-24.41,4.35a748.18,748.18,0,0,0-101.18,27.34c-9.07,3.14-5.17,17.64,4,14.46q35.15-12.17,71.36-20.87,18.55-4.43,37.31-7.9c11.22-2.08,23.49-5.4,35-4.91,4.31.18,9.24,1.38,11.41,5.54,2,3.88-1.19,6.71-4.88,7.61-9,2.19-20.63-5.08-28.34-9.12a180,180,0,0,1-46.1-34.7,181.88,181.88,0,0,1-32.88-47.43c-2.42-5-20-44.52-3.95-42.45,10.55,1.37,10.45,15,8.74,22.58-2.59,11.53-7.24,22.8-11.73,33.7-8.84,21.45-19.05,42.5-29.64,63.14-10.37,20.21-22.3,40.23-39.92,55-6.22,5.21-19.13,16.27-26.4,7.24-6.31-7.84,1.19-17.61,10-18.18,9.58-.62,9.65-15.63,0-15Z"/><path class="cls-1" d="M275.28,239.23l4.9,48.11c.65,6.34,10.65,6.41,10,0l-4.9-48.11c-.65-6.34-10.65-6.41-10,0Z"/><path class="cls-1" d="M284.55,270.3c12.5,1,27.76-4.15,26.2-19.41-1.54-15-17.26-20.42-30.28-17.44-6.27,1.43-3.62,11.08,2.66,9.64,7-1.59,17.22.24,17.74,9.12.51,8.6-10.37,8.58-16.32,8.09-6.41-.53-6.38,9.47,0,10Z"/><path class="cls-1" d="M330.57,241.45c.52,8,.85,15.91.93,23.88q.06,6,0,12c-.06,3.31-.74,7,0,10.24,2.68,12.4,21.38,2.35,26.51-2.44a28.91,28.91,0,0,0,6.55-32.38,27.37,27.37,0,0,0-27.86-16c-6.32.73-6.39,10.74,0,10,18.24-2.11,27.44,20.76,13.16,32.22a21.19,21.19,0,0,1-5.26,3.08c-.51.2-5.33,1.19-5.36,1.29q2.4,3.66,2.12.92.05-1.49.1-3,.11-4,.15-8c.09-10.63-.24-21.25-.94-31.85-.42-6.39-10.42-6.44-10,0Z"/><path class="cls-1" d="M413.36,236.21c-4.78-1-10.95-2.08-15.7-.43-5.49,1.91-5,7.26-5.12,12.08l-.76,39.56c-.12,6.44,9.88,6.44,10,0l.44-23.15.22-11.58c.06-2.9-.63-7.44.4-10.09l-2.3,3c2.23-1.56,7.82-.21,10.14.26,6.28,1.28,9-8.35,2.66-9.64Z"/><path class="cls-1" d="M398.1,272.37l10.65.85c2.7.21,5-2.45,5-5a5.1,5.1,0,0,0-5-5l-10.65-.85c-2.7-.21-5,2.45-5,5a5.1,5.1,0,0,0,5,5Z"/><path class="cls-2" d="M236.46,713.31a38.4,38.4,0,0,1,5-27L237,689.78c10.69-2.58,11.57,15.54,11.84,21.85.34,8.16,12.7,10.54,14.73,2,1.39-5.85,4.35-20.92,13.37-19.43,9.57,1.58,4,18.11,2.42,23.21-2.9,9.23,11.58,13.18,14.46,4,2.63-8.39,5-17.51,2.32-26.2-2.28-7.35-8-14-15.78-15.57-8-1.62-16.19,1.92-21.57,7.86-5.55,6.13-7.82,14.3-9.69,22.16l14.73,2c-.36-8.65-1-17.88-5.75-25.39-4.07-6.4-11.27-11.46-19-11.67-5-.13-8.78,1.2-11.35,5.58a50.86,50.86,0,0,0-4.6,10.71A54.58,54.58,0,0,0,222,717.3c1.81,9.47,16.27,5.46,14.46-4Z"/><path class="cls-2" d="M302.22,692.91c-.81,10.8,5.34,28.69,18.24,29.68,13.34,1,20.67-16.67,20.72-27.54l-14.73,2c3.27,9.85,7.4,21,3.74,31.32-3.44,9.68-13.41,11.28-22.39,12.77-9.5,1.58-5.47,16,4,14.46,13.36-2.22,25.9-6.79,31.62-20.1,6-14,2.08-28.69-2.49-42.44-2.61-7.85-14.69-6.74-14.73,2a16.94,16.94,0,0,1-1.66,7.67,15.77,15.77,0,0,1-1.94,3.06,16.69,16.69,0,0,1-1.67,1.69q-1.55,1.29.91-.23c-.56-1.85-2.88-3.74-3.64-5.75a19.51,19.51,0,0,1-1-8.57c.72-9.63-14.28-9.58-15,0Z"/><path class="cls-2" d="M362.27,715.4h18c9.65,0,9.67-15,0-15h-18c-9.65,0-9.67,15,0,15Z"/><path class="cls-2" d="M432.24,677.23c-7.15-5.16-16.94-3.92-23.85,1-8.49,6-11.22,16.43-9.79,26.39,1.33,9.31,5.51,19.61,13.07,25.58s18.93,6.51,25.89-.84c6.63-7-4-17.63-10.61-10.61-6.39,6.75-13.13-12.26-13.66-16.47-.48-3.83-.12-8.54,3-11.27,2.59-2.29,5.64-2.84,8.42-.83,3.31,2.39,8.32.55,10.26-2.69,2.25-3.76.58-7.9-2.69-10.26Z"/><path class="cls-2" d="M442.38,686.22a185.89,185.89,0,0,0,13.49,28.07c4.48,7.52,11,21.81,21.51,20.73,10.22-1.05,12-15.33,13.69-23.18a182.55,182.55,0,0,0,4.11-34.07c.27-9.66-14.73-9.65-15,0a158.84,158.84,0,0,1-2.28,23.55q-1,5.62-2.39,11.17-.69,2.77-1.48,5.52-.39,1.37-.81,2.74-.52,1.57,1.76-.77l3.79,1c-2.52-1.44-4.64-5.89-6.19-8.26q-3.15-4.82-6-9.84a162.1,162.1,0,0,1-9.76-20.65c-1.46-3.76-5-6.41-9.23-5.24-3.6,1-6.72,5.42-5.24,9.23Z"/><path class="cls-2" d="M509.26,728.9c9.65,0,9.67-15,0-15s-9.67,15,0,15Z"/><path class="cls-2" d="M533.51,697.9q4,24.36,6,49c.76,9.56,15.76,9.64,15,0q-2.11-26.62-6.51-53c-1.58-9.5-16-5.47-14.46,4Z"/><path class="cls-2" d="M543.57,701.72c10.32-6,20.94,2.17,19.86,13.43l5.51-7.23a51.44,51.44,0,0,1-20.67,3c-9.64-.55-9.61,14.45,0,15a62.82,62.82,0,0,0,24.66-3.51,7.89,7.89,0,0,0,5.51-7.23c2.2-22.92-23-37.65-42.43-26.38-8.34,4.85-.8,17.82,7.57,13Z"/><path class="cls-2" d="M607.8,670.43l.89,24.88.43,11.94c.1,2.8,1.25,8.6.2,11.11l3.45-4.48c-2,1.26-8.19.59-10.48.09s-4.83-1.54-5.86-3.65c-3-6.12,7.58-7.56,11.27-7.06,4,.55,8-1,9.23-5.24,1-3.49-1.23-8.68-5.24-9.23-12-1.62-25.72,1.46-29.86,14.45-3.62,11.38,4.92,22,15.61,25a41.56,41.56,0,0,0,19.06.2c7.33-1.57,8.09-7.84,7.86-14.18l-1.57-43.79c-.34-9.62-15.35-9.67-15,0Z"/><path class="cls-2" d="M662.54,673c-3.26-17-28.13-18.34-32.77-1.43-2.23,8.11,1.26,17.89,3,25.83q3,14,6.31,27.89c2.24,9.39,16.71,5.41,14.46-4q-3.78-15.82-7.12-31.75c-.54-2.57-1.07-5.15-1.59-7.73-.33-1.68-1.29-4.49-.6-6.16,1.27-3.07,3.48-.81,3.89,1.32,1.81,9.47,16.27,5.46,14.46-4Z"/><path class="cls-2" d="M645.33,706c4.5,1.78,10,.14,13.32-3.17,2.78-2.77,3-7.87,0-10.61a7.64,7.64,0,0,0-10.61,0,4.92,4.92,0,0,1-.5.47l1.52-1.17a6.9,6.9,0,0,1-1.17.71l1.79-.76a6.89,6.89,0,0,1-1.66.45l2-.27a7.18,7.18,0,0,1-1.37,0l2,.27a6.57,6.57,0,0,1-1.32-.37,7.53,7.53,0,0,0-5.78.76,7.5,7.5,0,0,0-2.69,10.26,8.68,8.68,0,0,0,4.48,3.45Z"/></g></svg>