<?xml version="1.0" encoding="utf-8"?>
<!-- Generator: Adobe Illustrator 21.0.0, SVG Export Plug-In . SVG Version: 6.00 Build 0)  -->
<svg version="1.1" id="Camada_1" xmlns="http://www.w3.org/2000/svg" xmlns:xlink="http://www.w3.org/1999/xlink" x="0px" y="0px"
	 viewBox="0 0 846.8 846.8" style="enable-background:new 0 0 846.8 846.8;" xml:space="preserve">
<style type="text/css">
	.st0{fill:#AFACBC;}
	.st1{fill:#F96058;}
	.st2{fill:#474068;}
	.st3{fill:#FFFFFF;}
	.st4{fill:#6281CC;}
	.st5{fill:#EAE9E5;}
	.st6{fill:none;}
</style>
<title>Prancheta 22 cópia 2</title>
<g id="Camada_2">
	<path class="st0" d="M377.3,382.4c-2.3,0.6-4.7,1.1-6.9,1.6l-178.2,37.2c-3.5,0.7-7.9,1.2-10.1-1.6c-0.7-1-1.2-2-1.5-3.1
		c-4.5-14-4.4-29-8.8-42.7c-5.1-15.8-10.4-30.8-12.9-47.3c-0.9-5.7-1.5-11.7,0.7-17c1.6-4,4.6-7.1,7.6-10.2
		c27.9-29.1,69-47.4,106.4-61.6c18.4-7,37.8-12.9,57.5-11.7s39.8,10.9,49,28.3c6,11.5,7.6,24.7,11.5,36.7c5.1,15.6,8.2,31.5,11,47.8
		c1.7,10,3.2,21-2,29.6C395.7,376.3,386.6,380,377.3,382.4z"/>
</g>
<g id="Camada_3">
	<path class="st1" d="M294.8,165.4c-6.4,3.8-13.1,9.1-13.9,16.5c-0.5,5.6,2.2,10.9,7,13.9c4.8,2.8,10.6,3.2,15.8,1.1
		c2.5-1,4.9-2.6,7.6-2.7c7.2-0.4,10.8,8.8,10.7,16.1s-1.3,15.7,3.9,20.7c5,4.8,13.8,3.4,18.7-1.5s6.5-12.2,6.8-19.2
		c0.6-14.2-4.4-43.8-15.5-54.2C325.3,146,307.2,158,294.8,165.4z"/>
	<path class="st1" d="M272.3,407.7c-2.9,10.8,3.8,21.6,8.6,31.7c13.3,28.2,13.5,60.6,21.5,90.7c3.4,12.9,11,27.5,24.3,28.4
		c1.1,0.1,2.1,0,3.1-0.4c1.2-0.7,2.3-1.8,2.9-3.1c6.6-10.3,13.4-21.2,14-33.4c0.4-8-2-16-4.3-23.7c-7.5-24.9-15.2-49.8-22.6-74.8
		c-3-10.1-3.6-22.9-15.8-25.4C301,397.1,273,405.1,272.3,407.7z"/>
	<path class="st1" d="M162.6,542.8l60.4,53.6c7.2,6.4,17.8-4.2,10.6-10.6l-60.4-53.6C166,525.8,155.4,536.4,162.6,542.8z"/>
	<path class="st1" d="M192.2,627.9l-17.9-4.8c-9.3-2.5-13.3,12-4,14.5l17.9,4.8C197.5,644.8,201.5,630.4,192.2,627.9z"/>
	<path class="st1" d="M200,689.4c-13.6,5-26.8,11.4-39.1,19.1c-8.2,5.1-0.6,18.1,7.6,13c11.2-7.1,23.1-13,35.5-17.7
		C213,700.5,209.1,686,200,689.4z"/>
	<path class="st1" d="M281.3,736.7l-6.9,13c-2,3.6-0.8,8.1,2.7,10.3c3.4,2,8.4,0.9,10.3-2.7l6.9-13c2-3.6,0.8-8.1-2.7-10.2
		C288.2,732,283.2,733.1,281.3,736.7L281.3,736.7z"/>
	<path class="st1" d="M505.6,737.8l1.5,7.5c0.8,3.8,5.5,6.4,9.2,5.2c3.9-1.2,6.2-5.2,5.2-9.2l-1.6-7.5c-0.8-3.8-5.5-6.4-9.2-5.2
		C506.8,729.8,504.5,733.8,505.6,737.8L505.6,737.8z"/>
	<path class="st1" d="M599.6,735.8c9.7,0,9.7-15,0-15S589.9,735.8,599.6,735.8z"/>
	<path class="st1" d="M606.4,568.7l9-9c2.8-2.8,3-7.9,0-10.6c-3-2.9-7.6-2.9-10.6,0l-9,9c-2.8,2.8-3,7.9,0,10.6
		C598.8,571.5,603.4,571.5,606.4,568.7z"/>
	<path class="st1" d="M637.6,627.5c14.7-3.3,29.5-5.7,44.5-7.3c4-0.4,7.5-3.2,7.5-7.5c0-3.7-3.5-7.9-7.5-7.5
		c-16.3,1.7-32.5,4.3-48.5,7.8C624.2,615.2,628.2,629.6,637.6,627.5L637.6,627.5z"/>
	<path class="st1" d="M278.8,617.4c-0.8,19.3-0.5,38.6,1.1,57.8c0.8,9.5,15.7,9.7,15,0c-0.4-4.7-1.9-13.6,2.5-17
		c1-0.8,3-1.5,4.2-0.8c-0.7-0.4-0.1,0.9,0,1.8c0.1,1.6-0.1,3.2-0.1,4.8c0.2,13.6,11.4,26.1,25.7,22.9c9.4-2.1,5.4-16.6-4-14.5
		c-2.6,0.6-4.8-1.9-5.8-4c-1.6-3.3-0.6-7.2-0.9-10.7c-0.7-8-5.7-14.5-14-15.3c-7-0.7-13.8,2.3-17.9,7.9c-5.3,7.2-5.3,16.4-4.6,24.9
		h15c-1.6-19.2-2-38.5-1.1-57.8C294.3,607.7,279.3,607.7,278.8,617.4L278.8,617.4z"/>
	<path class="st1" d="M328,650.9l3.1,16.5c0.8,4,5.5,6.2,9.2,5.2c4.2-1.2,6-5.2,5.2-9.2l-3.1-16.5c-0.8-4-5.5-6.2-9.2-5.2
		C329.1,642.8,327.2,646.9,328,650.9z"/>
	<path class="st1" d="M331.1,636.9c9.6,0,9.7-15,0-15S321.4,636.9,331.1,636.9z"/>
	<path class="st1" d="M407.5,662.6c10.5,11.5,28.5,5.9,33.8-7.7c2.5-6.3,2.5-14.5-1.7-20.1s-11.5-7.2-18-5.3
		c-14.5,4.2-19.5,24.9-17.5,38c2.3,14.6,15.1,25.1,29.9,22.6c9.5-1.6,5.5-16-4-14.5c-5.2,0.9-9.6-4.4-10.8-8.9
		c-1.7-6.2-0.1-14.4,3.4-19.7c2.7-4.1,6.4-4.8,5.1,1.2c-1,4.7-6,7.8-9.7,3.8C411.5,644.8,401,655.5,407.5,662.6L407.5,662.6z"/>
	<path class="st1" d="M488.5,661.8c-2.1-7.4-2.5-15.8,0.5-23c0.4-1.1,1.5-1.2,0.5-1.2c1,0.1,1.9,0.7,2.4,1.5
		c2.1,2.6,1.8,7.3,1.9,10.5c0.3,8.4,12.3,10.2,14.7,2c0.9-3.1,1.4-8.4,3.3-10.9c-0.2,0.2-1.2-0.4-0.1,0.3c0.7,0.4,1.2,1,1.7,1.7
		c1.7,3,0.5,7.8,0.2,11.1c-0.4,4.1-0.3,8.3,0.3,12.4c2.5,14.1,13.4,25.6,26.9,30c9.2,3,13.2-11.5,4-14.5c-7-2.3-12.6-7.8-15.2-14.7
		c-3.4-9.2,1.4-19-1.7-28.4c-2.5-7.7-10.5-13.9-18.8-12.7c-10.6,1.6-12.4,13.2-14.9,21.7l14.7,2c-0.2-7.7-1.1-16-6.9-21.6
		c-4.8-4.7-12.6-6.9-18.8-3.8c-13.6,6.9-12.6,29.5-9.2,41.7C476.7,675.1,491.2,671.2,488.5,661.8L488.5,661.8z"/>
	<path class="st1" d="M543.6,651.5c15.1,2.1,33.6-7.4,33.7-24.6c0.1-16.4-20.2-22.1-31.7-13c-12.1,9.6-12.9,28.9-6.3,41.9
		c7,13.9,24.5,20.5,38.4,12.5c8.3-4.9,0.8-17.8-7.6-13c-6.1,3.5-13.3,0.5-16.8-5.2c-3.8-6.3-4.2-14.1-1.2-20.8
		c1.3-2.6,7.6-8.2,10.1-3.3c1.4,2.8-2.9,7.1-4.9,8.5c-2.8,2-6.2,2.9-9.7,2.6c-4-0.6-8,1-9.2,5.2
		C537.3,645.7,539.6,650.9,543.6,651.5L543.6,651.5z"/>
	<path class="st1" d="M604,755.6c3.4,6.8,7.1,13.5,11.1,19.9c5.1,8.2,18.1,0.7,13-7.6c-4.1-6.5-7.8-13.1-11.2-19.9
		c-1.8-3.6-6.9-4.6-10.3-2.7C603,747.5,602.2,751.9,604,755.6L604,755.6z"/>
	<path class="st1" d="M656.6,701.7l14,3.1c4,1,8.1-1.3,9.2-5.2c1-3.8-1.3-8.3-5.2-9.2l-14-3.1c-4-1-8.1,1.3-9.2,5.2
		C650.3,696.2,652.6,700.8,656.6,701.7z"/>
	<path class="st2" d="M306.6,397.7c-5.2-19-10.1-38.1-15.1-57.1s-12.1-38.5-13.5-58.2c-1.2-17.7,4.1-34.3,18-45.9
		c12.5-10.3,29.4-13.6,44.9-8.8c37.4,11.3,40.6,57.6,47.1,89.7l6.5,32.6c1,4.8,1.2,10.8,3.1,15.4l0.2,1c0.1,1.7,0.6,1.3,1.5-1.1
		c1.3-3.6-3.9,1.2-3.1,1c-2.8,0.8-5.6,1.6-8.3,2.5c-20.7,6-41.5,11.6-62.4,16.9c-47.4,11.9-95.3,21.9-143.6,29.9l5.8,0.8
		c1,0.6,3.2,3.1,3.2,4c-0.1-0.3-0.1-0.5-0.2-0.7c-0.1-0.6-0.4-1.3-0.5-1.9c-0.6-2.2-1.2-4.5-1.7-6.8c-1.7-6.7-3.3-13.4-4.9-20.1
		c-2.9-11.9-5.6-23.9-8.6-35.8c-2.7-10.7-7-20.9-9-31.8c-1.6-8.6-2-19.4,5.1-25.8c6.1-5.5,14.9-8.2,22.1-11.9
		c13-6.5,26-13.1,39-19.6c14.8-7.4,29.6-14.8,44.4-22.1c13-6.4,26.3-14.6,40.6-17.2c9.5-1.7,5.5-16.2-4-14.5
		c-8.6,1.6-16.8,5.3-24.6,9.1c-8.9,4.3-17.8,8.7-26.7,13.1c-17.8,8.7-35.5,17.6-53.3,26.5c-8.7,4.4-17.3,8.9-26,13.1
		c-5.5,2.7-11.3,5-16.4,8.4c-12.1,7.9-16.8,20.7-15.9,34.9c1,14.9,7.1,28.5,10.6,42.8c2,8,3.8,16,5.7,24c2.3,9.8,4.6,19.5,7.1,29.3
		c1.4,5.8,2.4,16.9,10.3,16.9c4.4,0,9.1-1.5,13.4-2.2c5.1-0.9,10.1-1.8,15.2-2.7c9.8-1.8,19.6-3.6,29.4-5.6
		c19.3-3.8,38.4-8,57.6-12.4c19.1-4.5,38.2-9.2,57.1-14.3c9.6-2.6,19.2-5.3,28.8-8c4.3-1.2,8.7-2.5,13-3.8c4.1-1.2,8.7-2.2,11.7-5.5
		c6.3-6.9,1.2-18.9-0.4-26.8l-6-29.7c-3.5-17.6-6.3-35.6-11.4-52.8c-4.5-15.4-11.8-30.5-24.3-40.9c-12.2-10.1-27.7-15.5-43.5-15.1
		c-32.4,1-58.2,27.3-61.3,59c-1.8,18.7,3.8,37.4,8.6,55.3c4.7,17.5,9.2,34.9,13.9,52.4c2.2,8.2,4.3,16.3,6.5,24.5
		C294.7,411,309.2,407.1,306.6,397.7L306.6,397.7z"/>
	<path class="st2" d="M264.5,414.9l25,93.6l6.1,22.9c1.8,6.7,2.9,14.4,6.5,20.5c3,5.2,8.2,8.3,13.8,10c5.4,1.7,11.4,1.7,16.4,4.2
		c3.3,1.7,8.5,1.2,10.3-2.7l11.3-24.8c1.7-3.7,1-8-2.7-10.3c-3.2-1.9-8.6-1-10.3,2.7L329.6,556l10.3-2.7c-5-2.5-10-3.5-15.4-4.6
		c-4.7-1-8.8-1.8-10.4-6.7c-4.8-14-7.7-28.8-11.5-43.1L279,410.9C276.5,401.6,262,405.6,264.5,414.9L264.5,414.9z"/>
	<path class="st2" d="M289.8,403.4c10.7,51.9,23.1,103.5,37,154.7c2.5,9.3,17,5.3,14.5-4c-13.9-51.2-26.3-102.7-37-154.7
		C302.3,389.9,287.9,393.9,289.8,403.4L289.8,403.4z"/>
	<path class="st2" d="M313.3,402.7c10.4,43.4,19.7,87.1,28.1,131c1.8,9.5,16.3,5.5,14.5-4c-8.4-43.9-17.8-87.5-28.1-131
		C325.5,389.3,311,393.3,313.3,402.7z"/>
	<path class="st2" d="M319.5,454.7c3.1-8.7,7.3-17.7,9.5-26.7c2-8.1-5-16.4-8.7-23.1c-3.8-7-13.4-3.2-14,3.8
		c-0.4,4.6-0.4,9.3,0,13.9c0.1,4.2,3.6,7.4,7.8,7.3c3.2-0.1,6-2.2,6.9-5.3c2-5.8,1.2-11.2-1.2-16.6c-1.3-3-5.5-4.3-8.5-3.5
		c-3.5,1-5.1,3.9-5.5,7.2c-0.9,7.1-0.5,14.2,1,21.2l14.5-4c-2.5-9.2-4.8-18.5-6.9-27.8c-2.2-9.4-16.6-5.4-14.5,4s4.5,18.6,6.9,27.8
		c2.5,9.4,16.4,5.4,14.5-4c-1.1-5.7-1.3-11.5-0.5-17.2l-14,3.8c0.8,1.8,0.3,3.4-0.3,5.1l14.7,2c-0.4-4.6-0.3-9.3,0-13.9l-14,3.8
		c2.3,4.2,6.7,9.6,7.4,14.3v-4c-0.7,4.5-2.9,9.1-4.5,13.4l-5.2,14.5C301.8,459.8,316.2,463.7,319.5,454.7L319.5,454.7z"/>
	<path class="st2" d="M319.5,464.6l9.3-22.4c1.6-3.7-1.7-8.2-5.2-9.2c-4.3-1.2-7.7,1.5-9.2,5.2l-9.3,22.4c-1.6,3.7,1.7,8.2,5.2,9.2
		C314.6,471.1,317.9,468.4,319.5,464.6L319.5,464.6z"/>
	<path class="st2" d="M291,344.3c28.5-30.7,55.6-62.4,81.6-95.2c6-7.6-3-16.7-10.6-10.6c-29.7,24-56.8,51.1-80.6,80.9
		c-5.9,7.4,3.4,17.4,10.6,10.6c11.8-11.1,21.6-24.1,29.1-38.4c3.8-7.3-5.7-15.5-11.8-9.1l-17.2,18.2l11.8,9.1
		c5.9-11.8,10-24.5,12.2-37.5c1-6.1-5-12.1-11-8.5c-12,7.2-16.7,20.4-20.1,33.3c-2.1,8,9.9,13.6,13.7,5.8c7-14.5,13.5-31.5,3.9-46.4
		c-2.7-4.2-10.6-5.5-13,0c-8,18.5-11.4,38.5-8.9,58.6c0.4,3.4,2,6.2,5.5,7.2c2.9,0.8,7.1-0.5,8.5-3.5c7.2-16.2,6.8-34-1.7-49.6
		c-2.9-5.3-12.6-4.7-13.7,1.8c-2.8,16.1-3.1,32.6-0.8,48.9c1.1,7.5,12.8,6.8,14.5,0c4.5-18.3,4.6-37.4,0.4-55.7
		c-1.7-7.6-12.3-6.6-14.5,0l-2.3,6.8c-2.4,7.1,7.5,12.6,12.5,7.3c8.9-9.4,15.3-20.9,18.6-33.4c1.3-5-3.7-11.5-9.2-9.2
		c-11.1,4.5-18.2,13.8-19.1,25.9c-0.5,7.2,8.2,9,12.8,5.3c9.5-7.7,17.6-16.9,24-27.3c3.4-5.4-2.2-13.1-8.5-11
		c-15.2,5-25.7,18.9-26.4,34.8c-0.2,4.6,5,8.9,9.5,7.2c8.9-3.1,17-8.4,23.4-15.4c5.5-6.3,11.9-16.9,3.7-23.9c-2.5-2.2-6.1-3-9.1-1.2
		c-13.2,8-21.5,22-22.3,37.3c-0.4,5.9,6.6,9.1,11.3,6.5c14.5-8,26.4-20.1,34-34.8c3.9-7.5-5.4-15-11.8-9.1
		c-13.3,12.5-22.9,28.5-27.5,46.1c-2,7.7,7,11.9,12.5,7.3c14.3-11.8,26.5-25.9,36.3-41.7c4.4-7.1-6.1-15.6-11.8-9.1
		c-8.8,10.1-16,21.5-21.3,33.8c-1.7,4.1-0.9,7.6,2.7,10.3c7.8,5.8,15.8-3.1,20.9-8.3c6-6.2,11.6-12.9,16.6-20c2.2-3,0.8-7.6-1.9-9.7
		c-3.2-2.5-6.9-1.8-9.9,0.6c-9.4,7.5-16.2,17.7-19.6,29.2c-1.9,6.2,5.5,11.9,11,8.5C339,270.2,348,261,354.2,250
		c4.4-7.6-5.5-14.6-11.8-9.1c-8.8,7.7-17.1,16-24.8,24.8c-4.4,5.1-0.3,15.5,7.3,12.5c12.9-4.8,22.8-15.2,27-28.3
		c2-6.2-5.6-11.9-11-8.5c-13.4,8.3-25.4,18.5-35.8,30.4c-5.2,6,1.6,16.9,9.1,11.8c11.7-8.1,22.8-16.9,33.3-26.4
		c6.5-5.9-1.8-15.6-9.1-11.8c-5.8,3.1-11,7.1-15.5,11.9c-6,6.5,1.5,15.3,9.1,11.8c11.1-5.2,20-14.2,25-25.4c2.1-4.6,0.4-9.3-4.5-11
		c-5-1.8-10.5-1.9-15.6-0.5c-7.4,1.9-6.8,12.3,0,14.5c6.3,2,13.2-0.7,16.5-6.5c1.6-2.6,1.3-7-1.2-9.1c-7.3-6-16-8.3-25.4-6.1
		c-8.2,1.9-6.5,15.1,2,14.7l13.2-0.5c8.3-0.3,10.3-12.4,2-14.7c-8.8-2.5-18.1-2.8-27.1-0.8c-7.2,1.5-7.1,12.9,0,14.5
		c6.1,1.4,12.4,1.4,18.5,0.1c8.8-1.8,5.9-14-2-14.7c-5.9-0.5-11.8-0.2-17.6,0.8c-8.5,1.3-6.2,14.6,2,14.7c11.6,0.1,23,3,33.2,8.4
		c3.6,2,8.1,0.8,10.3-2.7l-1,0.7c9.7,0.1,9.7-14.9,0-15c-4.9-0.1-9.5,2.4-11.9,6.7l10.3-2.7c-12.6-6.7-26.6-10.2-40.9-10.4l2,14.7
		c4.5-0.6,9.1-0.7,13.6-0.2l-2-14.7c-3.5,0.7-7.1,0.7-10.5-0.1v14.5c6.3-1.3,12.9-1,19.1,0.8l2-14.7l-13.2,0.5l2,14.7
		c3.7-1,7.7-0.1,10.8,2.3l-1.2-9.1c0.1-0.1,1.3-0.1,0.4-0.4v14.5c2.5-0.7,5.2-0.5,7.6,0.5l-4.5-11c-3.8,8.9-10.9,16-19.7,20
		l9.1,11.8c3.6-3.9,7.8-7.1,12.5-9.5l-9.1-11.8c-9.6,8.6-19.7,16.7-30.3,24l9.1,11.8c9.4-10.9,20.5-20.4,32.7-28l-11-8.5
		c-2.6,8.1-8.7,14.6-16.6,17.8l7.3,12.5c7.7-8.8,16-17.1,24.8-24.8l-11.8-9.1c-5,8.8-12.1,16.2-20.7,21.4l11,8.5
		c2.8-9,8.3-16.9,15.8-22.6l-11.8-9.1c-3.1,4.4-6.5,8.6-10.1,12.6c-1.7,1.9-3.5,3.8-5.3,5.6c-0.8,0.8-1.6,1.6-2.5,2.4
		c-0.6,0.6-1.2,1.2-1.9,1.8c-0.8,0.7-0.8,0.8,0,0.2l3.8,1l-0.9-0.7l2.7,10.3c4.6-11.2,11-21.6,18.9-30.7l-11.8-9.1
		c-9.1,14.7-20.6,27.7-33.9,38.7L307,280c4-15.2,12.2-28.9,23.7-39.5l-11.7-9.1c-6.4,12.5-16.3,22.8-28.7,29.5l11.3,6.5
		c0.7-10.1,6.2-19.2,14.9-24.4l-9.1-1.2c-1.4-1.2,0.5-2.4-1.2-0.7c-0.6,0.6-1.1,1.6-1.6,2.3c-1.6,2-3.4,3.8-5.4,5.5
		c-3.6,3.1-7.8,5.5-12.2,7.1l9.5,7.2c0.5-9.3,6.6-17.3,15.4-20.4l-8.5-11c-5.8,9.3-13.1,17.5-21.7,24.3l12.8,5.3
		c0.4-5,3.5-9.4,8.1-11.4l-9.2-9.2c-2.6,10-7.6,19.3-14.8,26.8l12.5,7.3l2.3-6.8h-14.5c3.6,15.7,3.5,32.1-0.4,47.8H293
		c-1.9-13.6-1.6-27.4,0.8-40.9l-13.7,1.8c5.8,10.6,6.4,23.3,1.7,34.5l14,3.8c-2.3-17.3,0-34.9,6.8-51h-13c6.4,10,0.7,21.8-3.9,31.3
		l13.7,5.8c2.4-8.8,4.9-19.3,13.2-24.3l-11-8.5c-1.9,11.8-5.5,23.2-10.7,33.9c-3.6,7.3,5.6,15.6,11.8,9.1l17.2-18.2l-11.8-9.1
		c-6.9,13.2-15.9,25.2-26.7,35.4L292,330c23.8-29.8,50.9-57,80.6-80.9L362,238.5c-25.9,32.8-53.1,64.6-81.6,95.2
		C273.9,340.8,284.4,351.4,291,344.3L291,344.3z"/>
	<path class="st2" d="M361,228.9l-11.7-62.3c-1.4-7.4-1.3-21.4-11.8-21.4c-4.4,0-9.2,1.9-13.4,3.1c-4.7,1.3-9.3,2.8-13.8,4.5
		c-9.1,3.3-18,7.2-26.7,11.7c-3.6,1.9-7.5,3.9-8.6,8.1c-1.2,4.4,1.4,9.1,2.8,13.1c1.7,4.7,3.3,9.5,5,14.2c1.6,4.4,3.7,8.7,9.1,9
		c4.2,0.2,8.6-2.1,12.5-3.4l14.2-4.7l-9.2-5.2c2.9,8.4,4.3,17.3,4,26.1c-0.3,9.7,14.7,9.6,15,0c0.3-10.2-1.2-20.4-4.5-30.1
		c-1.3-3.7-5.2-6.6-9.2-5.2l-12.4,4.1c-2.9,1-8.6,3.6-10.3,3.4l5.3,2.2c-0.7-0.6-1.4-4.5-1.8-5.5l-1.9-5.3l-1.9-5.3
		c-0.5-1.4-1.9-3.9-1.9-5.4l-1,3.8c-1.2,1.1-0.9,1,0.9-0.1c1.1-0.6,2.1-1.1,3.2-1.7c2.2-1.1,4.3-2.2,6.5-3.2c4.3-2,8.8-3.9,13.2-5.6
		c8.6-3.2,17.8-6.4,26.9-7.9h-4c-2.7-3.6-3.7-4.3-3.1-2l0.4,1.9l0.9,4.9l1.8,9.7l3.6,19.5l7.3,39C348.3,242.4,362.8,238.4,361,228.9
		L361,228.9z"/>
	<path class="st3" d="M454.6,447.1c0.6,1,1.3,1.8,2.1,2.5c9,8.6,19.2,16.2,31,20.3c9.8,3.4,20.3,4.2,30.7,5l46.8,3.6
		c5,0.4,10.5,0.6,14.3-2.6c2.7-2.2,3.9-5.6,5-8.9c14.8-42.2,28-85,39.5-128.3c2.2-8.3,4.4-16.7,5.1-25.3c0.7-8.9-0.1-17.8,1-26.6
		c0.7-5.8,2.2-11.5,3.3-17.2c0.8-4.2,1.2-9.5-2.2-12.1c-3-2.4-7.7-1.3-10.4,1.3s-4.1,6.4-5.2,10c-5,16.8-6.7,34.4-9.8,51.7
		c-6.2,34.2-18.1,67-35.2,97.2c-1.2,2.4-2.8,4.5-4.7,6.3c-4,3.4-9.8,3.7-15.1,3.9c-19.4,0.6-38.8,2.2-58,4.7
		C487.3,433.4,448.2,434.4,454.6,447.1z"/>
	<path class="st4" d="M425.5,393.9c-6.4,11-13,25.6-4.7,35.2c7.2,8.3,20.2,6.3,30.9,4.1c21.7-4.4,43.7-6.7,65.8-6.8
		c19.8-0.1,42.4,0.4,56-14c7.3-7.8,10.4-18.5,12.7-28.8c6-27,8-54.9,16.6-81.2c6.3-19,16-37.1,18.9-57c0.4-1.7,0.3-3.6-0.3-5.2
		c-2.5-5.7-11-2.6-16.4,0.7c-17.2,10.5-37.9,13.4-57.9,16.1c-19.2,2.6-39.7,3.4-58.5,7.8c-15.3,3.6-15.5,13.4-19.7,27.4
		C458.7,327.6,444.1,361.8,425.5,393.9z"/>
	<path class="st5" d="M526.2,316.8c-7,0.3-13.2,7.1-15.5,13.3c-2.1,5.7,2,9.8,7.8,8.9c6.4-1.1,12.2-6.6,14-12.8
		c1.7-5.7-1.4-10.9-7.7-9c-0.7,0.2-1,0.9-0.8,1.6c0.2,0.6,0.8,1,1.5,0.8c7.3-2.1,4.9,6.6,2.8,9.8c-2.2,3.4-5.5,5.9-9.5,7
		c-2.4,0.6-6.1,0.7-6.2-3.3c0-2,1.4-4.1,2.5-5.7c2.5-3.7,6.4-7.8,11.2-8C527.8,319.2,527.9,316.8,526.2,316.8L526.2,316.8z"/>
	<path class="st5" d="M524.1,324.3c0.7,0,1.2-0.6,1.2-1.2s-0.6-1.2-1.2-1.2s-1.2,0.6-1.2,1.2S523.4,324.3,524.1,324.3z"/>
	<path class="st5" d="M518.5,327.7c0.7,0,1.2-0.6,1.2-1.2s-0.6-1.2-1.2-1.2s-1.2,0.6-1.2,1.2S517.8,327.7,518.5,327.7z"/>
	<path class="st5" d="M519.2,333.7c0.7,0,1.2-0.6,1.2-1.2s-0.6-1.2-1.2-1.2s-1.2,0.6-1.2,1.2S518.5,333.7,519.2,333.7z"/>
	<path class="st5" d="M522.8,331.5c0.7,0,1.2-0.6,1.2-1.2s-0.6-1.2-1.2-1.2s-1.2,0.6-1.2,1.2S522.1,331.5,522.8,331.5z"/>
	<path class="st5" d="M526.1,327.8c0.7,0,1.2-0.6,1.2-1.2s-0.6-1.2-1.2-1.2s-1.2,0.6-1.2,1.2S525.4,327.8,526.1,327.8z"/>
	<path class="st5" d="M515.2,322c-3.8,1-7.5,2.1-11.1,3.4c-0.7,0.2-1,0.9-0.9,1.5c0.6,1.5,1.4,3,2.4,4.3c0.3,0.5,1.2,0.9,1.4,1.4
		c0.6,1.5-0.6,3.1-1.3,4.3c-1.4,2.3-4.2,5.3-2.6,8c0.2,0.4,0.6,0.6,1.1,0.6c3.5-0.2,7-1.9,10-3.5c3.2-1.8,4-1.7,7,0
		c1.6,1,3.3,1.7,5.1,2c6.8,0.7,6.1-8.5,5.4-12.8l-0.9,1.5c2.8-1.1,11.7-4.1,11.7-8c0-3.6-7.3-4.9-9.7-5.2c-1.6-0.2-2.2,2.2-0.7,2.4
		c1,0.1,2.1,0.3,3.1,0.6l2.5,0.9c1.5,0.3,1.7,0.9,0.6,1.9c-1,2.5-6,4.2-8.2,5c-0.6,0.2-1,0.9-0.9,1.5c0.6,3.8,1,10-4.3,9.1
		c-2.3-0.4-3.6-2.5-5.7-3.2c-2.8-1-5.5,1.8-7.9,2.9c-2.1,1-6.4,3.6-4.7-0.3c0.9-2,2.6-3.7,3.4-5.7c1.3-3.6-3-5-4.3-8.3l-0.9,1.5
		c3.7-1.3,7.4-2.4,11.1-3.4c0.7-0.2,1-0.9,0.8-1.6C516.6,322.3,515.9,321.9,515.2,322L515.2,322z"/>
	<path class="st5" d="M520.8,321c2.2-3.7,4.9-7.2,7.9-10.4c0.2-0.2,1.8-1.3,1-1.4c0,0-0.4,2.9-0.4,3.2c-0.3,2.2-0.4,4.4-0.5,6.6
		c0,0.7,0.6,1.2,1.2,1.2s1.2-0.6,1.2-1.2c0.1-3.5,0.8-7,1-10.4c0.1-1.3-0.6-2.9-2.2-2.4c-1,0.3-1.8,1.4-2.5,2.1
		c-1.3,1.3-2.5,2.6-3.6,4c-1.9,2.4-3.7,4.9-5.3,7.5c-0.3,0.6-0.1,1.4,0.5,1.7C519.6,321.8,520.4,321.6,520.8,321L520.8,321z"/>
	<path class="st5" d="M496.8,336.8l3.5-0.4c0.7,0,1.2-0.6,1.2-1.2c0-0.7-0.6-1.2-1.2-1.2l-3.5,0.4c-0.7,0-1.2,0.6-1.2,1.2
		C495.5,336.3,496.1,336.8,496.8,336.8z"/>
	<path class="st5" d="M493.6,345.2c2.6-1.1,5.2-2.4,7.6-3.9c1.4-0.9,0.1-3-1.3-2.2c-2.2,1.4-4.6,2.6-7,3.6
		C491.5,343.4,492.1,345.8,493.6,345.2L493.6,345.2z"/>
	<path class="st5" d="M507.8,318.5l2.6,1.2c0.6,0.3,1.4,0.1,1.7-0.5c0.3-0.6,0.1-1.4-0.5-1.7l-2.6-1.2c-0.6-0.3-1.4-0.1-1.7,0.5
		C506.9,317.4,507.1,318.1,507.8,318.5L507.8,318.5z"/>
	<path class="st5" d="M514.2,309.2c-0.1,0,0.1,0.6,0.1,0.8c0.1,0.6,0.2,1.3,0.3,1.9l0.6,3.6c0.3,1.6,2.7,0.9,2.4-0.7l-0.9-5
		c-0.2-1.1-0.3-2.3-1.4-2.8C514.1,306.3,512.8,308.4,514.2,309.2L514.2,309.2z"/>
	<path class="st5" d="M522.2,304l-0.3,2.8c0,0.7,0.6,1.2,1.2,1.2c0.7,0,1.2-0.6,1.2-1.2l0.3-2.8c0-0.7-0.6-1.2-1.2-1.2
		C522.8,302.8,522.2,303.3,522.2,304z"/>
	<path class="st5" d="M538.2,303.8c-0.1,0.8-0.6,1.5-1.2,2c-0.5,0.5-0.5,1.3,0,1.8c0.5,0.5,1.3,0.5,1.8,0c0.9-0.8,1.6-1.9,1.8-3.1
		c0.2-0.7-0.2-1.3-0.9-1.5C539,302.7,538.3,303.1,538.2,303.8L538.2,303.8z"/>
	<path class="st5" d="M537.1,315.5c3.3-2.9,6.7-5.7,10.2-8.5c1.2-1-0.5-2.8-1.8-1.8c-3.4,2.8-6.8,5.6-10.2,8.5
		C534.2,314.8,535.9,316.5,537.1,315.5z"/>
	<path class="st5" d="M542.3,316.5l3.8-0.9c1.6-0.4,0.9-2.8-0.7-2.4l-3.8,0.9C540.1,314.5,540.7,316.9,542.3,316.5z"/>
	<path class="st5" d="M536.3,335.6l2.3-0.3c0.7-0.2,1-0.9,0.9-1.5c-0.2-0.7-0.9-1-1.5-0.9l-2.3,0.3c-0.7,0.2-1,0.9-0.9,1.5
		C535,335.4,535.7,335.8,536.3,335.6z"/>
	<path class="st5" d="M533.8,341.4c0.4,1.4,1.3,2.6,2.5,3.4c0.6,0.3,1.4,0.1,1.7-0.5c0.3-0.6,0.1-1.4-0.5-1.7
		c-0.6-0.5-1.1-1.1-1.3-1.9c-0.2-0.7-0.9-1-1.5-0.9C534,340,533.7,340.7,533.8,341.4L533.8,341.4z"/>
	<path class="st5" d="M513,341.9c-0.7,2.3-1.6,4.7-2.5,6.9c-0.6,1.5,1.8,2.1,2.4,0.7c0.9-2.3,1.8-4.6,2.5-6.9
		C515.9,341,513.5,340.3,513,341.9L513,341.9z"/>
	<path class="st5" d="M517.7,341l-2.5,7.5c-0.5,1.5,1.9,2.2,2.4,0.7l2.5-7.5C520.6,340.1,518.2,339.5,517.7,341z"/>
	<path class="st5" d="M504.7,352.3c5.8,0.6,11.7,0.2,17.3-1.2c1.6-0.4,0.9-2.8-0.7-2.4c-5.4,1.4-11.1,1.7-16.7,1.1
		C503.1,349.6,503.1,352.1,504.7,352.3L504.7,352.3z"/>
	<path class="st5" d="M500.3,347.6c-2.6-2-7.5-1.8-9.5,1.2s1.8,3.6,4.1,4.4l-0.5-2.1c-2,2.3-6.3,6.1-3.6,9.1c3,3.3,9.8,4.2,13.9,4.4
		c6.9,0.2,13.7-1.2,20-3.9c2-0.8,5.8-1.9,7-3.9c1.1-1.6-0.9-5.6,1-6.1c0.7-0.2,1.1-0.9,0.9-1.6c-0.1-0.2-0.2-0.4-0.3-0.5
		c-1.5-1.2-3.4-1.9-5.3-1.9c-0.7,0-1.2,0.6-1.2,1.2c0,1.7,0.1,2.7-1.1,3.9s-3.4,1.6-4.8,2.1c-3.1,1.2-6.3,1.9-9.5,2.1
		c-2.6,0.2-5.2,0-7.7-0.6c-1.2-0.3-2.3-0.8-3.4-1.3c-1.4-0.8-2.5-2.6-3.7-3.3c1.4,0.8,2.7-1.4,1.3-2.2l-0.5-0.2
		c-0.5-0.3-1.1-0.2-1.5,0.2c-6.5,5.3,8.5,9.7,11.7,10c5.7,0.2,11.3-0.9,16.5-3.2c4.7-2,5.2-2.4,5.2-7.4l-1.2,1.2l3.5,1.2l0.5-2.1
		c-0.9,0.2-1.9,0.6-2.7,1c-0.5,0.3-0.7,0.9-0.6,1.4c1.2,3.5,0.5,5.1-2.5,6.6c-2.1,1-4.3,1.8-6.6,2.6c-3.9,1.3-7.9,2-12,2.2
		c-3.3,0.2-6.6-0.2-9.8-1.1c-1.1-0.4-3.9-0.9-4.6-2c-1.4-2.4,1.3-4.3,2.8-6.1c0.5-0.5,0.5-1.3,0-1.8c-0.1-0.1-0.3-0.2-0.5-0.3
		c-5.5-2,3.8-0.8,2.9-1.5C499.8,350.4,501.5,348.7,500.3,347.6L500.3,347.6z"/>
	<path class="st5" d="M491.8,357.4c-2-1.3-3.8-2.9-5.3-4.7c-0.8-0.9-2-0.1-2.1,0.9c-0.2,1.9,0.1,4-2.9,4c-0.7,0-1.3,0.6-1.2,1.3
		c0,0.2,0.1,0.4,0.2,0.6c2.6,4,6.3,7.2,10.7,9.2c1.4,0.6,3.6,1.9,5.2,1.4c1.9-0.6,3.5-3.6,4.6-5.1c1-1.2-0.8-3-1.8-1.8
		c-0.8,1-2.1,3.6-3.2,4.1c-1.5,0.7-4.4-1.1-5.7-1.8c-3.2-1.8-5.9-4.3-7.8-7.3l-1.1,1.9c4.9-0.1,4.8-2,5.4-6.5l-2.1,0.9
		c1.7,1.9,3.7,3.6,5.8,5C491.9,360.3,493.2,358.2,491.8,357.4L491.8,357.4z"/>
	<path class="st5" d="M505.1,364.3c-0.8,1.6-3.7,6.7-1,7.9c2.9,1.3,4.7-4.6,5.4-6.4c0.6-1.5-1.8-2.1-2.4-0.7
		c-0.3,0.9-0.7,1.7-1.1,2.5c-0.2,0.4-0.4,0.8-0.6,1.2c-0.1,0.2-0.2,0.4-0.4,0.6c-0.4,0.3-0.4,0.4,0.1,0.5c0.6,0.3,0.4,0,0.5-0.5
		s0.2-0.8,0.4-1.2c0.3-0.9,0.7-1.9,1.2-2.8C507.9,364.1,505.8,362.8,505.1,364.3L505.1,364.3z"/>
	<path class="st5" d="M512.8,363.9c-0.3,1.9-1.4,4.5-0.5,6.4c0.2,0.4,0.6,0.6,1.1,0.6c10.2-0.6,21.5-7.6,27.8-15.3
		c0.5-0.5,0.4-1.3-0.1-1.8c-0.2-0.2-0.5-0.3-0.8-0.3c-1.8,0-3.6,0.2-5.3,0.6l1.4,1.8l2.2-3.5c0.6-1-0.7-2.5-1.7-1.7
		c-2,1.4-4,2.9-5.9,4.5c-1.3,1,0.5,2.8,1.8,1.8c1.8-1.4,3.6-2.8,5.4-4.1l-1.7-1.7l-2.2,3.5c-0.3,0.6-0.1,1.4,0.5,1.7
		c0.3,0.2,0.6,0.2,0.9,0.1c1.5-0.4,3.1-0.6,4.7-0.5l-0.9-2.1c-3.4,4.1-7.6,7.5-12.4,9.9c-2.6,1.3-5.4,2.4-8.2,3.2
		c-3.7,1.1-4.3,1.5-3.7-2.4C515.4,363,513,362.3,512.8,363.9L512.8,363.9z"/>
	<path class="st5" d="M521.8,307.1c-13.7,5.4-31,23.4-23.8,39.4c0.6,1.5,2.8,0.2,2.2-1.3c-6.4-14.3,10.3-31,22.3-35.7
		C523.9,308.9,523.3,306.5,521.8,307.1L521.8,307.1z"/>
	<path class="st5" d="M521.3,309.4c5.6-2.2,12.1-5.2,18.3-4.5c8.4,1,7.6,9.1,5.9,15.3c-2.9,10.8-8.1,23.4-18.6,28.8
		c-1.4,0.7-0.2,2.9,1.3,2.2c6.6-3.4,11.2-9.4,14.3-16c3-6.3,6-13.5,6.5-20.6c0.4-5-1-9.8-6.1-11.6c-7.2-2.5-15.8,1.4-22.3,4
		C519.2,307.6,519.8,310,521.3,309.4L521.3,309.4z"/>
	<path class="st2" d="M569.1,412.8c0.1-0.2-1.1,3.5-1.4,3.5l1.8-2.1l-2.8,0.7c-3.4,0.9-6.9,1.7-10.3,2.4c-6.6,1.5-13.2,2.7-19.8,3.8
		c-13.6,2.2-27.3,3.7-41,4.3c-13.5,0.7-27.1,0.6-40.6-0.2c-13.5-0.8-27.1-4.4-40.5-1l9.2,5.2c-3-10.6,4.7-22.8,8.8-32.2
		c6-13.9,10.5-28.4,16-42.5c11.5-29.7,24.5-58.7,38.8-87.2l-6.5,3.7c50.1,1,99.9-10.5,145.7-30.5l-11-8.5
		c-3.6,24.3-10.6,48.4-16.8,72.1c-7.3,28.4-15,56.7-22.8,84.9C573.7,397.2,571.7,405.1,569.1,412.8c-3,9.2,11.5,13.1,14.5,4
		c6.2-18.9,11-38.4,16.2-57.6c8-29.6,15.9-59.2,23-89c2.7-11.1,5.5-22.4,7.2-33.7c1-6.8-4.8-11.2-11-8.5
		c-43.3,18.9-90.8,29.3-138.1,28.4c-2.7,0-5.1,1.4-6.5,3.7c-15.2,30.2-28.8,61-41,92.6c-5.4,14.1-9.9,28.6-16.1,42.4
		c-5.4,11.9-11.7,25.2-7.9,38.5c1.2,4,5.2,6.3,9.2,5.2c7.1-1.9,14.4-0.8,21.6,0.1c6.9,0.9,13.8,1.4,20.7,1.7
		c15.1,0.7,30.2,0.4,45.3-0.7c14.7-1.1,29.4-3,43.9-5.8c7.2-1.4,14.4-3,21.6-4.8c3.5-0.9,6.4-1.5,8.6-4.7c1.6-2.3,2.5-5.1,3.3-7.7
		C586.7,407.6,572.2,403.7,569.1,412.8z"/>
	<path class="st2" d="M413.4,440.7c51.1,32.8,111.5,48.1,172.1,43.7c4.1-0.1,7.4-3.4,7.5-7.5c-0.3,3.4-0.2,1.5,0.2,0.5
		s0.8-2.2,1.2-3.3c1.3-3.7,2.7-7.4,4-11.1c4.5-12.2,9-24.5,13.4-36.8c11.4-31.6,22.5-63.3,32.1-95.5c4.3-14.6,8.5-29.3,10.9-44.4
		c0.6-4-1-8-5.2-9.2c-3.5-1-8.6,1.2-9.2,5.2c-4.7,29.8-15,59-24.6,87.5c-9.8,29.1-20.3,58-30.9,86.8c-2.3,6.3-6.2,13.4-6.8,20.2
		l7.5-7.5c-57.9,4.3-115.6-10.3-164.4-41.7C412.9,422.5,405.3,435.5,413.4,440.7L413.4,440.7z"/>
	<path class="st2" d="M623.5,268.1l16.8-2.8l-9.3-9.2c-12.6,68.9-31.5,136.4-56.3,201.9c-3.4,9,11.1,12.9,14.5,4
		c24.8-65.4,43.7-133,56.3-201.9c1.1-5.9-3.4-10.2-9.2-9.2l-16.8,2.8C610,255.2,614,269.6,623.5,268.1L623.5,268.1z"/>
	<path class="st2" d="M433.6,443.7c48.1,13.8,97.8,21.3,147.9,22.1c9.7,0.2,9.7-14.8,0-15c-48.7-0.8-97.1-8.1-143.9-21.6
		C428.3,426.5,424.3,441,433.6,443.7L433.6,443.7z"/>
	<path class="st5" d="M464.5,398.1c26.2,1.2,52.4-0.6,78.1-5.5c3.2-0.6,1.8-5.4-1.3-4.8c-25.3,4.8-51.1,6.6-76.8,5.4
		C461.3,392.9,461.3,397.9,464.5,398.1z"/>
	<path class="st5" d="M453,412.6c31.4,3.6,63.3,1.7,94-5.7c3.1-0.8,1.8-5.6-1.3-4.8c-30.3,7.3-61.7,9.2-92.7,5.6
		C449.8,407.2,449.8,412.2,453,412.6z"/>
	<path class="st6" d="M363.6,638.8c1.6-4.9,7.1-8.1,12.2-7.1s8.9,6,8.6,11.1"/>
	<g>
		<g>
			<path class="st1" d="M375,656.9c1.5-1.8,3.6-4.1,6.1-4.4c1.5-0.2,3.5,0.5,3.5,2.3c0.1,9,14.1,9,14,0c-0.1-7.6-5.6-14.3-13.1-15.9
				c-7.8-1.6-15.5,2.2-20.4,8.1C359.4,653.9,369.2,663.8,375,656.9L375,656.9z"/>
		</g>
	</g>
	<g>
		<g>
			<path class="st1" d="M356.6,642.8c1.2,13.4,4.1,26.4,9.2,38.8c1.4,3.5,4.6,5.9,8.6,4.9c3.3-0.9,6.3-5.1,4.9-8.6
				c-4.6-11.2-7.6-23-8.7-35.1C369.9,633.9,355.8,633.8,356.6,642.8L356.6,642.8z"/>
		</g>
	</g>
</g>
</svg>
