<svg xmlns="http://www.w3.org/2000/svg" viewBox="0 0 1026.35 310.72"><defs><style>.cls-1{fill:#f96058;}.cls-2{fill:#afacbc;}</style></defs><title>Prancheta 25</title><g id="Camada_2" data-name="Camada 2"><path class="cls-1" d="M342,279.65V186.43H279.84v29.76c.27,4.51,2.33,31.59,25.35,49.62A67.2,67.2,0,0,0,342,279.65Z"/><path class="cls-1" d="M373.06,279.65c7.5-2.72,33.77-13.3,50.05-41.85a94.5,94.5,0,0,0,12.09-51.4V93.22H373.06Z"/><path class="cls-1" d="M466.4,217.51c7.5-2.72,33.77-13.3,50.05-41.85a94.5,94.5,0,0,0,12.09-51.4V31.07H466.4Z"/></g><g id="Camada_3" data-name="Camada 3"><path class="cls-2" d="M18,126.21H31.79v4.39q0,12.05,13,12t12.9-12V31.36H71.49v99.25q0,24-26.72,24T18,130.61Z"/><path class="cls-2" d="M142.73,131q0,24-26.79,24T89.21,131V31.36H103V131q0,12.05,12.9,12t13-12V31.36h13.82Z"/><path class="cls-2" d="M160.45,154.74V31.36h13.82V143.17H208v11.57Z"/><path class="cls-2" d="M220.41,31.36h13.82V154.74H220.41Z"/><path class="cls-2" d="M304.55,112.93,311,154.69H297l-4.11-27H264.78l-4.18,27.06h-14l6.31-41.52,14.46-81.79h22.75ZM291,115.77l-12.26-73-12.33,73Z"/><path class="cls-2" d="M561.13,155.1h29q24.52.07,24.53,24v75.4q0,23.82-25.94,23.89H561.13ZM575,167v99.42h13q12.9,0,12.9-12v-75.4q0-12-12.9-12Z"/><path class="cls-2" d="M674.54,210.8v11.91H645.48v43.52h33.74v11.91H631.66v-123h47.56v12.18H645.48V210.8Z"/><path class="cls-2" d="M729.07,155.24h29q24.52.07,24.53,24v19.42q0,10.78-15.95,18,15.95,7.23,15.95,18v19.49q0,23.82-25.94,23.89H729.07Zm13.82,11.91v43.52h10.35a28.57,28.57,0,0,0,7.44-.71q8.08-3,8.08-11.34V179.2q0-12-12.9-12Zm0,55.43V266.1h13q12.9,0,12.9-12V234.63q0-8.43-8.08-11.27a25.21,25.21,0,0,0-7.44-.78Z"/><path class="cls-2" d="M861.33,278.07V155.3h13.82V266.16H908.9v11.91Z"/><path class="cls-2" d="M841.77,210.8v11.91H812.71v43.52h33.74v11.91H798.89v-123h47.56v12.18H812.71V210.8Z"/><path class="cls-2" d="M920.95,278.07V155.3h13.82V266.16h33.74v11.91Z"/><path class="cls-2" d="M980.91,155h13.82V278.42H980.91Z"/></g></svg>