<?xml version="1.0" encoding="utf-8"?>
<!-- Generator: Adobe Illustrator 21.0.0, SVG Export Plug-In . SVG Version: 6.00 Build 0)  -->
<svg version="1.1" id="Camada_2" xmlns="http://www.w3.org/2000/svg" xmlns:xlink="http://www.w3.org/1999/xlink" x="0px" y="0px"
	 viewBox="0 0 383.9 347" style="enable-background:new 0 0 383.9 347;" xml:space="preserve">
<style type="text/css">
	.st0{fill:#474068;}
	.st1{fill:none;}
	.st2{fill:#FFFFFF;}
	.st3{fill:#F96058;}
</style>
<g>
	<path class="st0" d="M118.9,265.6c-2.9,1.4-8.5,5.6-11.8,3.8c-1.5-0.8-2.8-2.7-4.2-4v-0.1c-0.2-0.2-0.4-0.4-0.6-0.5
		c-4.8-3.4-10.7-5.4-16.4-6.9c-12.8-3.3-26.2-3.4-39.1-0.3c0.8-0.2,1.5,0,2,0.4c-0.5-0.4-1.2-0.6-2-0.4
		c-15.7,4.6-29.2,16.2-32.7,32.7c-3.4,15.5,4,30.9,16.5,40.1c13.9,10.3,32.1,11.7,48.7,8.8c14.9-2.6,31.1-8.3,37.9-23
		c2.9-6.5,4.1-13.6,3.2-20.6l0,0c-0.2-1.9-0.7-3.8-1.3-5.6c-1-2.5-2.6-7-4.7-9.8l0,0l0,0c2.7-3.7,5.3-7.5,7.7-11.5
		C123.2,266.6,120.8,264.7,118.9,265.6z"/>
	<path class="st0" d="M361.8,189.7c-0.8-0.2-1.6,0-2.1,0.6c-5.8,5.5-14.3,7-21.6,3.8c9.4-2.2,15-9.6,20.8-18
		c8.9-12.7,12.9-27,9.3-42.3c-0.5-2.4-3.6-1.9-4.3,0c-5.6,14.1-22.4,12.2-34.3,8.1c6-11.4,7.8-25.1,2.7-37.2
		c-4.4-10.4-12.8-17.7-23.8-19.5c0.3-11.6-1.4-22.7-9.9-31.4c-7.8-7.9-18.8-11-29.5-9.5c-3.2-16.4-16.3-29-32.8-31.6
		c-15.5-2.5-31.9,0.7-41.2,12.7c-5.2-4.1-10.8-7.8-17.4-9c-7.1-1.2-14.4-0.1-20.9,3C144,24.9,133.5,36.9,132.5,51
		c-17.5-1.3-34.6,8.3-44.1,23c-10.6,16.4-10.8,37.6-4.3,55.5c-11.6,2.8-24.1,5.2-34.5-2.1c-1.1-0.6-2.5-0.3-3.1,0.8
		c-0.1,0.2-0.2,0.3-0.2,0.5c-1.9,13.2,4,25.6,14.8,32.2c-9.5-0.5-18.9-2.6-27.7-6.3c-1.5-0.6-2.7,0.9-2.9,2.2
		c-2.8,34,23.7,60.1,54.9,67.4c-6.2,2.8-13,4.2-19.8,4.3c-1.3,0.1-2.2,1.1-2.2,2.4c0,0.5,0.2,1.1,0.6,1.5c9.8,9.6,24.6,14.3,39,14.9
		c5.5,0.2,11-0.1,16.3-1.1c2.3,2.9,4.8,5.7,7.2,8.3c7.7,8.5,16.5,17.4,26.3,23.4c9.4,5.8,20,4.2,30.3,1.9c13-2.9,25-8,36.6-14.4
		c10-5.5,19.8-11.7,26.4-21.3c-1.4,11.2,2.3,23,11.1,30.5c9.7,8.1,23.2,9.8,34.6,4.3c1.7-0.8,1.2-3,0-3.9
		c-5.8-4.4-9.9-10.7-11.7-17.9l0,0c-0.3-1.2-0.5-2.4-0.7-3.6l0,0c0.2,1.2,0.4,2.4,0.7,3.7c16.2,3.2,31.9-7.4,35.1-23.6
		c0.4-2.1,0.6-4.2,0.5-6.3c21.3,2.5,42.8-14.3,47.7-34.7C363.7,191.2,363,190,361.8,189.7z"/>
</g>
<title>home cópia</title>
<path class="st0" d="M289.5,274.9c-1,0.5-2,0.9-3.1,1.2c1,0.9,2,1.8,3.1,2.6V274.9z"/>
<path class="st0" d="M118.1,266.4c-1.5,2.4-3,4.7-4.6,7c2.8-1.2,5.6-3,7.6-3.9L118.1,266.4z"/>
<path class="st0" d="M112.5,278.5l0.8,3.1l1-1.3C113.8,279.5,113.2,278.9,112.5,278.5z"/>
<path class="st0" d="M48,262c2.8-0.8,1.6-5.2-1.2-4.3S45.2,262.8,48,262z"/>
<path class="st0" d="M58.6,297c7.2-1.8,6.2,8.4,7.6,12.9c0.9,3.3,3,6.1,5.8,8c2.4,1.6,4.7-2.3,2.3-3.9c-6.5-4.3-2.7-12.9-7-18.4
	c-3-3.9-8.5-3.9-12.6-1.8c-2.4,1.2-4.3,3.2-5.4,5.7c1.1,5.4,2.7,10.7,4.6,15.9C51.8,309.4,50.7,299,58.6,297z"/>
<path class="st0" d="M54,315.3l-4.3,1.2C50.6,319.1,54.9,318,54,315.3z"/>
<path class="st0" d="M49.3,299.4c-1.5-7.4-2.2-14.9-2.1-22.4c0-2.9-4.5-2.9-4.5,0c-0.2,13.5,2.1,26.9,6.9,39.5
	C47.8,311.4,47,304.5,49.3,299.4z"/>
<path class="st0" d="M49.6,316.5l4.3-1.2c-1.9-5.2-3.5-10.5-4.6-15.9C47,304.5,47.8,311.4,49.6,316.5z"/>
<path class="st0" d="M84.6,309.7c-0.6-4.7-0.8-9.4-0.6-14c0.1-2.9-4.4-2.9-4.5,0c-0.2,5.1,0,10.2,0.8,15.2
	C80.7,313.8,85,312.6,84.6,309.7z"/>
<path class="st0" d="M81.7,288.2c2.9,0,2.9-4.5,0-4.5S78.8,288.2,81.7,288.2z"/>
<path class="st1" d="M48,262c2.8-0.8,1.6-5.2-1.2-4.3S45.2,262.8,48,262z"/>
<path class="st1" d="M81.7,288.2c2.9,0,2.9-4.5,0-4.5S78.8,288.2,81.7,288.2z"/>
<path class="st1" d="M74.3,313.9c-6.5-4.3-2.7-12.9-7-18.4c-3-3.9-8.5-3.9-12.6-1.8c-2.4,1.2-4.3,3.2-5.4,5.7
	c-1.5-7.4-2.2-14.9-2.1-22.4c0-2.9-4.5-2.9-4.5,0c-0.2,13.5,2.1,26.9,6.9,39.5c1,2.7,5.3,1.5,4.3-1.2c-2.1-5.9-3.3-16.3,4.7-18.2
	c7.2-1.8,6.2,8.4,7.6,12.9c0.9,3.3,3,6.1,5.8,7.9C74.4,319.4,76.7,315.5,74.3,313.9z"/>
<path class="st1" d="M84,295.7c0.1-2.9-4.4-2.9-4.5,0c-0.2,5.1,0,10.2,0.8,15.2c0.4,2.9,4.8,1.6,4.3-1.2
	C84,305.1,83.8,300.4,84,295.7z"/>
<path class="st0" d="M112.5,278.5l0.8,3.1l1-1.3C113.8,279.5,113.2,278.9,112.5,278.5z"/>
<path class="st0" d="M289.5,274.9c-1,0.5-2,0.9-3.1,1.2c1,0.9,2,1.8,3.1,2.6V274.9z"/>
<path class="st0" d="M118.1,266.4c-1.5,2.4-3,4.7-4.6,7c2.8-1.2,5.6-3,7.6-3.9L118.1,266.4z"/>
<path class="st2" d="M115.7,295.6L115.7,295.6c-0.3-1.8-0.8-3.6-1.5-5.2c-0.8-1.8-1.8-3.6-2.8-5.4c-0.4-0.7-0.8-1.5-1.2-2.2
	c-0.4-0.8-0.9-1,0-0.4c-1.1-0.6-1.4-2-0.8-3.1c1.4-1.9,2.8-3.9,4.1-5.8c-2.4,1-4.9,1.6-7,0.9c-1.6-0.5-2.6-1.8-3.6-3l0,0l-0.5-0.5
	c-2.8-2.6-6.2-4.6-9.8-5.9c-14.2-5.4-29.8-6.4-44.6-2.9c-16.2,4.7-30.1,18-30.3,35.8c-0.2,14.1,9.5,26.6,21.7,32.8
	c13.5,6.8,29.2,6.6,43.7,3.3c13.3-3,26.8-8.9,31.3-22.9C116,306.1,116.5,300.8,115.7,295.6z"/>
<path class="st3" d="M329.9,194c-0.9-0.9-0.8-2.3,0.1-3.2c0.4-0.4,1-0.6,1.5-0.6c12.4,0.2,18-8.5,24.4-17.7
	c6.6-9.6,10-20.3,8.9-31.7c-8.9,11.2-26.3,9.4-39.1,4.4c-1.2-0.4-1.9-1.6-1.5-2.9c0-0.2,0.1-0.3,0.2-0.5c5.9-10,8.5-22.4,4.5-33.6
	c-3.6-10.2-11.8-18-22.8-19c-1.2,0-2.2-1-2.3-2.3c0.4-10.6-0.2-20.8-7.5-29.1c-7.2-7.9-18.1-11.3-28.5-9c-1.1,0.2-2.6-0.3-2.8-1.6
	c-1.9-14.5-12.5-26.3-26.7-29.8c-16.6-4-37.1-0.1-43.8,17.5c-1,2.7-5.4,1.5-4.3-1.2c0.6-1.7,1.4-3.3,2.3-4.9
	c-10.5-8.3-22.1-11.6-34.8-5.4c-11,5.4-20.4,16-20.7,28.6c0,0.3-0.1,0.7-0.2,1c0.2,1.3-0.4,2.7-2.1,2.5c-17.2-2.2-34.2,7-43.1,21.8
	c-9.6,16-8.9,35.9-2.3,52.8c0.4,0.9,0,2-0.9,2.4c-0.1,0-0.2,0.1-0.2,0.1c-0.3,0.3-0.7,0.5-1.1,0.6c-12.1,3-25.3,5.7-36.6-0.3
	c-0.4,13.1,8.7,24.6,21.5,27.3c0.4,0.1,0.7,0.2,1,0.5c1.9,0.7,1.5,4.2-1,4.4c-12.6,1-25.2-0.8-37-5.3c-0.9,32.7,27,56.4,57.9,61.1
	c2,0.3,2.1,3.2,0.5,4.1c-6.7,4-14.3,6.6-22.1,7.5c8.7,6.4,20.3,9.6,31.7,10.1c4.4,0.2,8.9,0,13.2-0.7c-3-4-5.5-8.4-7.5-13
	c-3.7-9.2-5-19.7-5.6-29.6c-0.8-12.3,1.3-24.5,4.1-36.4s6.8-23.8,7.7-36.1c0.4-5.1,0.3-10.9,2.5-15.7c1.6-3.6,4.6-6.4,7.7-8.8
	c6.1-4.7,13.6-8.1,21.2-7.4l-1.2-2c-0.6-1.1-0.2-2.5,0.9-3.1c0.3-0.2,0.7-0.3,1.1-0.3c5,0.1,9.9,1.5,14.3,4.1
	c-0.5-4.4-2.4-8.5-5.5-11.6l0,0c-13.4-4.4-29.5-2-40,7.6c-2.1,2-5.3-1.2-3.2-3.2c18.6-17.1,51.4-13.9,65.3,6.7
	c0.9-7.2,2.3-15.7,7.3-20.5c0.8-0.7,1.6-1.4,2.5-1.9c8.1-4.7,17.8-3,25.1,1.9c2.8,1.8,5.2,4.1,7.1,6.8c9.2,12.8,9.9,30.3,12.6,45.3
	c2.8,15.5,7.6,35.2,24.9,39.9c0.3,0.1,0.7,0.3,0.9,0.5c3.2-3.3,7-5.8,11-6.5c2.8-0.5,4,3.8,1.2,4.3c-7.9,1.4-14.8,11.6-17.8,18.4
	c-3.8,9-4.1,19.1-0.9,28.3c0.3,0.7,0.1,1.4-0.3,1.9c6.5,0.3,12.7-2.7,16.5-8c1.7-2.3,5.6-0.1,3.9,2.3c-5.8,8-16,12.4-25.8,9.8
	c-7.9-2.2-14.2-8.4-16.6-16.2c-4.8,6.7-6.7,15.4-3.8,23.4c3.6,9.6,13,15.9,23.2,15.4c1.3,0,2.3,1,2.2,2.3c0,0.2,0,0.4-0.1,0.6
	c-2.4,10.3,0.3,21.7,8.2,29.1c7.3,6.7,17.7,8.9,27.1,5.8c-6.2-5.7-10.2-13.3-11.4-21.6c-0.2-1.6,1-3.3,2.8-2.8
	c13.3,4.4,27.7-2.7,32.2-16.1c1.2-3.6,1.6-7.5,1.1-11.3c-0.2-1.6,1.6-2.4,2.9-2.2c17.6,3.6,35.9-8.8,43-24.8
	C348,202,337.4,200.6,329.9,194z"/>
<path class="st3" d="M198,72.8c-7.4,0.2-11.2,3.5-13.4,10.3c-1.3,4.4-2.2,9-2.7,13.6c6.7-5.4,14.5-9.5,22.8-11.9
	c2.3-0.7,3.6,2.2,2.2,3.8c-2.3,2.7-4.6,5.4-6.7,8.2c7.2-2.2,15.1-3,22.2-0.9C218.8,84.1,211.9,72.4,198,72.8z"/>
<path class="st3" d="M139.8,159.2c0.4,3.3,1.8,7.2,5.4,8.2c3.1,0.9,5.1-1.2,6.7-3.5c2.6-3.6,4.4-7.7,5.2-12
	c1.4-7.1-0.3-15.2-5.6-20.1c-0.2,0.2-0.4,0.3-0.6,0.4C142.5,135.6,138.9,151.2,139.8,159.2z"/>
<path class="st3" d="M203.9,168.4c0.4,3.3,1.8,7.2,5.4,8.2c3.1,0.9,5.1-1.2,6.7-3.5c2.6-3.6,4.4-7.7,5.2-12
	c1.4-7.1-0.3-15.2-5.6-20.1c-0.2,0.2-0.4,0.3-0.6,0.4C206.6,144.8,203,160.4,203.9,168.4z"/>
<path class="st0" d="M276.6,256.2c1.1,0.4,2.3,0.7,3.5,0.9c-0.3-1.2-0.5-2.4-0.7-3.6L276.6,256.2z"/>
<path class="st0" d="M48,262c14.8-3.6,30.4-2.6,44.6,2.9c3.6,1.3,7,3.3,9.8,5.9l0.5,0.5v-6c-0.2-0.2-0.4-0.4-0.6-0.5
	c-4.8-3.4-10.7-5.4-16.4-6.9c-12.8-3.3-26.2-3.4-39.1-0.3C49.6,256.9,50.8,261.2,48,262z"/>
<path class="st0" d="M114.4,311c-4.6,14-18,19.8-31.3,22.9c-14.4,3.3-30.2,3.6-43.7-3.3c-12.2-6.2-21.9-18.7-21.7-32.8
	c0.2-17.7,14.2-31,30.3-35.8c-2.8,0.7-4-3.6-1.2-4.3c-15.7,4.6-29.2,16.1-32.7,32.6c-3.4,15.5,4,30.9,16.5,40.1
	c13.9,10.3,32.1,11.7,48.7,8.8c14.9-2.6,31.1-8.3,37.9-23c2.9-6.5,4.1-13.6,3.2-20.6h-4.6C116.5,300.8,116,306,114.4,311z"/>
<path class="st0" d="M114.3,280.2l-1,1.3l-0.8-3.1C113.1,278.9,113.7,279.5,114.3,280.2c2.7-3.7,5.3-7.6,7.7-11.5
	c1.3-2.1-1.2-4-3.1-3.1c-2.9,1.4-8.5,5.6-11.8,3.8c-1.5-0.9-2.8-2.7-4.2-4v6c1.1,1.2,2,2.5,3.6,3c2.1,0.7,4.6,0.1,7-0.9
	c1.6-2.3,3.1-4.6,4.6-7l3.1,3.1c-2.1,1-4.8,2.7-7.6,3.9c-1.3,2-2.7,3.9-4.2,5.8c-0.6,1.1-0.3,2.4,0.8,3.1c-0.9-0.6-0.4-0.3,0,0.4
	s0.8,1.5,1.2,2.2c1,1.8,2,3.6,2.8,5.4c0.7,1.7,1.2,3.4,1.5,5.2h4.6c-0.2-1.9-0.7-3.9-1.3-5.7C118,287.5,116.4,282.9,114.3,280.2z"/>
<path class="st0" d="M163.6,245.8l-0.2-0.1l-0.3-0.1c-2.5-1.3-4,2.7-1.8,4.1C163.6,250.6,166,247.2,163.6,245.8z"/>
<path class="st3" d="M196.1,229.8c-0.5,0.1-1,0.1-1.5,0.2c-1.6,0.1-3.1,0.2-4.1,0.3c-6.3,1-12.7,2.1-19,3.4c-4.6,0.9-9.3,2-13.9,3.1
	c-1,0.2-2.1,0.6-3.1,0.8c2.3,3.3,5.3,6.1,8.7,8.1C178,252.8,191.3,243.1,196.1,229.8z"/>
<path class="st0" d="M200.5,218.4c-18.3-0.5-36.2,3.3-53.6,8.9c-1.2,0.4-1.4,2-1.1,3c2.6,8,7.9,14.9,15.1,19.2
	c0.1,0.1,0.2,0.1,0.3,0.1c-2.3-1.4-0.7-5.3,1.8-4.1l0.3,0.1c-3.4-2.1-6.4-4.9-8.7-8.1c-1.8,0.3-3.4,0.1-4.4-2c-0.8-1.4-1-3-0.6-4.5
	l-0.7,0.2l1.1-3c0.1,0.4,0.3,0.9,0.5,1.3c1.5-1.7,4.4-2.7,7.1-3.4c3.5-1,43-8.2,43-5.8c0,2,0.1,6.8-1.5,8.3c-0.9,0.6-1.9,1-3,1.1
	c-4.9,13.3-18.1,23-32.8,15.9l0.2,0.1c2.4,1.4,0.1,4.8-2.3,3.8l0.2,0.1c9.1,4.4,19.8,3.4,27.9-2.6c8.4-6.1,12.6-16.2,13.1-26.3
	C202.6,219.6,201.7,218.5,200.5,218.4z"/>
<path class="st2" d="M171.6,233.6c6.3-1.3,12.6-2.4,19-3.4c1-0.1,2.6-0.2,4.1-0.3c0.5,0,1-0.1,1.5-0.2c0.8-2.3,1.4-4.6,1.7-7
	c-16-0.1-31.8,3.1-47,7.9c1,2.4,2.2,4.7,3.8,6.8c1-0.2,2.1-0.6,3.1-0.8C162.3,235.6,167,234.6,171.6,233.6z"/>
<path class="st1" d="M214.9,141.4c-8.4,3.4-11.9,19-11.1,27c0.4,3.3,1.8,7.2,5.4,8.2c3.1,0.9,5.1-1.2,6.7-3.5
	c2.6-3.6,4.4-7.7,5.2-12c1.4-7.1-0.3-15.2-5.6-20.1C215.4,141.2,215.2,141.3,214.9,141.4z"/>
<path class="st1" d="M200.5,218.4c-18.3-0.5-36.2,3.3-53.6,8.9c-1.2,0.4-1.4,2-1.1,3c2.6,8,7.9,14.9,15.1,19.2
	c0.1,0.1,0.2,0.1,0.3,0.1l0.2,0.1c9.1,4.4,19.8,3.4,27.9-2.6c8.4-6.1,12.6-16.2,13.1-26.3C202.7,219.6,201.8,218.5,200.5,218.4z
	 M199.1,228.7c-0.9,0.6-1.9,1-3,1.1c0.8-2.3,1.4-4.6,1.7-7c-16-0.1-31.8,3.1-47,7.9c1,2.4,2.2,4.7,3.8,6.8c-1.8,0.3-3.4,0.1-4.4-2
	c-0.8-1.4-1-3-0.6-4.5l-0.7,0.2l1.1-3c0.1,0.4,0.3,0.9,0.5,1.3c1.5-1.7,4.4-2.7,7.1-3.4c3.5-1,43-8.2,43-5.8
	C200.6,222.3,200.7,227.2,199.1,228.7L199.1,228.7z"/>
<path class="st1" d="M151.9,163.9c2.6-3.6,4.4-7.7,5.2-12c1.4-7.1-0.3-15.2-5.6-20.1c-0.2,0.2-0.4,0.3-0.6,0.4
	c-8.4,3.4-11.9,19-11.1,27c0.4,3.3,1.8,7.2,5.4,8.2C148.3,168.3,150.3,166.2,151.9,163.9z"/>
<path class="st1" d="M276.6,256.2c1.1,0.4,2.3,0.7,3.5,0.9c-0.3-1.2-0.5-2.4-0.7-3.6L276.6,256.2z"/>
<path class="st1" d="M289.5,274.9c-1,0.5-2,0.9-3.1,1.2c1,0.9,2,1.8,3.1,2.6V274.9z"/>
<path class="st1" d="M329.9,194c-0.9-0.9-0.8-2.3,0.1-3.2c0.4-0.4,1-0.6,1.5-0.6c12.4,0.2,18-8.5,24.4-17.7
	c6.6-9.6,10-20.3,8.9-31.7c-8.9,11.2-26.3,9.4-39.1,4.4c-1.2-0.4-1.9-1.6-1.5-2.9c0-0.2,0.1-0.3,0.2-0.5c5.9-10,8.5-22.4,4.5-33.6
	c-3.6-10.2-11.8-18-22.8-19c-1.2,0-2.2-1-2.3-2.3c0.4-10.6-0.2-20.8-7.5-29.1c-7.2-7.9-18.1-11.3-28.5-9c-1.1,0.2-2.6-0.3-2.8-1.6
	c-1.9-14.5-12.5-26.3-26.7-29.8c-16.6-4-37.1-0.1-43.8,17.5c-1,2.7-5.4,1.5-4.3-1.2c0.6-1.7,1.4-3.3,2.3-4.9
	c-10.5-8.3-22.1-11.6-34.8-5.4c-11,5.4-20.4,16-20.7,28.6c0,0.3-0.1,0.7-0.2,1c0.2,1.3-0.4,2.7-2.1,2.5c-17.2-2.2-34.2,7-43.1,21.8
	c-9.6,16-8.9,35.9-2.3,52.8c0.4,0.9,0,2-0.9,2.4c-0.1,0-0.2,0.1-0.2,0.1c-0.3,0.3-0.7,0.5-1.1,0.6c-12.1,3-25.3,5.7-36.6-0.3
	c-0.4,13.1,8.7,24.6,21.5,27.3c0.4,0.1,0.7,0.2,1,0.5c1.9,0.7,1.5,4.2-1,4.4c-12.6,1-25.2-0.8-37-5.3c-0.9,32.7,27,56.4,57.9,61.1
	c2,0.3,2.1,3.2,0.5,4.1c-6.7,4-14.3,6.6-22.1,7.5c8.7,6.4,20.3,9.6,31.7,10.1c4.4,0.2,8.9,0,13.2-0.7c-3-4-5.5-8.4-7.5-13
	c-3.7-9.2-5-19.7-5.6-29.6c-0.8-12.3,1.3-24.5,4.1-36.4s6.8-23.8,7.7-36.1c0.4-5.1,0.3-10.9,2.5-15.7c1.6-3.6,4.6-6.4,7.7-8.8
	c6.1-4.7,13.6-8.1,21.2-7.4l-1.2-2c-0.6-1.1-0.2-2.5,0.9-3.1c0.3-0.2,0.7-0.3,1.1-0.3c5,0.1,9.9,1.5,14.3,4.1
	c-0.5-4.4-2.4-8.5-5.5-11.6l0,0c-13.4-4.4-29.5-2-40,7.6c-2.1,2-5.3-1.2-3.2-3.2c18.6-17.1,51.4-13.9,65.3,6.7
	c0.9-7.2,2.3-15.7,7.3-20.5c0.8-0.7,1.6-1.4,2.5-1.9c8.1-4.7,17.8-3,25.1,1.9c2.8,1.8,5.2,4.1,7.1,6.8c9.2,12.8,9.9,30.3,12.6,45.3
	c2.8,15.5,7.6,35.2,24.9,39.9c0.3,0.1,0.7,0.3,0.9,0.5c3.2-3.3,7-5.8,11-6.5c2.8-0.5,4,3.8,1.2,4.3c-7.9,1.4-14.8,11.6-17.8,18.4
	c-3.8,9-4.1,19.1-0.9,28.3c0.3,0.7,0.1,1.4-0.3,1.9c6.5,0.3,12.7-2.7,16.5-8c1.7-2.3,5.6-0.1,3.9,2.3c-5.8,8-16,12.4-25.8,9.8
	c-7.9-2.2-14.2-8.4-16.6-16.2c-4.8,6.7-6.7,15.4-3.8,23.4c3.6,9.6,13,15.9,23.2,15.4c1.3,0,2.3,1,2.2,2.3c0,0.2,0,0.4-0.1,0.6
	c-2.4,10.3,0.3,21.7,8.2,29.1c7.3,6.7,17.7,8.9,27.1,5.8c-6.2-5.7-10.2-13.3-11.4-21.6c-0.2-1.6,1-3.3,2.8-2.8
	c13.3,4.4,27.7-2.7,32.2-16.1c1.2-3.6,1.6-7.5,1.1-11.3c-0.2-1.6,1.6-2.4,2.9-2.2c17.6,3.6,35.9-8.8,43-24.8
	C348,202,337.4,200.6,329.9,194z"/>
<path class="st1" d="M181.9,96.7c6.7-5.4,14.5-9.5,22.8-11.9c2.3-0.7,3.6,2.2,2.2,3.8c-2.3,2.7-4.6,5.4-6.7,8.2
	c7.2-2.2,15.1-3,22.2-0.9c-3.5-11.7-10.4-23.4-24.3-23c-7.4,0.2-11.2,3.5-13.4,10.3C183.3,87.5,182.4,92.1,181.9,96.7z"/>
<path class="st2" d="M221.9,225.7c-4.6-11.2-1.1-24,7.2-32.4c1.5-1.5,3.6-0.2,3.8,1.6c0.9,8,6.7,14.6,14.6,16.5
	c0-0.1-0.1-0.1-0.1-0.2c-3.6-10.5-3-22.1,1.5-32.2c1.7-3.6,3.8-6.9,6.2-10c-27.2-8.3-26.4-45.2-31.5-67.7l-0.1-0.3
	c-0.2,0-0.3-0.1-0.4-0.2c-8.5-3.8-20.1-1.1-28.1,2.5c-1.8,0.8-4.5-1-3.1-3.1c2-2.9,4.1-5.6,6.2-8.3c-6.3,2.8-12,6.6-17,11.3
	c-0.9,0.9-2.4,0.8-3.2-0.1c-0.2-0.3-0.4-0.6-0.5-0.9c-2.6-6.9-7.6-12.7-14-16.4c1.7,3.9,2.5,8.1,2.4,12.4c0,2.1-2.4,2.8-3.8,1.6
	c-3.2-2.5-6.9-4.2-10.8-5l1.6,2.6c1,1.6-0.7,4-2.5,3.3c-9.7-3.6-24.7,2.8-28.9,12.6c-2.3,5.2-1.8,11.6-2.3,17.2
	c-0.6,5.2-1.6,10.3-2.9,15.3c-5.2,20.8-10.4,40.7-7.7,62.3c1.1,9.1,2.9,18.1,7.8,26c1.7,2.7,3.4,5.3,5.4,7.8
	c0.2,0.2,0.4,0.5,0.6,0.8c4.2,5.2,8.7,10.2,13.5,14.9c6.9,6.9,15.5,16.1,25,19c9.8,3,22.2-1,31.6-4c9.8-3.1,18.9-7.6,27.8-12.7
	c8.2-4.6,16.1-9.9,21.6-17.6C232.8,240.3,225.4,234.1,221.9,225.7z M136.4,164.3c-2.7-7.2-0.6-15.9,2-22.8c1.9-5.1,4.4-9.7,8.9-12.5
	c-8.8-4-18.8,0.7-21.9,9.8c-0.9,2.7-5.3,1.6-4.3-1.2c4.2-12,17.6-18.3,29.1-12.2c12,6.3,14.2,21.8,9.5,33.4
	c-2,5.1-5.8,12.4-11.8,13.2C142.7,172.7,138.2,169,136.4,164.3L136.4,164.3z M144.1,191.8c2.6-5,10.1-8.9,15.3-10.1
	c2.8-0.7,4,3.7,1.2,4.3c-3.8,0.9-8.9,3.4-11.4,6.5c-3.3,3.9,2.2,9.7,4.2,13.1c1.5,2.5-2.4,4.7-3.9,2.3
	C146.8,203.5,141.2,197.3,144.1,191.8L144.1,191.8z M189.4,247.1c-8.1,6-18.9,7-27.9,2.6l-0.2-0.1c-0.1,0-0.2-0.1-0.3-0.1
	c-7.2-4.4-12.5-11.2-15.1-19.2c-0.3-1-0.2-2.6,1.1-3c17.4-5.6,35.3-9.4,53.6-8.9c1.2,0.1,2.1,1.2,2,2.5
	C202,230.9,197.8,241.1,189.4,247.1L189.4,247.1z M211.9,181.3c-5.1,0.6-9.7-3.1-11.4-7.7c-2.7-7.2-0.6-15.9,2-22.8
	c1.9-5.1,4.4-9.7,8.9-12.5c-8.8-4-18.8,0.7-21.9,9.8c-0.9,2.7-5.3,1.6-4.3-1.2c4.1-12,17.6-18.3,29.1-12.2
	c12,6.3,14.2,21.8,9.5,33.4C221.7,173.2,218,180.5,211.9,181.3L211.9,181.3z"/>
<path class="st0" d="M147.9,172.1c6.1-0.8,9.8-8.1,11.8-13.2c4.7-11.6,2.5-27.2-9.5-33.4c-11.6-6.1-25,0.2-29.1,12.2
	c-1,2.7,3.4,3.9,4.3,1.2c3.1-9,13.1-13.8,21.9-9.8c-4.5,2.8-6.9,7.4-8.9,12.5c-2.6,6.9-4.8,15.6-2,22.8
	C138.2,169,142.7,172.7,147.9,172.1z M145.2,167.4c-3.6-1-5-4.9-5.4-8.2c-0.9-8,2.7-23.6,11.1-27c0.2-0.1,0.4-0.2,0.6-0.4
	c5.3,4.9,7,13,5.6,20.1c-0.9,4.3-2.6,8.4-5.2,12C150.3,166.2,148.3,168.3,145.2,167.4z"/>
<path class="st0" d="M214.3,134.6c-11.6-6.1-25,0.2-29.1,12.2c-1,2.7,3.4,3.9,4.3,1.2c3.1-9,13.1-13.8,21.9-9.8
	c-4.5,2.8-6.9,7.4-8.9,12.5c-2.6,6.9-4.8,15.6-2,22.8c1.8,4.6,6.3,8.4,11.4,7.7c6.1-0.8,9.8-8.1,11.8-13.2
	C228.4,156.5,226.2,140.9,214.3,134.6z M221.2,161.1c-0.9,4.3-2.6,8.4-5.2,12c-1.6,2.3-3.6,4.4-6.7,3.5c-3.6-1-5-4.9-5.4-8.2
	c-0.9-8,2.7-23.6,11.1-27c0.2-0.1,0.4-0.2,0.6-0.4C220.9,146,222.6,154.1,221.2,161.1L221.2,161.1z"/>
<path class="st0" d="M359.7,190.2c-5.8,5.5-14.3,7-21.6,3.8c9.4-2.2,15-9.6,20.8-18c8.9-12.7,12.9-27,9.3-42.3
	c-0.5-2.4-3.6-1.9-4.3,0c-5.6,14.1-22.4,12.1-34.3,8.1c6-11.4,7.8-25.1,2.7-37.2c-4.4-10.4-12.9-17.7-23.8-19.5
	c0.3-11.6-1.4-22.7-9.9-31.4c-7.8-7.9-18.8-11-29.5-9.5c-3.2-16.4-16.3-29-32.8-31.6c-15.5-2.4-31.9,0.7-41.2,12.7
	c-5.2-4.1-10.8-7.8-17.4-9c-7.1-1.2-14.4-0.1-20.9,3C144,24.9,133.5,36.9,132.5,51c-17.5-1.3-34.6,8.3-44.1,23
	c-10.6,16.4-10.8,37.6-4.3,55.6c-11.6,2.8-24.1,5.2-34.5-2.1c-1.1-0.6-2.5-0.3-3.1,0.8c-0.1,0.2-0.2,0.3-0.2,0.5
	c-1.9,13.2,4,25.6,14.8,32.2c-9.5-0.5-18.9-2.6-27.7-6.3c-1.5-0.6-2.7,0.9-2.9,2.2c-2.8,34,23.7,60.1,54.8,67.4
	c-6.2,2.8-13,4.2-19.8,4.3c-1.3,0.1-2.2,1.1-2.2,2.4c0,0.5,0.2,1.1,0.6,1.5c9.8,9.6,24.6,14.3,38.9,14.9c5.5,0.2,11-0.1,16.3-1.1
	c2.3,2.9,4.8,5.6,7.2,8.3c7.7,8.5,16.5,17.4,26.3,23.4c9.4,5.8,20,4.2,30.3,1.9c13-2.9,25-8,36.6-14.4c10-5.5,19.8-11.7,26.4-21.3
	l0,0c-1.4,11.2,2.3,23,11.1,30.5c9.7,8.1,23.2,9.8,34.6,4.3c1.7-0.8,1.2-3,0-3.9c-5.8-4.4-9.9-10.7-11.7-17.9
	c-1.2-0.2-2.4-0.5-3.5-0.9l2.8-2.8c0.2,1.2,0.4,2.4,0.7,3.7c16.2,3.2,31.9-7.4,35.1-23.6c0.4-2.1,0.6-4.2,0.5-6.3
	c21.3,2.5,42.8-14.3,47.7-34.7c0.3-1.2-0.4-2.5-1.6-2.8C361,189.5,360.2,189.7,359.7,190.2z M220.2,260c-8.9,5-18,9.6-27.8,12.7
	c-9.4,3-21.8,6.9-31.6,4c-9.6-2.9-18.1-12.1-25-19c-4.8-4.7-9.3-9.6-13.5-14.9c-0.1-0.3-0.3-0.6-0.6-0.8c-1.9-2.5-3.7-5.1-5.4-7.8
	c-4.8-8-6.6-16.9-7.8-26c-2.7-21.6,2.5-41.5,7.7-62.3c1.4-5,2.4-10.2,2.9-15.3c0.5-5.6,0-12,2.3-17.2c4.2-9.8,19.2-16.2,28.9-12.6
	c1.9,0.7,3.5-1.7,2.5-3.3l-1.6-2.6c3.9,0.8,7.6,2.5,10.8,5c1.5,1.2,3.8,0.5,3.8-1.6c0.2-4.3-0.7-8.5-2.4-12.4
	c6.4,3.7,11.4,9.5,14,16.4c0.4,1.2,1.6,1.9,2.8,1.5c0.3-0.1,0.7-0.3,0.9-0.5c5-4.7,10.7-8.5,17-11.3c-2.2,2.6-4.3,5.3-6.3,8.2
	c-1.4,2,1.2,3.9,3.1,3.1c8.1-3.6,19.7-6.3,28.1-2.5c0.1,0.1,0.3,0.1,0.4,0.2l0.1,0.3c5.1,22.5,4.3,59.4,31.5,67.7
	c-2.4,3.1-4.5,6.5-6.2,10c-4.6,10.1-5.1,21.6-1.5,32.2c0,0.1,0,0.1,0.1,0.2c-7.9-1.9-13.7-8.5-14.6-16.5c-0.2-1.8-2.4-3.1-3.8-1.6
	c-8.3,8.4-11.8,21.3-7.2,32.4c3.6,8.5,11,14.7,20,16.6C236.3,250.1,228.4,255.4,220.2,260z M198,72.8c13.9-0.4,20.7,11.3,24.3,23
	c-7-2.1-15-1.2-22.2,0.9c2.1-2.8,4.4-5.6,6.7-8.2c1.4-1.6,0.1-4.4-2.2-3.8c-8.3,2.5-16,6.5-22.8,11.9c0.5-4.6,1.4-9.1,2.7-13.6
	C186.8,76.3,190.7,73.1,198,72.8z M313.9,222.3c-1.3-0.3-3,0.6-2.9,2.2c1.8,13.9-8.1,26.7-22,28.4c-3.8,0.5-7.6,0.1-11.3-1.1
	c-1.8-0.6-3,1.2-2.8,2.8c1.2,8.3,5.2,15.9,11.4,21.6c1.1-0.3,2.1-0.8,3.1-1.2v3.9c-1.1-0.8-2.1-1.7-3.1-2.6
	c-9.4,3.1-19.8,0.9-27.1-5.8c-7.9-7.4-10.6-18.8-8.1-29.1c0.3-1.2-0.4-2.5-1.6-2.8c-0.2,0-0.4-0.1-0.6-0.1
	c-10.3,0.5-19.7-5.7-23.3-15.3c-2.8-8-1-16.7,3.8-23.4c2.4,7.9,8.6,14,16.6,16.2c9.8,2.6,19.9-1.8,25.8-9.8c1.7-2.3-2.2-4.6-3.9-2.3
	c-3.8,5.3-10,8.3-16.5,8c0.5-0.5,0.6-1.3,0.3-1.9c-3.2-9.2-2.9-19.3,0.9-28.3c2.9-6.8,9.9-17.1,17.8-18.4c2.9-0.5,1.6-4.8-1.2-4.3
	c-4,0.7-7.7,3.2-11,6.5c-0.3-0.2-0.6-0.4-0.9-0.5c-17.4-4.7-22.2-24.4-24.9-39.9c-2.7-15-3.4-32.5-12.6-45.4c-2-2.7-4.4-5-7.1-6.8
	c-7.4-4.9-17.1-6.6-25.1-1.9c-0.9,0.5-1.8,1.2-2.5,1.9c-5,4.8-6.4,13.3-7.3,20.5c-13.9-20.6-46.7-23.8-65.3-6.7
	c-2.1,2,1.1,5.1,3.2,3.2c10.5-9.6,26.5-12,40-7.6l0,0c3.1,3.1,5,7.2,5.5,11.6c-4.4-2.5-9.3-3.9-14.3-4.1c-1.3,0-2.3,1.1-2.2,2.3
	c0,0.4,0.1,0.8,0.3,1.1l1.2,2c-7.6-0.7-15,2.7-21.2,7.4c-3.1,2.4-6,5.2-7.7,8.8c-2.2,4.8-2.1,10.6-2.5,15.7
	c-0.9,12.3-4.9,24.1-7.7,36.1s-4.9,24.1-4.1,36.3c0.6,9.9,1.9,20.4,5.6,29.6c1.9,4.6,4.5,9,7.5,13c-4.4,0.6-8.8,0.9-13.2,0.7
	c-11.3-0.5-23-3.7-31.7-10.1c7.8-0.9,15.3-3.4,22.1-7.5c1.5-0.9,1.5-3.8-0.5-4.1C61.9,216.4,34,192.8,34.9,160
	c11.8,4.4,24.4,6.2,37,5.3c2.5-0.2,2.8-3.6,1-4.4c-0.3-0.2-0.6-0.4-1-0.5C59,157.7,50,146.2,50.4,133.1c11.3,6,24.5,3.3,36.6,0.3
	c0.4-0.1,0.8-0.3,1.1-0.6c1-0.3,1.5-1.3,1.2-2.3c0-0.1-0.1-0.2-0.1-0.2c-6.6-16.9-7.2-36.8,2.3-52.7c8.8-14.8,25.8-24,43.1-21.8
	c1.6,0.2,2.3-1.2,2.1-2.5c0.2-0.3,0.2-0.7,0.2-1c0.4-12.7,9.7-23.3,20.7-28.6c12.7-6.2,24.3-2.9,34.8,5.4c-0.9,1.6-1.6,3.2-2.3,4.9
	c-1,2.7,3.3,3.9,4.3,1.2c6.6-17.6,27.1-21.5,43.8-17.5c14.2,3.5,24.8,15.3,26.7,29.8c0.2,1.3,1.7,1.8,2.8,1.6
	c10.4-2.3,21.3,1.1,28.5,9c7.4,8.2,8,18.5,7.5,29.1c0,1.2,1,2.2,2.2,2.2c11,1.1,19.1,8.8,22.8,19c4,11.2,1.4,23.6-4.5,33.6
	c-0.6,1.1-0.2,2.5,0.9,3.1c0.1,0.1,0.3,0.1,0.5,0.2c12.8,5,30.2,6.9,39.1-4.4c1.1,11.3-2.3,22-8.9,31.7c-6.3,9.2-12,17.9-24.4,17.7
	c-1.3,0-2.2,1.1-2.2,2.3c0,0.6,0.2,1.1,0.6,1.5c7.4,6.6,18.1,8,27,3.6C349.8,213.5,331.5,225.9,313.9,222.3z"/>
<path class="st0" d="M153.4,205.6c-2.1-3.4-7.5-9.2-4.2-13.1c2.6-3.1,7.6-5.6,11.4-6.5c2.8-0.7,1.6-5-1.2-4.3
	c-5.1,1.2-12.7,5.1-15.3,10.1c-2.9,5.5,2.8,11.7,5.4,16.1C151,210.4,154.9,208.1,153.4,205.6z"/>
<path class="st0" d="M149.9,228.3l-1.1,3l0.7-0.2c-0.4,1.5-0.2,3.1,0.6,4.5c1,2.1,2.7,2.3,4.4,2c-1.5-2.1-2.8-4.4-3.8-6.8
	c-0.1-0.4-0.3-0.7-0.4-1.1S150.1,228.8,149.9,228.3z"/>
<path class="st1" d="M150.4,229.6c-0.2-0.4-0.3-0.9-0.5-1.3"/>
<path class="st0" d="M157.5,226.2c-2.8,0.8-5.6,1.7-7.1,3.4c0.1,0.4,0.3,0.7,0.4,1.1c15.2-4.8,31-8,47-7.9c-0.3,2.4-0.9,4.7-1.7,7
	c1.1-0.1,2.1-0.4,3-1.1c1.6-1.5,1.5-6.4,1.5-8.3C200.5,218,161,225.2,157.5,226.2z"/>
<path class="st1" d="M150.8,230.7c-0.1-0.4-0.3-0.7-0.4-1.1"/>
<g>
	<g>
		<path class="st3" d="M37,279.7c1,13,0.7,27,3.7,39.7c0.7,3,5.1,2.2,5.2-0.7c0.4-12.8-2.7-26.3-4.3-39
			C41.3,276.8,36.8,276.6,37,279.7L37,279.7z"/>
	</g>
</g>
<g>
	<g>
		<path class="st3" d="M38.7,302.5c4.3-0.2,8.6-0.5,12.9-0.9c3.6-0.3,6.8-0.3,9.7-2.5c1.5-1.2,0.4-3.4-1-3.9
			c-3.3-1.2-6.9,0.1-10.3,0.9c-4,0.9-7.9,1.9-11.8,2.9C36.3,299.4,36.6,302.6,38.7,302.5L38.7,302.5z"/>
	</g>
</g>
<g>
	<g>
		<path class="st3" d="M58.2,278.3c-0.1,6.7-0.2,13.3-0.3,20c-0.1,6-1.4,13.2,0.4,18.9c1,3.1,5.5,3.2,6.4,0
			c1.6-5.8,0.1-12.9-0.3-18.9c-0.4-6.6-0.8-13.3-1.1-20C63.1,275.1,58.2,275.1,58.2,278.3L58.2,278.3z"/>
	</g>
</g>
<g>
	<g>
		<path class="st3" d="M71.9,298c0.1,2.9,0.2,5.9,0.2,8.8c0,2.7-0.5,5.7,0.4,8.3c1,2.7,4.5,2.7,5.6,0c1-2.6,0.4-5.6,0.2-8.3
			c-0.2-2.9-0.5-5.9-0.9-8.8C77,294.6,71.7,294.4,71.9,298L71.9,298z"/>
	</g>
</g>
<g>
	<g>
		<path class="st3" d="M78.7,289.6c0.1-0.3,0.2-0.6,0.3-0.8c0.4-1.7-0.4-3.5-2-4.2c-0.7-0.3-1.6-0.4-2.3-0.2
			c-0.8,0.3-1.7,0.8-2.1,1.6c-0.2,0.6-0.5,1.1-0.6,1.7c-0.6,1.8,0.7,3.9,2.5,4.4C76.3,292.5,78.1,291.5,78.7,289.6L78.7,289.6z"/>
	</g>
</g>
<g>
	<g>
		<path class="st3" d="M93.1,280.7c-0.7,8.5-1.3,16.8-2.3,25.3c-0.3,2.6,3.8,3,4.5,0.6c2.4-8.2,3.1-18,1.5-26.4
			C96.3,278,93.3,278.7,93.1,280.7L93.1,280.7z"/>
	</g>
</g>
<g>
	<g>
		<path class="st3" d="M94,319c0.1-0.1,0.2-0.2,0.3-0.2c1.2-1,1.4-3.2,0.6-4.5c-0.9-1.4-2.5-2-4.2-1.7c-0.1,0-0.2,0.1-0.4,0.1
			c-2.4,0.5-3.4,3.5-2.3,5.5c0.5,0.8,1.3,1.5,2.3,1.7C91.7,320.3,93,319.9,94,319L94,319z"/>
	</g>
</g>
</svg>
