<svg xmlns="http://www.w3.org/2000/svg" viewBox="0 0 846.77 846.77"><defs><style>.cls-1{fill:#afacbc;}.cls-2{fill:#fff;}.cls-3{fill:#f96058;}.cls-4{fill:#474068;}</style></defs><title>Prancheta 22</title><g id="Camada_3" data-name="Camada 3"><rect class="cls-1" x="160.63" y="225.48" width="546.58" height="400.92"/><rect class="cls-2" x="139.56" y="202.57" width="546.58" height="400.92"/><rect class="cls-3" x="161.75" y="226.75" width="502.2" height="311.66"/><path class="cls-4" d="M686.14,597.84H162c-7,0-14.45-.69-21.44,0-.31,0-.64,0-1,0l7.5,7.5V220.88c0-5.14.58-10.67,0-15.78a6.25,6.25,0,0,1,0-.69l-7.5,7.5H663.74c7,0,14.45.69,21.44,0,.31,0,.64,0,1,0l-7.5-7.5V556c0,16.18-.67,32.52,0,48.69,0,.23,0,.46,0,.69,0,9.65,15,9.67,15,0V253.79c0-16.18.67-32.52,0-48.69,0-.23,0-.46,0-.69a7.61,7.61,0,0,0-7.5-7.5H207c-22.11,0-44.39-.77-66.49,0-.32,0-.64,0-1,0a7.61,7.61,0,0,0-7.5,7.5V556c0,16.18-.67,32.52,0,48.69,0,.23,0,.46,0,.69a7.61,7.61,0,0,0,7.5,7.5H618.69c22.11,0,44.39.77,66.49,0,.32,0,.64,0,1,0C695.79,612.84,695.81,597.84,686.14,597.84Z"/><path class="cls-1" d="M535.6,554.38c-5-1-9.28.25-12.42,4.36l3.93-.51c-5.55-4.52-14.28-5.75-18.26,1.66-4.28,8,3.29,14.32,9.27,18.26,2.74,1.8,6.53,5.58,10,4.57,4.05-1.17,7.69-6.16,10-9.47,4.76-6.88,7.07-15.42-2.5-18.89-3-1.1-4.34,3.73-1.33,4.82,6.72,2.43.87,10.09-2,13.55a19.9,19.9,0,0,1-3.29,3.41c-2.56,1.78-3.92.57-6.28-1-3.15-2.06-7.27-4.19-9.19-7.6a5.31,5.31,0,0,1,3.22-8c2.71-.73,4.86.53,6.86,2.16a2.56,2.56,0,0,0,3.93-.51c1.75-2.29,4.24-2.58,6.77-2.06C537.41,559.85,538.75,555,535.6,554.38Z"/><path class="cls-1" d="M615.69,566.79c-3.7-6.95-11.26-13.18-19.62-11.67a19.37,19.37,0,0,0-10.46,6.1c-1.93,2.07-5.47,5.56-5.26,8.67.44,6.59,10.92,9.95,16.19,10.12A23.55,23.55,0,0,0,608,577.23c2.7-1.39,7-3.89,8.07-6.9.59-1.63-.92-3.06-2.41-3.16h-.14a2.56,2.56,0,0,0-2.5,2.5v.11c-.39,3.19,4.61,3.16,5,0v-.11l-2.5,2.5h.14L611.25,569c-.43,1.18-4,2.95-5.08,3.56a19.47,19.47,0,0,1-7.51,2.4c-3.34.3-11.74-.9-12.7-5.05-.42-1.82,2.38-4.41,3.73-5.73a13.55,13.55,0,0,1,7.39-4.11c6.32-.94,11.55,4.07,14.29,9.23,1.51,2.84,5.83.32,4.32-2.52Z"/><path class="cls-1" d="M595.64,564.65c-2.48,2.66-1.56,7.42,2.24,8.27a4.93,4.93,0,0,0,5.93-6c-.95-3.44-5.6-5-8.61-3.22a5.34,5.34,0,0,0-1.16,8.05,5.1,5.1,0,0,0,4.84,1.36,5.3,5.3,0,0,0,3.79-3.4,2.52,2.52,0,0,0-1.75-3.08,2.56,2.56,0,0,0-3.08,1.75,1.44,1.44,0,0,1,.2-.35c-.35.48.18-.09-.08.1l-.19.12c.24-.15-.32,0,0,0s-.26,0-.33,0c.44,0,0,0,0,0s.33.24,0,0l.23.18c-.23-.18.11.26,0,0s0-.14,0,0,0,.15,0-.11c0,0,.06-.4,0,0a2.7,2.7,0,0,1,.12-.43c-.1.25-.09.16,0,0a.38.38,0,0,1-.2.22h0a5.42,5.42,0,0,1,.55-.08,6.52,6.52,0,0,1,.8.21c.38.17,0,.19,0-.11,0-.15.15.16,0,.06s.14.4,0,0c0,.14-.15.34,0,.08s0-.08-.07.05l.11-.12q.29-.11,0,0t0,0q.2,0,0,0c-.34-.09.25.17-.05,0s.12.05.17.1.05.17.1.24-.15-.38-.05-.09c-.06-.19-.1-.33,0,0,0,.07.2-.24,0-.06,2.19-2.35-1.34-5.9-3.54-3.54Z"/><path class="cls-1" d="M436.27,553.78c-8.11,4.26-11.28,15.47-2.48,20.95l-.9-3.42c-1.68,2.78-7.65,10.47-.85,11.41,3.69.51,8.14-2.83,10.76-5l-2.43.64c8.79,3.26,24.59-2,22.34-13.75-2.06-10.71-16.94-14.6-25.85-11-3,1.18-1.66,6,1.33,4.82,5.76-2.3,14-1.18,18,4,3.49,4.57.52,8.71-3.88,10.83a13,13,0,0,1-10.59.29,2.52,2.52,0,0,0-2.43.64,20.72,20.72,0,0,1-4.37,2.78l-1.24.56q-2.12.35.81.92c1-.57,2.17-3.6,2.75-4.56a2.54,2.54,0,0,0-.9-3.42c-5.74-3.58-2.07-9.93,2.48-12.31C441.65,556.6,439.12,552.28,436.27,553.78Z"/><path class="cls-1" d="M632.73,561.76a55.63,55.63,0,0,0,.23,10c.36,3.16,5.36,3.2,5,0a55.63,55.63,0,0,1-.23-10c.21-3.21-4.79-3.2-5,0Z"/><path class="cls-1" d="M642.05,561.26l.54,10c.17,3.2,5.17,3.22,5,0l-.54-10c-.17-3.2-5.17-3.22-5,0Z"/><path class="cls-1" d="M650.7,561.75l.56,9c.2,3.2,5.2,3.22,5,0l-.56-9c-.2-3.2-5.2-3.22-5,0Z"/><path class="cls-1" d="M550.21,563.26l-.57,8.49c-.22,3.21,4.78,3.2,5,0l.57-8.49c.22-3.21-4.78-3.2-5,0Z"/><path class="cls-1" d="M557.84,563.61a20,20,0,0,0-.22,8.84c.61,3.16,5.43,1.82,4.82-1.33a14.06,14.06,0,0,1,.22-6.18c.79-3.12-4-4.45-4.82-1.33Z"/><path class="cls-1" d="M565.2,564.25l.5,8c.2,3.2,5.2,3.22,5,0l-.5-8c-.2-3.2-5.2-3.22-5,0Z"/><path class="cls-1" d="M475.19,560.75v9c0,3.22,5,3.22,5,0v-9c0-3.22-5-3.22-5,0Z"/><path class="cls-1" d="M483.23,561.76a25.15,25.15,0,0,0,.41,7.69c.63,3.15,5.45,1.82,4.82-1.33a20.8,20.8,0,0,1-.23-6.36,2.52,2.52,0,0,0-2.5-2.5,2.56,2.56,0,0,0-2.5,2.5Z"/><path class="cls-1" d="M491.77,562.92l1.57,8.49c.59,3.16,5.4,1.82,4.82-1.33l-1.57-8.49c-.59-3.16-5.4-1.82-4.82,1.33Z"/><path class="cls-2" d="M193.78,431.27h37.5c9.65,0,9.67-15,0-15h-37.5c-9.65,0-9.67,15,0,15Z"/><path class="cls-2" d="M206.3,517.42l-1-58.82-3.71,6.48c6-4.22,14.27-3.1,17.08,4.34,3,8-4.48,15-12,15.45-9.59.57-9.66,15.57,0,15,13.66-.81,25.69-9.9,27.36-24a25.75,25.75,0,0,0-18.75-27.62,26.29,26.29,0,0,0-18.76,2.29c-3.37,1.83-5.93,4-6.22,8.07-.27,3.86.13,7.9.19,11.76l.78,47.05c.16,9.64,15.16,9.67,15,0Z"/><path class="cls-2" d="M257.33,476.09c-11.83,3.26-19.64,15.3-16.61,27.48,2.92,11.74,16,19.16,27.44,14.94,12-4.4,16.2-17.71,11.94-29.15a24.14,24.14,0,0,0-10.31-12.71c-5.35-3.07-13.09-3-15,4.14-2.48,9.34,12,13.32,14.46,4l.13-.51-5.24,5.24c-2.12.82-1.89-1-.54,1.09.34.51.84.94,1.19,1.46a11.82,11.82,0,0,1,1.87,4.72c.57,3.75-1,7.91-5.34,8-3.25.06-6-2.87-6.26-6-.33-4.09,2.5-7.19,6.24-8.22,9.29-2.56,5.35-17-4-14.46Z"/><path class="cls-2" d="M324.51,487.43c-.62-5.83-3.47-11.12-9.33-13.14a14.29,14.29,0,0,0-16.42,5.47c-6.64,9.93-2.22,26.26,2,36.32,1.56,3.72,5,6.43,9.23,5.24,3.51-1,6.82-5.46,5.24-9.23A55.77,55.77,0,0,1,311,497.2a33.69,33.69,0,0,1-.29-6.73c.05-.62.12-2.51.27-2.23-.19-.36-1.32.79-1.49-.8.43,4,3.14,7.5,7.5,7.5,3.72,0,7.93-3.45,7.5-7.5Z"/><path class="cls-2" d="M346,470.77a128.57,128.57,0,0,0,5.31,48c2.83,9.2,17.31,5.28,14.46-4a116.73,116.73,0,0,1-4.78-44c.77-9.62-14.23-9.57-15,0Z"/><path class="cls-2" d="M338.69,495.06a183.63,183.63,0,0,0,28.61-3.28c9.47-1.83,5.46-16.29-4-14.46a157.56,157.56,0,0,1-24.63,2.75c-9.63.33-9.67,15.33,0,15Z"/><path class="cls-2" d="M423.07,473.34a13.78,13.78,0,0,0-11.58-13.27c-7-1.26-13.55,3.22-16.61,9.33-3.63,7.24-2.18,15.72-1.07,23.4a160.07,160.07,0,0,0,5.39,23.9c2.81,9.21,17.3,5.28,14.46-4a149.85,149.85,0,0,1-5.39-23.9c-.45-3.36-1.28-7.27-.63-10.62.12-.64,1.28-2.43,1.32-3.06q1.34-.7-.27-.41a2.79,2.79,0,0,1-.62-1.37c.48,9.61,15.48,9.66,15,0Z"/><path class="cls-2" d="M394,508.26a70.27,70.27,0,0,0,21.31-3c9.21-2.79,5.29-17.27-4-14.46A56,56,0,0,1,394,493.26c-9.66-.13-9.66,14.87,0,15Z"/><path class="cls-2" d="M444.17,476.85c-9.93,4.56-15.69,16.44-12.59,27,2.9,9.9,12.89,17.69,23.38,16.6,11-1.14,18-13.9,17.55-24.1-.47-11.1-9.91-20.66-21.22-20.06-9.6.51-9.66,15.51,0,15,8.87-.47,7.24,14.75.8,14.2-3.14-.27-6.05-3.95-6.37-6.92-.45-4.18,2.52-7.21,6-8.82,8.76-4,1.15-17-7.57-13Z"/><path class="cls-2" d="M487,464.09l.9,24.77c.27,7.37.39,14.89,3.09,21.86,1.46,3.76,5,6.41,9.23,5.24,3.6-1,6.72-5.42,5.24-9.23-2.49-6.4-2.39-13.08-2.63-19.85L502,464.09c-.35-9.62-15.35-9.67-15,0Z"/><path class="cls-2" d="M515.94,491.42a134.17,134.17,0,0,0,2,20c.69,4,5.59,6.24,9.23,5.24,4.22-1.16,5.93-5.22,5.24-9.23a107.25,107.25,0,0,1-1.47-16c-.21-9.64-15.21-9.67-15,0Z"/><path class="cls-2" d="M529.32,468.78l-.67-.67a7.74,7.74,0,0,0-5.3-2.2,8.34,8.34,0,0,0-5.3,2.2,7.55,7.55,0,0,0-2.2,5.3,7.82,7.82,0,0,0,2.2,5.3l.67.67a7.74,7.74,0,0,0,5.3,2.2,8.34,8.34,0,0,0,5.3-2.2,7.55,7.55,0,0,0,2.2-5.3,7.82,7.82,0,0,0-2.2-5.3Z"/><path class="cls-2" d="M567.36,477.42c-10.68,1.13-18.86,8.61-21.81,18.93-3.45,12.07,4.72,20.13,15.79,22.87,5.55,1.37,11.19,1.73,16.19-1.48a20,20,0,0,0,8.34-12.5c2.25-10.2-2.59-20.41-11.21-26-8.14-5.24-15.67,7.74-7.57,13a9.45,9.45,0,0,1,4.35,7.75c.08,4.48-2,5.77-6.11,4.76-3.49-.86-6.54-1.09-5.09-5.09,1.08-3,3.6-6.87,7.12-7.25,4-.43,7.5-3.14,7.5-7.5,0-3.73-3.45-7.93-7.5-7.5Z"/></g></svg>