<svg id="Camada_1" data-name="Camada 1" xmlns="http://www.w3.org/2000/svg" viewBox="0 0 32 32"><title>icon</title><path d="M16,0A16,16,0,1,0,32,16,16,16,0,0,0,16,0Zm9.71,11.28c-.36.37-.73.73-1.12,1.08a.5.5,0,0,0-.2.42,10.11,10.11,0,0,1-2.18,6.45,9.23,9.23,0,0,1-5.7,3.49,10,10,0,0,1-6.15-.7c-.31-.14-.6-.31-.9-.46a2.54,2.54,0,0,1-.25-.18,7.21,7.21,0,0,0,5-1.45A3.61,3.61,0,0,1,11,17.49h1.42l0-.09a3.55,3.55,0,0,1-2.36-2A3.29,3.29,0,0,1,9.8,14l1.43.4.05-.09a3.55,3.55,0,0,1-1.37-2.09,3.51,3.51,0,0,1,.37-2.49,10,10,0,0,0,7.17,3.63c0-.26,0-.48,0-.7a3.48,3.48,0,0,1,3.65-3.59,3.41,3.41,0,0,1,2.22.95.32.32,0,0,0,.37.1l1.65-.6a2.84,2.84,0,0,0,.27-.13,3.14,3.14,0,0,1-1.31,1.79l0,.09,1.76-.48A4.37,4.37,0,0,1,25.71,11.28Z"/></svg>