<svg id="Camada_1" data-name="Camada 1" xmlns="http://www.w3.org/2000/svg" viewBox="0 0 32 32"><title>icon</title><path d="M16,12.79A3.22,3.22,0,1,0,19.21,16,3.23,3.23,0,0,0,16,12.79Z"/><path d="M16,0A16,16,0,1,0,32,16,16,16,0,0,0,16,0Zm9.63,18.27A25.9,25.9,0,0,1,25.47,21a5,5,0,0,1-4.24,4.43,17.51,17.51,0,0,1-2.93.19q-2.29,0-4.59,0a15.88,15.88,0,0,1-3-.19,5,5,0,0,1-4-3.43,8.23,8.23,0,0,1-.36-2.59c0-1.9,0-3.79,0-5.69a20.91,20.91,0,0,1,.18-2.87,5,5,0,0,1,4.57-4.36c.84-.09,1.7-.09,2.54-.14l.25,0h4.16l.27,0c.94.06,1.89.05,2.81.19a5,5,0,0,1,4.29,4.21,17.79,17.79,0,0,1,.19,3C25.65,15.25,25.65,16.76,25.63,18.27Z"/><path d="M23.9,13.55a23,23,0,0,0-.15-2.38,3.2,3.2,0,0,0-2.65-2.85A11.76,11.76,0,0,0,19,8.12c-2,0-3.95,0-5.92,0a15.26,15.26,0,0,0-1.76.12,3.25,3.25,0,0,0-2.95,2.58,9.63,9.63,0,0,0-.21,2c0,2.15,0,4.3,0,6.45A10,10,0,0,0,8.27,21a3.17,3.17,0,0,0,2.47,2.69,7.36,7.36,0,0,0,1.67.21c2,0,4,0,6.06,0a21.13,21.13,0,0,0,2.15-.11,3.4,3.4,0,0,0,2.48-1.33,3.91,3.91,0,0,0,.73-2.24c.06-1.4.08-2.81.11-4.21h0C23.91,15.19,23.93,14.37,23.9,13.55ZM16,21a5,5,0,1,1,4.95-5A5,5,0,0,1,16,21Zm5.17-9a1.15,1.15,0,1,1,1.14-1.18A1.15,1.15,0,0,1,21.17,12Z"/></svg>