<svg xmlns="http://www.w3.org/2000/svg" viewBox="0 0 101.93 92.05"><defs><style>.a{fill:#f7f6e2;}.b{fill:none;stroke:#f3b331;stroke-miterlimit:10;stroke-width:2px;}.c{fill:#f3b331;}.d{fill:#e0e0dd;}.e{fill:#333;}.f{fill:#e05a6c;}.g{fill:#7bbf94;}.h{fill:#598cbd;}.i{fill:#eda18c;}.j{fill:#f8cb6f;}</style></defs><title>Ativo 3</title><path class="a" d="M27.75,1.75c-7.36,2.51-13.83,8.06-16.6,15.32-2.56,6.73-1.9,14.38-4.66,21C4.27,43.49-.19,48.29,0,54.11c.13,3.88,2.37,7.37,4.9,10.3C15.28,76.41,31,82.1,46,87.31a15.31,15.31,0,0,0,4,1A15.3,15.3,0,0,0,53.52,88l15.56-2.68C76.54,84,84.2,82.67,90.7,78.79s11.71-10.9,11.19-18.46c-.61-9-8.57-15.48-12.79-23.44-1.91-3.61-3.06-7.57-4.77-11.28A41.8,41.8,0,0,0,61.73,4.54C51.56.56,38.26-1.83,27.75,1.75Z"/><line class="b" x1="52.67" y1="91.76" x2="51.48" y2="83.31"/><polyline class="b" points="51.14 91.21 52.46 90.34 53.88 90.85"/><line class="b" x1="56.91" y1="89.95" x2="55.89" y2="82.68"/><polyline class="b" points="55.38 89.4 56.71 88.53 58.13 89.03"/><polygon class="c" points="36.72 63.4 32.4 62.86 34.62 64.65 31.65 65.08 35.64 66.92 36.72 63.4"/><path class="d" d="M43.36,57.38c-9.49.67-13.13,10.9-2,22.46,9.82,10.17,24-1.62,23.82-1.43C51.2,79.22,56.58,56.45,43.36,57.38Z"/><circle class="e" cx="39.89" cy="62.46" r="1.32" transform="translate(-21.32 20.67) rotate(-23.11)"/><path class="f" d="M65.22,78.4c6.54-.48,12.59-9.82,8.38-11C70,66.41,71.38,75.37,65.22,78.4Z"/><path class="f" d="M65.22,78.4c5.42-3.69,6-14.8,1.76-13.71C63.37,65.63,69,72.69,65.22,78.4Z"/><path class="f" d="M65.22,78.4c2.85-5.9-2.21-15.82-5.33-12.75C57.23,68.26,65.67,71.55,65.22,78.4Z"/><path class="g" d="M65.22,78.4h0Z"/><path class="f" d="M37,59.94a10,10,0,0,1,6.32-2.56c13.22-.93,7.84,21.83,21.85,21a30.83,30.83,0,0,1-8.07,4.43,14.54,14.54,0,0,1-4.84-7.4C48.36,63.5,43.48,59.49,37,59.94Z"/><path class="f" d="M53.43,83.78a13.14,13.14,0,0,1-12-3.95q-1.22-1.27-2.21-2.51A24.89,24.89,0,0,1,53.43,83.78Z"/><path class="d" d="M48.64,65.06c3.31-2.48,9.63-3.73,10-3.21s-1.27,5.25-4.58,7.74-6.75,2.12-7.89.6C45.18,68.84,46.21,66.89,48.64,65.06Z"/><path class="h" d="M62.52,22c6.37-.53,13.6,7.73,18.63,12.25s15.52,2.76,15.52,2.76S89.61,50.14,74.5,48.62,55,35.63,55,30.39,57.91,22.42,62.52,22Z"/><polygon class="c" points="54.87 29.49 51.59 30.29 55.05 31.72 54.87 29.49"/><line class="b" x1="68.09" y1="57.05" x2="69.8" y2="47.75"/><polyline class="b" points="66.68 55.94 68.37 55.48 69.69 56.52"/><line class="b" x1="73.19" y1="56.63" x2="74.65" y2="48.64"/><polyline class="b" points="71.77 55.52 73.47 55.06 74.78 56.09"/><path class="h" d="M96.66,37.05s-10.5,1.76-15.52-2.76S68.89,21.51,62.52,22c-4,.33-6.78,2.43-7.41,6.4,8.09-10.79,18.2,13.94,38.26,13A23,23,0,0,0,96.66,37.05Z"/><path class="i" d="M61.12,43.06A22.64,22.64,0,0,0,74.5,48.62,22.32,22.32,0,0,0,82.6,48C73.71,41.52,67.36,41.18,61.12,43.06Z"/><circle class="e" cx="60.73" cy="27.8" r="1.09" transform="translate(-2.09 5.11) rotate(-4.73)"/><path class="i" d="M77.89,31.11c2.64-1.13,5.12-.58,5.85,1.12s-.58,3.89-3.21,5c-4.42,1.9-9.43.42-9.43.42S73.47,33,77.89,31.11Z"/><path class="i" d="M73.87,28c1.83-2.45,4.42-3.27,6-2.09s1.54,3.9-.29,6.35c-3.06,4.11-8.49,5.42-8.49,5.42S70.81,32.1,73.87,28Z"/><path class="b" d="M19,36.27c-.51,3.41.78,6,3,8.22"/><polyline class="b" points="20.27 44.81 20.83 43.21 22.46 43.02"/><path class="b" d="M16.84,35.64a9.35,9.35,0,0,0-.49,7.78"/><polyline class="b" points="14.71 42.95 15.94 41.78 17.48 42.35"/><polygon class="c" points="8.24 18.39 3.83 19.75 7.41 21 8.24 18.39"/><path class="j" d="M41.89,36.51c2-.77,3.25-2.5,3-4s-2-2.08-4-1.32c-3.38,1.29-5.71,5-5.71,5A9.48,9.48,0,0,0,41.89,36.51Z"/><path class="j" d="M40.83,40.68c2.09.5,4-.45,4.39-2.05s-.72-3.27-2.81-3.76c-3.51-.83-7.24,1.38-7.24,1.38S37.32,39.85,40.83,40.68Z"/><path class="j" d="M19.45,11.22c20.14,1.54,15.73,25,15.73,25S8.87,42.19,7.09,25.82C6.3,18.46,11.57,10.62,19.45,11.22Z"/><path class="c" d="M10.55,14.9a10.66,10.66,0,0,1,8.9-3.68c20.14,1.54,15.73,25,15.73,25s-1,.22-2.51.45C33.94,26.3,27.06,13.62,10.55,14.9Z"/><path class="c" d="M25.54,37.3C18.93,37.38,10.87,36,8,29.52,15.92,29.89,22,33.05,25.54,37.3Z"/><circle class="e" cx="13.46" cy="17.54" r="1.35" transform="matrix(0.33, -0.94, 0.94, 0.33, -7.55, 24.44)"/><path class="c" d="M20.29,22.85c3-.4,7.62,1.93,7.71,2.59s-2.56,4-5.58,4.36A4.78,4.78,0,0,1,17,26C16.75,24.31,18.07,23.14,20.29,22.85Z"/></svg>