<svg xmlns="http://www.w3.org/2000/svg" viewBox="0 0 447 415"><defs><style>.cls-1{fill:#fff;}.cls-2{fill:#fb5e54;}.cls-3,.cls-4{fill:#48406a;}.cls-3{opacity:0.2;}</style></defs><g id="Layer_2" data-name="Layer 2"><circle class="cls-1" cx="219.46" cy="207.5" r="189.41"/><path class="cls-1" d="M397,138.14c-7.71-9.63-13.7-20.49-21.25-30.24-7-9.05-15.58-17-26.32-21.3a38.31,38.31,0,0,0-11.5-2.72,40.23,40.23,0,0,1,27.78-7.64c2.15.21,3.31-2.89,1.77-4.27C359.76,65,349.92,60.87,340,58.37a112,112,0,0,0-33.19-3,101.79,101.79,0,0,0-15.15,2,49.74,49.74,0,0,0-24.13-23.9,48.52,48.52,0,0,0-36.89-1.29A49.62,49.62,0,0,0,213.21,43,47.15,47.15,0,0,0,184.88,32.5a45.72,45.72,0,0,0-28.33,9,47.73,47.73,0,0,0-10,10.1,24.78,24.78,0,0,0-5.63-3.75,27.82,27.82,0,0,0-7.72-2.3,30.92,30.92,0,0,0-16.11,2,28.74,28.74,0,0,0-12.76,10.09A30.45,30.45,0,0,0,102,87.48a39.08,39.08,0,0,0-27.23,17.89C68,116.19,68,129.73,73.43,141.1a37.61,37.61,0,0,0,10.86,13.4c-8.44,5.72-20.78,5.63-28.8-.82a2.54,2.54,0,0,0-4.27,1.77c-.7,7.25,2.71,14.44,8,19.31,6,5.55,14.19,7.89,22.28,7.48a42.73,42.73,0,0,0,8.1-1.22A26.85,26.85,0,0,0,88,195.22,25.43,25.43,0,0,0,98.8,211.85a25,25,0,0,0,9.86,4.1,133.27,133.27,0,0,0-2.91,16.61,165.38,165.38,0,0,0,1.16,41.28,128.76,128.76,0,0,0,3.87,19,98.05,98.05,0,0,0,7.56,17.75,149.38,149.38,0,0,0,19.27,27.28c7.54,8.69,15.81,17.51,26,23.11,11.75,6.47,25.29,5.58,38.05,3.2a138.69,138.69,0,0,0,34.13-11.21,141.19,141.19,0,0,0,30.16-19.52,117.41,117.41,0,0,0,20.73-22.27,78.47,78.47,0,0,1-.46,26.39,2.53,2.53,0,0,0,2.41,3.17,50.13,50.13,0,0,0,27.17-9.12c6.2-4.4,12.78-10.87,14.68-18.56A66.77,66.77,0,0,1,343,332.58a2.61,2.61,0,0,0,2.41,1.83,2.53,2.53,0,0,0,2.42-1.83,64,64,0,0,0-8-46.76c11.53.06,23.82-1.21,31.92-10.27a2.53,2.53,0,0,0-.51-3.93A64.37,64.37,0,0,1,348,248.12a54.49,54.49,0,0,0,35.05-20.92A51.68,51.68,0,0,0,389.46,216c.7-1.67-1-3-2.41-3.16-12-1.51-26.23-3.46-34.65-13,5.94-1.36,11.71-3.45,17.61-5a39.26,39.26,0,0,0,14.6-6.81c4-3.15,6.53-7.74,5.31-12.89s-4.82-9.66-8-13.75c-2.94-3.84-6.21-7.59-8.8-11.72v0a61.37,61.37,0,0,0,23.34-7.55A2.54,2.54,0,0,0,397,138.14Z"/><path class="cls-1" d="M219.8,293.05h-.19l-.22,0a261.49,261.49,0,0,0-31.46,3.54q-5.2.92-10.36,2l-1.65.37c-1.1.25-2.19.51-3.29.75-.55.12-1.1.23-1.66.33-1.75.31-3.52.61-5.26,1l-1.3.34-1.28.4-.15.05-.16.06h0l0,0-.17.08-.06,0,0,0h0c0,.18,0,.36,0,.54a5.74,5.74,0,0,0,0,.71q0,.35.12.69c.1.46.23.92.37,1.37.07.23.15.45.22.67.18.51.38,1,.59,1.51.09.21.18.43.28.64l.36.78.42.82c.09.17.19.33.28.49.17.32.35.64.54.95L219.82,303h0c.05-.2.09-.4.14-.6s.14-.62.19-.92.08-.43.11-.64.1-.66.13-1l.06-.54c0-.52.07-1,.07-1.55a17.75,17.75,0,0,0-.29-3.49h0a5.63,5.63,0,0,0-.27-1.24h-.16Z"/><path class="cls-2" d="M219.82,303l-54.09,8.27a25.88,25.88,0,0,0,1.53,2.23c0,.07.09.13.13.19.23.3.47.59.7.88.11.12.22.25.32.38l.71.79c.12.14.25.27.38.4s.48.51.73.75l.36.33c.45.43.91.84,1.39,1.23l.56.46c.22.18.45.35.68.52l.66.47.67.46.76.48.62.38c.39.22.78.44,1.18.64l.48.24c.4.2.81.4,1.22.58l.54.22,1,.4.57.2,1.08.34.51.15c.53.14,1.07.28,1.61.39a29.29,29.29,0,0,0,5.45.56,32.22,32.22,0,0,0,3.67-.19c.61-.07,1.21-.16,1.82-.26a34.71,34.71,0,0,0,3.6-.83,33.45,33.45,0,0,0,6.8-2.83,30.68,30.68,0,0,0,5.93-4.26c.45-.41.89-.83,1.31-1.26a29.82,29.82,0,0,0,2.38-2.76,28.87,28.87,0,0,0,2.59-4.07,26,26,0,0,0,1.67-3.93C219.54,304.06,219.69,303.55,219.82,303Z"/><path class="cls-3" d="M280.68,193.32c1.46,13.65,6,27.27,14.86,37.76a2,2,0,0,1,1-1.17,23.65,23.65,0,0,1,21,.91c.55.29,1.07.63,1.6,1a321.12,321.12,0,0,0,6.16-45.27,3.84,3.84,0,0,1,.11-.59,29.68,29.68,0,0,1-5.84-2.14c-6.58-3.25-12.08-9.32-13.79-16.54a24.2,24.2,0,0,1-21.24-9.68,21.86,21.86,0,0,1-2.16-3.63C280.53,167,279.27,180.22,280.68,193.32Z"/><path class="cls-3" d="M298.43,277.58a24.89,24.89,0,0,1,2.33-4.92c.94-1.55,2.13-2.91,3.08-4.45.61-1,1-1.85.09-2.59a8.32,8.32,0,0,0-3.2-1.36c-5.63,3.09-8.63,9.24-9.52,15.45-.66,4.64-.31,10.4,2.5,14.4a2.31,2.31,0,0,1,1,1.22,10.31,10.31,0,0,0,2,1.68,7.38,7.38,0,0,0,7.38.64,6.64,6.64,0,0,0,2.31-2.08,17.39,17.39,0,0,1-1.95-.69C298,292,296.32,283.77,298.43,277.58Z"/><path class="cls-2" d="M380.8,188c3.31-1.86,6.14-4.95,6.75-8.7.86-5.29-2.74-10.17-6.14-14.33-3.57-4.38-10.07-9.26-8.08-15.52,1.65-5.21,11.54-5.64,15.95-6.74,2.41-.6,5.24-1.6,5.82-4,.66-2.76-2.07-5-4.26-6.82-11.4-9.39-15.48-25.58-27-34.88-5.87-4.75-13.15-10.25-20.63-9.23-2.43.33-5.41.44-6.79-1.6a4.28,4.28,0,0,1,.19-4.62,8.86,8.86,0,0,1,3.81-3c5.9-2.74,12.85-2.38,18.8-5,.84-.37,1.76-.94,1.86-1.85a2.75,2.75,0,0,0-1.06-2.08c-4.26-4.23-9.95-6.73-15.7-8.48-12.56-3.81-25.79-4.41-38.82-4-3.48.11-7,.29-10.43.5-2.09.13-5.8,1.15-7.79.33s-3.08-3.91-4.31-5.61a46.88,46.88,0,0,0-5.86-6.57,43.54,43.54,0,0,0-30.38-11.74,44.84,44.84,0,0,0-31,13.52,2.25,2.25,0,0,1-3.13.24,2.81,2.81,0,0,1-2.19-.67,41.43,41.43,0,0,0-40.91-7,41.61,41.61,0,0,0-20.32,16.54,2.54,2.54,0,0,1-3.93.51,25.19,25.19,0,0,0-7.4-5.17,23.77,23.77,0,0,0-7.25-1.67C121.49,49.76,112.14,54,107.5,62a25.41,25.41,0,0,0,.75,26.36,2.52,2.52,0,0,1-2.16,3.77A32.52,32.52,0,0,0,88.9,97.86a32,32,0,0,0-14.4,27.46,33.62,33.62,0,0,0,15.27,27,2.52,2.52,0,0,1,.51,3.92c-9.18,8.34-23.12,9.67-33.85,4a17.25,17.25,0,0,0,1.71,5.07,22.38,22.38,0,0,0,14.37,11.21c7.24,1.87,14.89.59,21.73-2.13,2-.78,4.09,2,2.82,3.67a20.62,20.62,0,0,0,12.84,33.15c1.3-4.9,2.72-9.78,3.91-14.72a101.78,101.78,0,0,0,2.2-11.34c.43-3.49.55-7,.68-10.51.26-7,.73-14,3.88-20.36-8.08-3.73-14.3-11.88-14-21,.11-3.21,5.11-3.22,5,0a16.75,16.75,0,0,0,5.22,12.38c6.84,6.81,16.91,7.15,25.55,3.88,8.39-3.17,17-10.1,18.34-19.45a2.52,2.52,0,0,1,3.08-1.74,2.58,2.58,0,0,1,1.74,3.07,22.32,22.32,0,0,1-3.44,8.86,30.74,30.74,0,0,0,14.23,6.16A33.16,33.16,0,0,0,204.09,138a39.59,39.59,0,0,0,12.34-27c.14-3.21,5.14-3.22,5,0A46,46,0,0,1,219.54,122c7.47.57,13.17,6,17.81,11.7A39.89,39.89,0,0,1,250.84,120c2.29-1.41,4.42,1.3,3.42,3.42a83.28,83.28,0,0,0-4.87,13.11,42,42,0,0,1,31.81,1.73,57.23,57.23,0,0,0,1.42-7.52,2.55,2.55,0,0,1,2.5-2.5,2.51,2.51,0,0,1,2.5,2.5c-.44,5.08-2.58,10-2.32,15.15.34,6.76,5.49,13.05,11.78,15.31,7.1,2.55,15.35.81,21.22-3.81a2.56,2.56,0,0,1,3.54,0,2.53,2.53,0,0,1,0,3.54,30,30,0,0,1-11.09,5.56,18.75,18.75,0,0,0,4.15,7.61c5,5.52,12.09,8,19.41,7.93a40.45,40.45,0,0,0,12.32-2.16c3.14-1,6.73-2.35,8.6-5.25,1.73-2.7,6.06-.19,4.32,2.52-4.73,7.35-13,7.74-20.76,7.07-3.09-.26-6.53,0-8.79,2.11-2.42,2.3-2.7,6-2.91,9.34a185,185,0,0,1-4.82,31.84c-.77,3.2-1.63,6.54-.83,9.73.64,2.54,2.26,4.69,3.59,6.95a33.8,33.8,0,0,1-.1,33.83c-3.07,5.13-6.17,10.35-11.51,13-1.45.73-3.06,1.38-4,2.7a26.71,26.71,0,0,0-1.54,3.5,8.1,8.1,0,0,1-6.15,4,18.34,18.34,0,0,1-7.52-.86,5,5,0,0,0-2.89-.26,3.56,3.56,0,0,0-1.18.74c-2.65,2.37-2.83,6.48-2.07,10a66.59,66.59,0,0,1,1.36,11.94c.12,3.64-1.22,9.51-.07,12.88,1.93,5.63,15.24.22,19.25-2.1,9.8-5.66,16.08-13.1,21-23.44a8.42,8.42,0,0,1,4.38,2.4,46.78,46.78,0,0,1,11.82,18.67c.61-8.94,1.09-17.44.36-26.37a26.41,26.41,0,0,0-1.65-8,31.22,31.22,0,0,0-2.95-5.14l-5.78-8.72c7.26.64,15.2.75,22-1.86a33.78,33.78,0,0,0,10.5-6.87c-8.08-5.7-16.62-12-19.87-21.35-.87-2.5-1.36-5.22-2.93-7.36,4.32,1.16,8.84.18,12.83-1.83s7.43-5,10.76-8c2.92-2.63,5.8-5.31,8.68-8,2.37-2.22,8.51-6,8.29-9.83-.26-4.66-6.56-3.67-9.58-3.88-3.38-.24-5.55-2.14-8.73-3.2-3.5-1.18-7.44-.91-10.72-2.2-4-1.56-7.09-6.41-8.14-10.36,6-1.59,11.93-3.23,17.84-5C371.27,191.79,376.64,190.4,380.8,188Z"/><path class="cls-2" d="M230.29,220.44c-.49,5.1-.56,11.86,2,16.46,3.28,5.84,9.07,2.64,11.95-1.63a37.06,37.06,0,0,0,4-8.49c3.77-10.82,4.25-23.71-2-33.7C236.82,199,231.33,209.38,230.29,220.44Z"/><path class="cls-2" d="M164.23,221.36a36.93,36.93,0,0,0,4-8.5c3.77-10.82,4.25-23.7-2-33.69-9.44,6-14.93,16.29-16,27.36-.49,5.1-.56,11.86,2,16.45C155.56,228.83,161.35,225.63,164.23,221.36Z"/><path class="cls-4" d="M233.87,119.13a26.52,26.52,0,0,1,2.46,4.66,27,27,0,0,1,1.79,7.07c.13,1.17-.61,5.66-.07,6.39a45.49,45.49,0,0,0-9.54-10.18,20.74,20.74,0,0,0-13-4.11c1.91-3.31,1-10.4.57-14.07a3.07,3.07,0,0,1,.08-1.48,2.45,2.45,0,0,1,2.31-1.15c3.71-.06,6.8,2.7,9.32,5.42A57.13,57.13,0,0,1,233.87,119.13Z"/><path class="cls-4" d="M262.85,122.69c4.93-3.41,12.31-7.48,18.39-5.2a1.07,1.07,0,0,1,.38.2.8.8,0,0,1,.19.44,1.87,1.87,0,0,1-1.1,1.79,7.53,7.53,0,0,1-2.16.54,14.37,14.37,0,0,0-6.22,2.68,18,18,0,0,0-4,4.88c-.5.82-.79,2,0,2.62a1.78,1.78,0,0,0,2-.12,14.72,14.72,0,0,0,2.69-2.66c3.53-3.61,12.5-4.62,14.55,1.23.76,2.17,0,4.55-.6,6.77a55.75,55.75,0,0,0-1.92,11.9l-4.31-6.58c-1.48-2.27-5.7-3.22-8.18-4-4.16-1.27-8.65-.89-12.93-.08-2.13.41-4.24.92-6.37,1.38-1.73.37-4.22,1.27-6,.94.28-1.09,1.88-2.48,2.57-3.44,1.22-1.69,2.5-3.33,3.86-4.91A49.33,49.33,0,0,1,262.85,122.69Z"/><path class="cls-4" d="M108.72,130.54c-2.92.24-5,3.06-5.85,5.85a18.11,18.11,0,0,0,8,20.67,31.21,31.21,0,0,1-15.49,8.29c-1.53.32-3.6,1.52-2.76,2.84a2.31,2.31,0,0,0,1.84.77,27.93,27.93,0,0,0,17.37-4.42c-3.89,5-7.91,10.38-8.86,16.67s2.41,13.72,8.65,15a4.93,4.93,0,0,0,3.75-.53,4.88,4.88,0,0,0,1.44-1.77c1.73-3.24,1.48-7.13,1.45-10.8a74.67,74.67,0,0,1,6-29.88,18.86,18.86,0,0,1-9.52-6.54c-1.8-2.34-3.44-4.35-4.21-7.19S109.23,133.44,108.72,130.54Z"/><path class="cls-4" d="M337,191a36.15,36.15,0,0,0,18.3,22.84c1.65.84,3.69,2.2,3.19,4-1.65,6-12.84-1.5-15-3.56a9.77,9.77,0,0,0-2.25-1.82,2.68,2.68,0,0,0-2.76.07,2.49,2.49,0,0,0-.84,2.21,5.46,5.46,0,0,0,.86,2.29c1.82,3.05,5.23,5.87,8.2,7.77a18.56,18.56,0,0,0,11.19,2.73c1-.06,2.07-.13,2.71.58a2.25,2.25,0,0,1,.47,1.07,5.19,5.19,0,0,1-1.87,4.6,12.42,12.42,0,0,1-4.61,2.3,26.2,26.2,0,0,1-9.28,1.36,14.68,14.68,0,0,1-8.68-3.27,6.73,6.73,0,0,0-2.32-1.59,2.65,2.65,0,0,0-2.6.72c-1.39,1.47-.13,3.09.29,4.67a49.61,49.61,0,0,0,2,6.05,29.5,29.5,0,0,0,6.76,10.32c1.61,1.54,3.47,3,4.43,5s.57,4.91-1.47,5.82a4.86,4.86,0,0,1-3.24,0c-3.4-.9-6.25-3.21-8.78-5.65a5.83,5.83,0,0,1-1.35-1.66,6.47,6.47,0,0,1-.45-2.23c-.5-6.59-1.6-11.89-5-17.57a14.56,14.56,0,0,1-1.94-4.2,15.82,15.82,0,0,1-.11-4.61q1.57-20.72,3.14-41.45a3.82,3.82,0,0,1,1.12-2.94,4,4,0,0,1,2.67-.4c8.89.65,15.65-2.44,23.65-5.37C353.08,184.22,341.1,189.27,337,191Z"/><path class="cls-4" d="M331.92,297.88c-2.27.67-4.4-1.36-5.72-3.32s-2.78-4.27-5.13-4.55c1,4.2.26,8.64-.95,12.79-1.78,6.11-4.84,12.26-10.28,15.56-1.21.73-2.77,1.3-4,.6a4.13,4.13,0,0,1-1.24-1.29c-2.11-3-3.51-6.54-5.59-9.6s-5.12-5.81-8.81-6.16a2,2,0,0,1,1-1.25c4.06-2.66,10,2.33,14.12-.26,2.33-1.47,2.82-4.71,4.78-6.65a14.56,14.56,0,0,1,2.87-2,29.86,29.86,0,0,0,6.89-5.63,33.47,33.47,0,0,0,2.75-3.51c1.11-1.63,1-2.44,2.6-1.25,2.06,1.53,3.86,5.54,4.91,7.82C330.43,290,333.16,297.52,331.92,297.88Z"/><path class="cls-4" d="M121,153.55c-3.09,5.82-3.82,12.35-4.11,18.84a119.94,119.94,0,0,1-2,19.64c-1.43,6.85-3.46,13.56-5.23,20.33a138.52,138.52,0,0,0-3.79,20.2,164.9,164.9,0,0,0,1.17,41.28,127.45,127.45,0,0,0,3.86,19,98.77,98.77,0,0,0,7.56,17.75,149.38,149.38,0,0,0,19.27,27.28c7.54,8.69,15.81,17.51,26,23.11,11.74,6.47,25.28,5.58,38,3.2a138.69,138.69,0,0,0,34.13-11.21,140.94,140.94,0,0,0,30.16-19.52c9.35-7.9,17.95-17.05,24.21-27.61,1.6-2.71,3.05-5.5,4.38-8.35a2.57,2.57,0,0,0-.89-3.42,2.52,2.52,0,0,0-3.42.89c-10,21.45-28.65,38.22-49.1,49.63a135,135,0,0,1-32,12.8,116.87,116.87,0,0,1-17.78,3.28c-6.42.62-13.06.58-19.25-1.38a43.83,43.83,0,0,1-13.75-7.83,114.2,114.2,0,0,1-12.43-11.76,161,161,0,0,1-19.32-24.75,115,115,0,0,1-8.3-15.91,89,89,0,0,1-5.11-17.75,173.07,173.07,0,0,1-3.14-39.34,124.77,124.77,0,0,1,2.26-19.64c1.33-6.59,3.26-13,5-19.53a121,121,0,0,0,3.91-20c.56-6.17.19-12.44,1.28-18.55a27.56,27.56,0,0,1,2.66-8.09c1.5-2.84-2.81-5.37-4.32-2.52Z"/><path class="cls-4" d="M170.79,242.08c-6.32,2.53-12.95,5.52-15.66,12.26s1.86,13.89,6,19.15a2.53,2.53,0,0,0,3.54,0,2.56,2.56,0,0,0,0-3.53,36.24,36.24,0,0,1-4.43-7.23,8.22,8.22,0,0,1-.37-6.82c2.1-4.95,7.63-7.15,12.27-9a2.56,2.56,0,0,0,1.74-3.07,2.52,2.52,0,0,0-3.07-1.75Z"/><path class="cls-4" d="M219.31,292.77a3.78,3.78,0,0,1,.75,0,1.67,1.67,0,0,0-.24-.16,4.16,4.16,0,0,1,.33,1.4,17.59,17.59,0,0,1,.3,3.48,22.65,22.65,0,0,1-1.15,6.79,28.54,28.54,0,0,1-8,12,32,32,0,0,1-27.28,7.8,28.67,28.67,0,0,1-20.89-18.29,14.43,14.43,0,0,1-.71-2.73,10.69,10.69,0,0,1,0-1.6c0-.3.18-.36,0-.06,0,0-.55.89-.29.56s-.33.19,0,0l.41-.24c.12-.07.25-.12.38-.18-.45.2,0,0,.15,0,.86-.28,1.71-.53,2.58-.74,1.74-.4,3.51-.7,5.27-1,2.21-.39,4.39-1,6.59-1.44a259.56,259.56,0,0,1,41.82-5.58c3.2-.17,3.22-5.17,0-5a267.91,267.91,0,0,0-42.21,5.55c-2.51.54-5,1.2-7.53,1.65-2,.36-4,.69-5.95,1.19-1.75.45-3.82,1-5.1,2.37-1.72,1.83-1.15,5-.58,7.22a33.24,33.24,0,0,0,8.11,13.78,31.93,31.93,0,0,0,15.55,9.13c11.44,2.78,23.89-.64,32.71-8.32a33.14,33.14,0,0,0,10.24-16.21,25.61,25.61,0,0,0,.75-9.3,13,13,0,0,0-1.16-4.76c-1-1.81-2.88-2.38-4.83-2.3C216.1,287.9,216.09,292.9,219.31,292.77Z"/><path class="cls-4" d="M134.63,187.94a36.19,36.19,0,0,1,10.45-11.6c4.14-2.86,9-4.45,13.75-1.91,8.26,4.46,11.53,14.76,11.4,23.6a43.08,43.08,0,0,1-2.65,14c-1.46,4-3.63,9.39-7.88,11.16-9.58,4-9.26-14.27-8.46-19.39,1.48-9.5,6.53-18.5,15.15-23.18,2.83-1.53.31-5.85-2.52-4.31-9.14,5-15.11,14.38-17.14,24.44a42.61,42.61,0,0,0-.24,15.76c1,5.57,3.65,11.67,10.06,12.16s11.09-4.89,13.68-10.19A50,50,0,0,0,175,202c1.17-10.7-1.81-22.78-10.53-29.76a16.36,16.36,0,0,0-19.55-1.65c-6.1,3.31-11.14,8.89-14.6,14.85-1.61,2.78,2.71,5.31,4.32,2.52Z"/><path class="cls-4" d="M214.66,201.85a36.19,36.19,0,0,1,10.45-11.6c4.14-2.86,9-4.45,13.75-1.91,8.26,4.47,11.53,14.76,11.4,23.6a43,43,0,0,1-2.65,14c-1.46,4-3.63,9.4-7.88,11.17-9.58,4-9.26-14.28-8.46-19.4,1.48-9.5,6.53-18.5,15.15-23.17,2.83-1.54.31-5.86-2.52-4.32-9.14,5-15.11,14.39-17.14,24.44a42.62,42.62,0,0,0-.24,15.76c1,5.57,3.65,11.67,10.06,12.16s11.09-4.89,13.68-10.19A49.83,49.83,0,0,0,255,215.89c1.17-10.7-1.81-22.78-10.53-29.75a16.38,16.38,0,0,0-19.55-1.66c-6.1,3.31-11.14,8.89-14.6,14.85-1.61,2.79,2.71,5.31,4.32,2.52Z"/><path class="cls-4" d="M298.87,259.58c-6.65,3.3-10.71,10.24-12.13,17.33-1.54,7.7-.82,17.22,5.43,22.75a13.29,13.29,0,0,0,10.89,3.48,10.93,10.93,0,0,0,8.58-6.63,4.07,4.07,0,0,0-2.35-5.29c-1.43-.63-2.91-.79-4.1-1.91a9.18,9.18,0,0,1-2.3-8.86,19.4,19.4,0,0,1,2.84-6.2c1.28-1.94,3-3.68,3.61-6,1.36-5-3.19-7.82-7.35-8.94-3.11-.83-4.44,4-1.33,4.82a9,9,0,0,1,3.37,1.41c.88.74.52,1.59-.09,2.6-.95,1.53-2.15,2.9-3.09,4.44a25.7,25.7,0,0,0-2.32,4.92c-2.11,6.2-.44,14.39,6,17.3a19.76,19.76,0,0,0,2.35.81,4.16,4.16,0,0,1,.41.14s-.36-1-.37-1l-.17.37a7.19,7.19,0,0,1-2.58,2.41,7.39,7.39,0,0,1-7.37-.63c-5.58-3.53-6.37-11.35-5.52-17.31.92-6.42,4.08-12.78,10.08-15.76,2.88-1.43.35-5.74-2.52-4.32Z"/><path class="cls-4" d="M306.48,295.11c7.23.53,13.4-4.1,17.35-9.76a50.33,50.33,0,0,0,8-19.87c2.21-13-1.81-28.14-14.17-34.71a23.59,23.59,0,0,0-20.95-.9,2.52,2.52,0,0,0-.9,3.42,2.55,2.55,0,0,0,3.42.89,18.1,18.1,0,0,1,14.88.39,22.65,22.65,0,0,1,10.71,11.09c5.21,11,2.22,24.21-3.51,34.35-3.07,5.44-8,10.59-14.79,10.1a2.52,2.52,0,0,0-2.5,2.5,2.55,2.55,0,0,0,2.5,2.5Z"/><path class="cls-4" d="M323.57,235.36a330,330,0,0,0,6.82-48.89,2.52,2.52,0,0,0-2.5-2.5,2.55,2.55,0,0,0-2.5,2.5A320.37,320.37,0,0,1,318.75,234c-.68,3.14,4.14,4.48,4.82,1.33Z"/><path class="cls-4" d="M110.49,211.2A20.64,20.64,0,0,1,97.16,178c1.27-1.69-.86-4.46-2.82-3.67-6.84,2.72-14.49,4-21.73,2.12A22.32,22.32,0,0,1,58.24,165.2a17.26,17.26,0,0,1-1.89-9.75l-4.26,1.77c11,8.85,27.78,8.49,38.29-1.05a2.53,2.53,0,0,0-.51-3.93,33.58,33.58,0,0,1-15.27-27A32,32,0,0,1,89,97.82a32.48,32.48,0,0,1,17.2-5.7,2.52,2.52,0,0,0,2.16-3.76A25.41,25.41,0,0,1,107.6,62c4.64-8,14-12.28,23.11-11.68A23.47,23.47,0,0,1,138,52a25.51,25.51,0,0,1,7.4,5.17,2.54,2.54,0,0,0,3.93-.5A41.63,41.63,0,0,1,169.61,40.1a41.17,41.17,0,0,1,27.17-.55,40.75,40.75,0,0,1,13.74,7.57,2.56,2.56,0,0,0,3.53,0,2.53,2.53,0,0,0,0-3.54A47.2,47.2,0,0,0,185,32.5a45.68,45.68,0,0,0-28.33,9A47.08,47.08,0,0,0,145,54.12l3.92-.5A31.3,31.3,0,0,0,141,47.9a27.82,27.82,0,0,0-7.72-2.3,30.87,30.87,0,0,0-16.1,2,28.77,28.77,0,0,0-12.77,10.09,29.91,29.91,0,0,0-5.12,15.47A29.55,29.55,0,0,0,104,90.88l2.16-3.76a38.78,38.78,0,0,0-31.27,18.25c-6.75,10.82-6.82,24.36-1.35,35.73a37.36,37.36,0,0,0,13.78,15.46l-.51-3.93c-8.33,7.57-22.39,8.14-31.22,1.05a2.54,2.54,0,0,0-4.27,1.77c-.7,7.25,2.71,14.44,8,19.31,6,5.55,14.19,7.89,22.28,7.48a44.42,44.42,0,0,0,14.06-3.13l-2.83-3.68a26.22,26.22,0,0,0-4.68,19.79,25.45,25.45,0,0,0,10.78,16.63A24.86,24.86,0,0,0,109.16,216a2.56,2.56,0,0,0,3.07-1.74,2.52,2.52,0,0,0-1.74-3.08Z"/><path class="cls-4" d="M106.68,133.19c-.36,10.5,8,19.74,17.82,22.39,11.24,3,23.5-1.46,32-8.91,4.53-4,8.22-9.29,9.1-15.34a2.58,2.58,0,0,0-1.75-3.08,2.52,2.52,0,0,0-3.07,1.75c-1.36,9.34-9.95,16.27-18.34,19.45-8.64,3.26-18.71,2.93-25.55-3.89a16.73,16.73,0,0,1-5.22-12.37c.11-3.22-4.89-3.22-5,0Z"/><path class="cls-4" d="M157.72,143c8.86,7.75,21.22,10.35,32.61,7.79s20.82-10.64,26.13-20.88a45.61,45.61,0,0,0,5.06-19c.15-3.21-4.85-3.21-5,0a39.58,39.58,0,0,1-12.33,27,33.16,33.16,0,0,1-27.79,8.42,30.53,30.53,0,0,1-15.15-6.89,2.55,2.55,0,0,0-3.53,0,2.51,2.51,0,0,0,0,3.53Z"/><path class="cls-4" d="M217.11,127c8.34-.58,14.09,6.56,18.59,12.57,1,1.33,3.45,1.89,4.32,0a35,35,0,0,1,13.44-15.3L250,120.81A90.31,90.31,0,0,0,243.45,140a2.53,2.53,0,0,0,3.67,2.82,36.6,36.6,0,0,1,32-.18,2.57,2.57,0,0,0,3.42-.9,2.53,2.53,0,0,0-.9-3.42,42,42,0,0,0-37,.18l3.67,2.83a85,85,0,0,1,6.09-18c1-2.13-1.14-4.83-3.42-3.42A39.68,39.68,0,0,0,235.7,137H240c-5.55-7.4-12.66-15.76-22.91-15a2.57,2.57,0,0,0-2.5,2.5,2.51,2.51,0,0,0,2.5,2.5Z"/><path class="cls-4" d="M282.72,130.65c-.45,5.11-2.58,10-2.32,15.16a21.56,21.56,0,0,0,4.23,11.7A24.33,24.33,0,0,0,308.06,167a29.21,29.21,0,0,0,13.88-6.13,2.53,2.53,0,0,0,0-3.54,2.58,2.58,0,0,0-3.54,0c-5.88,4.63-14.13,6.36-21.22,3.81-6.29-2.25-11.44-8.55-11.78-15.3-.26-5.13,1.87-10.08,2.32-15.16a2.52,2.52,0,0,0-2.5-2.5,2.55,2.55,0,0,0-2.5,2.5Z"/><path class="cls-4" d="M305.55,165.57c1.21,7.92,7.05,14.68,14.11,18.17,8.55,4.21,18.6,3.9,27.54,1.14,4.75-1.46,9.65-3.48,12.44-7.82,1.75-2.72-2.58-5.23-4.31-2.53-1.87,2.91-5.46,4.23-8.6,5.26A41.07,41.07,0,0,1,334.41,182C327.09,182,320,179.53,315,174a18.68,18.68,0,0,1-4.62-9.77,2.53,2.53,0,0,0-3.08-1.75,2.58,2.58,0,0,0-1.75,3.08Z"/><path class="cls-4" d="M215.84,47.56A44.78,44.78,0,0,1,246.9,34a44.34,44.34,0,0,1,41,26.76A2.58,2.58,0,0,0,291,62.55a101,101,0,0,1,29.67-2.14c10.2.66,20.6,2.63,30,6.73a50,50,0,0,1,13.45,8.37l1.76-4.27a44.86,44.86,0,0,0-36.36,13.55c-1.34,1.4-.51,4.57,1.77,4.27,10.6-1.39,20.8,3,28.93,9.58,9,7.29,15.39,17,21.72,26.56,3.72,5.62,7.48,11.21,11.7,16.48l.5-3.93A55.88,55.88,0,0,1,369.19,145a2.54,2.54,0,0,0-2.16,3.76c4.52,9.22,13.13,15.9,17.36,25.28a8.22,8.22,0,0,1,.89,5,9.16,9.16,0,0,1-3.19,4.73c-3.48,3.06-8.16,4.84-12.56,6.06-7.31,2-14.56,4.7-22,5.93a2.51,2.51,0,0,0-1.5,3.67c9.06,13.8,26.07,16.51,41.2,18.4l-2.41-3.17c-6.79,16.1-23.21,27.71-40.6,28.94a2.53,2.53,0,0,0-2.16,3.76,69.42,69.42,0,0,0,26.91,28.61l-.5-3.93c-8.3,9.29-21.7,9-33.13,8.73-1.76-.05-3.3,2.22-2.16,3.76a58.65,58.65,0,0,1,10,46.75H348a73.39,73.39,0,0,0-17.61-25.6c-1.48-1.38-4.43-.5-4.27,1.76.61,8.6-6.95,16-13.51,20.41a45.37,45.37,0,0,1-23.85,7.88l2.41,3.16a84.91,84.91,0,0,0-.07-32.21c-.61-3.15-5.43-1.82-4.82,1.33a78.53,78.53,0,0,1,.07,29.55,2.54,2.54,0,0,0,2.41,3.17,50.1,50.1,0,0,0,27.17-9.12c7.66-5.44,15.91-14,15.19-24.17l-4.27,1.77a67.64,67.64,0,0,1,16.33,23.4,2.6,2.6,0,0,0,2.41,1.83,2.53,2.53,0,0,0,2.41-1.83c3.72-17.38.08-36.25-10.54-50.6l-2.16,3.76c12.78.34,27.44.13,36.66-10.19a2.54,2.54,0,0,0-.5-3.93,64.62,64.62,0,0,1-25.12-26.81l-2.16,3.76a54.22,54.22,0,0,0,39-21.37A51.28,51.28,0,0,0,389.59,216c.71-1.67-1-3-2.41-3.16C374,211.15,358.23,209,350.3,196.88l-1.49,3.67c7.27-1.2,14.21-3.88,21.33-5.74A39.3,39.3,0,0,0,384.75,188c4-3.15,6.53-7.74,5.3-12.89s-4.82-9.66-7.95-13.75c-3.74-4.88-8-9.61-10.75-15.16L369.19,150a61.6,61.6,0,0,0,27.45-7.89,2.55,2.55,0,0,0,.5-3.93c-7.71-9.63-13.7-20.49-21.24-30.24-7-9.05-15.59-17-26.32-21.3a36.59,36.59,0,0,0-18.32-2.54L333,88.33a40.08,40.08,0,0,1,32.82-12.09c2.15.21,3.31-2.89,1.77-4.27-7.72-6.93-17.56-11.1-27.54-13.6a112,112,0,0,0-33.19-3,99.48,99.48,0,0,0-17.25,2.4l3.08,1.74a49.87,49.87,0,0,0-25.1-26.08,48.54,48.54,0,0,0-36.9-1.29A49.52,49.52,0,0,0,212.3,44c-2.23,2.32,1.3,5.86,3.54,3.54Z"/></g></svg>