<?xml version="1.0" encoding="utf-8"?>
<!-- Generator: Adobe Illustrator 23.1.0, SVG Export Plug-In . SVG Version: 6.00 Build 0)  -->
<svg version="1.1" id="Layer_1" xmlns="http://www.w3.org/2000/svg" xmlns:xlink="http://www.w3.org/1999/xlink" x="0px" y="0px"
	 viewBox="0 0 447 415" style="enable-background:new 0 0 447 415;" xml:space="preserve">
<style type="text/css">
	.st0{fill:#FFFFFF;}
	.st1{fill:#FB5E54;}
	.st2{opacity:0.2;fill:#48406A;enable-background:new    ;}
	.st3{fill:#48406A;}
</style>
<g>
	<path class="st0" d="M397,138.1c-7.7-9.6-13.7-20.5-21.2-30.2c-7-9.1-15.6-17-26.3-21.3c-3.7-1.5-7.5-2.4-11.5-2.7
		c8-5.9,17.9-8.6,27.8-7.6c2.1,0.2,3.3-2.9,1.8-4.3c-7.7-7-17.6-11.1-27.5-13.6c-10.9-2.6-22-3.7-33.2-3c-5.1,0.3-10.2,1-15.1,2
		c-5-10.6-13.5-19-24.1-23.9c-11.6-5.3-24.9-5.7-36.9-1.3c-6.5,2.4-12.4,6-17.4,10.8c-8-6.5-18-10.2-28.3-10.5
		c-10.2-0.2-20.2,2.9-28.3,9c-3.8,2.8-7.2,6.3-10,10.1c-1.7-1.5-3.6-2.8-5.6-3.8c-2.4-1.1-5-1.9-7.7-2.3c-5.5-0.8-11-0.1-16.1,2
		c-5.1,2.1-9.6,5.6-12.8,10.1c-5.9,8.9-6.8,20.2-2.3,29.8c-11.2,1.7-21.2,8.2-27.2,17.9c-6.8,10.8-6.8,24.4-1.3,35.7
		c2.5,5.2,6.3,9.8,10.9,13.4c-8.4,5.7-20.8,5.6-28.8-0.8c-1-1-2.6-0.9-3.6,0.1c-0.4,0.4-0.7,1-0.7,1.6c-0.7,7.2,2.7,14.4,8,19.3
		c6,5.6,14.2,7.9,22.3,7.5c2.7-0.1,5.4-0.6,8.1-1.2c-1.8,4.5-2.4,9.4-1.6,14.2c1.2,6.8,5.1,12.8,10.8,16.6c3,2.1,6.3,3.5,9.9,4.1
		c-1.3,5.5-2.3,11-2.9,16.6c-1.3,13.8-0.9,27.6,1.2,41.3c0.8,6.4,2.1,12.8,3.9,19c1.9,6.2,4.5,12.1,7.6,17.8
		c5.4,9.8,11.8,18.9,19.3,27.3c7.5,8.7,15.8,17.5,26,23.1c11.8,6.5,25.3,5.6,38.1,3.2c11.8-2.2,23.3-6,34.1-11.2
		c10.8-5.2,21-11.8,30.2-19.5c7.8-6.5,14.8-14,20.7-22.3c1.3,8.8,1.2,17.7-0.5,26.4c-0.4,1.4,0.5,2.7,1.8,3.1
		c0.2,0.1,0.4,0.1,0.6,0.1c9.8-0.3,19.2-3.5,27.2-9.1c6.2-4.4,12.8-10.9,14.7-18.6c5.3,5.7,9.5,12.3,12.5,19.5
		c0.3,1.1,1.3,1.8,2.4,1.8c1.1,0,2.1-0.8,2.4-1.8c3.4-16,0.6-32.8-8-46.8c11.5,0.1,23.8-1.2,31.9-10.3c1-1,0.9-2.6-0.1-3.6
		c-0.1-0.1-0.3-0.3-0.5-0.4c-9.7-5.7-17.7-13.8-23.2-23.5c14-2.2,26.5-9.7,35-20.9c2.6-3.5,4.7-7.2,6.4-11.2c0.7-1.7-1-3-2.4-3.2
		c-12-1.5-26.2-3.5-34.6-13c5.9-1.4,11.7-3.4,17.6-5c5.3-1.2,10.3-3.6,14.6-6.8c4-3.1,6.5-7.7,5.3-12.9s-4.8-9.7-8-13.8
		c-2.9-3.8-6.2-7.6-8.8-11.7l0,0c8.2-0.9,16.1-3.5,23.3-7.6c1.2-0.7,1.6-2.3,0.9-3.5C397.3,138.5,397.2,138.3,397,138.1z"/>
	<path class="st0" d="M219.8,293h-0.2h-0.2c-10.5,0.5-21.1,1.7-31.5,3.5c-3.5,0.6-6.9,1.3-10.4,2l-1.6,0.4c-1.1,0.2-2.2,0.5-3.3,0.8
		c-0.6,0.1-1.1,0.2-1.7,0.3c-1.8,0.3-3.5,0.6-5.3,1l-1.3,0.3l-1.3,0.4l-0.1,0l-0.2,0.1l0,0l0,0l-0.2,0.1h-0.1l0,0l0,0
		c0,0.2,0,0.4,0,0.5c0,0.2,0,0.5,0,0.7c0,0.2,0,0.5,0.1,0.7c0.1,0.5,0.2,0.9,0.4,1.4c0.1,0.2,0.1,0.5,0.2,0.7c0.2,0.5,0.4,1,0.6,1.5
		c0.1,0.2,0.2,0.4,0.3,0.6l0.4,0.8l0.4,0.8c0.1,0.2,0.2,0.3,0.3,0.5c0.2,0.3,0.4,0.6,0.5,1l54.1-8.1l0,0c0.1-0.2,0.1-0.4,0.1-0.6
		s0.1-0.6,0.2-0.9s0.1-0.4,0.1-0.6s0.1-0.7,0.1-1l0.1-0.5c0-0.5,0.1-1,0.1-1.5c0-1.2-0.1-2.3-0.3-3.5l0,0c0-0.4-0.1-0.8-0.3-1.2
		L219.8,293L219.8,293z"/>
	<path class="st1" d="M219.8,303l-54.1,8.3c0.5,0.8,1,1.5,1.5,2.2c0,0.1,0.1,0.1,0.1,0.2c0.2,0.3,0.5,0.6,0.7,0.9
		c0.1,0.1,0.2,0.2,0.3,0.4l0.7,0.8c0.1,0.1,0.2,0.3,0.4,0.4s0.5,0.5,0.7,0.8l0.4,0.3c0.4,0.4,0.9,0.8,1.4,1.2l0.6,0.5
		c0.2,0.2,0.4,0.4,0.7,0.5l0.7,0.5l0.7,0.5l0.8,0.5l0.6,0.4c0.4,0.2,0.8,0.4,1.2,0.6l0.5,0.2c0.4,0.2,0.8,0.4,1.2,0.6l0.5,0.2l1,0.4
		l0.6,0.2l1.1,0.3l0.5,0.1c0.5,0.1,1.1,0.3,1.6,0.4c1.8,0.4,3.6,0.5,5.4,0.6c1.2,0,2.5-0.1,3.7-0.2c0.6-0.1,1.2-0.2,1.8-0.3
		c1.2-0.2,2.4-0.5,3.6-0.8c2.4-0.7,4.6-1.6,6.8-2.8c2.1-1.2,4.1-2.6,5.9-4.3c0.4-0.4,0.9-0.8,1.3-1.3c0.8-0.9,1.6-1.8,2.4-2.8
		c1-1.3,1.8-2.6,2.6-4.1c0.7-1.3,1.2-2.6,1.7-3.9C219.5,304.1,219.7,303.5,219.8,303z"/>
	<path class="st2" d="M280.7,193.3c1.5,13.6,6,27.3,14.9,37.8c0.2-0.5,0.5-0.9,1-1.2c6.8-3,14.5-2.7,21,0.9c0.5,0.3,1.1,0.6,1.6,1
		c3.1-14.9,5.2-30.1,6.2-45.3c0-0.2,0.1-0.4,0.1-0.6c-2-0.5-4-1.2-5.8-2.1c-6.6-3.2-12.1-9.3-13.8-16.5c-8.3,0.6-16.3-3-21.2-9.7
		c-0.8-1.1-1.6-2.4-2.2-3.6C280.5,167,279.3,180.2,280.7,193.3z"/>
	<path class="st2" d="M298.4,277.6c0.6-1.7,1.4-3.4,2.3-4.9c0.9-1.5,2.1-2.9,3.1-4.5c0.6-1,1-1.9,0.1-2.6c-1-0.7-2-1.1-3.2-1.4
		c-5.6,3.1-8.6,9.2-9.5,15.5c-0.7,4.6-0.3,10.4,2.5,14.4c0.5,0.3,0.8,0.7,1,1.2c0.6,0.6,1.3,1.2,2,1.7c2.2,1.5,5,1.8,7.4,0.6
		c0.9-0.5,1.7-1.2,2.3-2.1c-0.7-0.2-1.3-0.4-2-0.7C298,292,296.3,283.8,298.4,277.6z"/>
	<path class="st1" d="M380.8,188c3.3-1.9,6.1-4.9,6.8-8.7c0.9-5.3-2.7-10.2-6.1-14.3c-3.6-4.4-10.1-9.3-8.1-15.5
		c1.6-5.2,11.5-5.6,16-6.7c2.4-0.6,5.2-1.6,5.8-4c0.7-2.8-2.1-5-4.3-6.8c-11.4-9.4-15.5-25.6-27-34.9c-5.9-4.8-13.1-10.2-20.6-9.2
		c-2.4,0.3-5.4,0.4-6.8-1.6c-0.8-1.4-0.8-3.2,0.2-4.6c1-1.3,2.3-2.4,3.8-3c5.9-2.7,12.9-2.4,18.8-5c0.8-0.4,1.8-0.9,1.9-1.8
		c0-0.8-0.4-1.6-1.1-2.1c-4.3-4.2-10-6.7-15.7-8.5c-12.6-3.8-25.8-4.4-38.8-4c-3.5,0.1-7,0.3-10.4,0.5c-2.1,0.1-5.8,1.2-7.8,0.3
		s-3.1-3.9-4.3-5.6c-1.7-2.4-3.7-4.6-5.9-6.6c-8.2-7.7-19.1-11.9-30.4-11.7c-11.7,0.3-22.8,5.1-31,13.5c-0.8,0.9-2.2,1-3.1,0.2
		c-0.8,0.1-1.6-0.1-2.2-0.7c-11.4-9.5-27-12.2-40.9-7c-8.4,3.2-15.5,9-20.3,16.5c-0.7,1.2-2.3,1.6-3.5,0.8c-0.2-0.1-0.3-0.2-0.4-0.3
		c-2.1-2.2-4.6-3.9-7.4-5.2c-2.3-0.9-4.8-1.5-7.2-1.7c-9.1-0.6-18.5,3.6-23.1,11.6c-4.7,8.2-4.4,18.4,0.8,26.4
		c0.7,1.2,0.3,2.7-0.9,3.4c-0.4,0.2-0.8,0.3-1.2,0.3c-6.2,0.2-12.1,2.2-17.2,5.7c-9.2,6.1-14.7,16.4-14.4,27.5
		c0.4,11,6.1,21,15.3,27c1.2,0.7,1.6,2.3,0.9,3.5c-0.1,0.2-0.2,0.3-0.4,0.5c-9.2,8.3-23.1,9.7-33.8,4c0.3,1.8,0.9,3.5,1.7,5.1
		c3,5.6,8.2,9.7,14.4,11.2c7.2,1.9,14.9,0.6,21.7-2.1c2-0.8,4.1,2,2.8,3.7c-7.1,8.9-5.6,21.9,3.4,29c2.8,2.2,6,3.6,9.5,4.2
		c1.3-4.9,2.7-9.8,3.9-14.7c0.9-3.7,1.7-7.5,2.2-11.3c0.4-3.5,0.6-7,0.7-10.5c0.3-7,0.7-14,3.9-20.4c-8.1-3.7-14.3-11.9-14-21
		c0.1-3.2,5.1-3.2,5,0c-0.1,4.7,1.8,9.2,5.2,12.4c6.8,6.8,16.9,7.1,25.6,3.9c8.4-3.2,17-10.1,18.3-19.4c0.4-1.3,1.8-2.1,3.1-1.7
		c1.3,0.4,2.1,1.7,1.7,3.1c-0.5,3.2-1.7,6.2-3.4,8.9c4.1,3.2,9,5.4,14.2,6.2c10.1,1.6,20.3-1.5,27.8-8.4c7.5-7.1,11.9-16.7,12.3-27
		c0.1-3.2,5.1-3.2,5,0c-0.2,3.7-0.8,7.4-1.9,11c7.5,0.6,13.2,6,17.8,11.7c3.3-5.6,7.9-10.3,13.5-13.7c2.3-1.4,4.4,1.3,3.4,3.4
		c-2,4.2-3.6,8.6-4.9,13.1c10.4-3.6,21.8-3,31.8,1.7c0.6-2.5,1.1-5,1.4-7.5c0-1.4,1.1-2.5,2.5-2.5c1.4,0,2.5,1.1,2.5,2.5
		c-0.4,5.1-2.6,10-2.3,15.1c0.3,6.8,5.5,13.1,11.8,15.3c7.1,2.6,15.4,0.8,21.2-3.8c1-0.9,2.6-0.9,3.5,0c1,1,1,2.6,0,3.5
		c-3.3,2.6-7,4.5-11.1,5.6c0.8,2.8,2.2,5.4,4.1,7.6c5,5.5,12.1,8,19.4,7.9c4.2-0.1,8.4-0.8,12.3-2.2c3.1-1,6.7-2.4,8.6-5.2
		c1.7-2.7,6.1-0.2,4.3,2.5c-4.7,7.4-13,7.7-20.8,7.1c-3.1-0.3-6.5,0-8.8,2.1c-2.4,2.3-2.7,6-2.9,9.3c-0.7,10.7-2.3,21.4-4.8,31.8
		c-0.8,3.2-1.6,6.5-0.8,9.7c0.6,2.5,2.3,4.7,3.6,6.9c6,10.5,6,23.4-0.1,33.8c-3.1,5.1-6.2,10.4-11.5,13c-1.5,0.7-3.1,1.4-4,2.7
		c-0.6,1.1-1.1,2.3-1.5,3.5c-1.3,2.2-3.6,3.7-6.1,4c-2.5,0.2-5.1-0.1-7.5-0.9c-0.9-0.4-1.9-0.5-2.9-0.3c-0.4,0.2-0.8,0.4-1.2,0.7
		c-2.6,2.4-2.8,6.5-2.1,10c0.8,3.9,1.3,7.9,1.4,11.9c0.1,3.6-1.2,9.5-0.1,12.9c1.9,5.6,15.2,0.2,19.2-2.1c9.8-5.7,16.1-13.1,21-23.4
		c1.7,0.3,3.2,1.2,4.4,2.4c5.4,5.2,9.4,11.6,11.8,18.7c0.6-8.9,1.1-17.4,0.4-26.4c-0.1-2.7-0.7-5.4-1.6-8c-0.8-1.8-1.8-3.5-3-5.1
		l-5.8-8.7c7.3,0.6,15.2,0.8,22-1.9c3.9-1.6,7.5-3.9,10.5-6.9c-8.1-5.7-16.6-12-19.9-21.4c-0.9-2.5-1.4-5.2-2.9-7.4
		c4.3,1.2,8.8,0.2,12.8-1.8s7.4-5,10.8-8c2.9-2.6,5.8-5.3,8.7-8c2.4-2.2,8.5-6,8.3-9.8c-0.3-4.7-6.6-3.7-9.6-3.9
		c-3.4-0.2-5.5-2.1-8.7-3.2c-3.5-1.2-7.4-0.9-10.7-2.2c-4-1.6-7.1-6.4-8.1-10.4c6-1.6,11.9-3.2,17.8-5
		C371.3,191.8,376.6,190.4,380.8,188z"/>
	<path class="st1" d="M230.3,220.4c-0.5,5.1-0.6,11.9,2,16.5c3.3,5.8,9.1,2.6,11.9-1.6c1.7-2.6,3-5.5,4-8.5
		c3.8-10.8,4.2-23.7-2-33.7C236.8,199,231.3,209.4,230.3,220.4z"/>
	<path class="st1" d="M164.2,221.4c1.7-2.7,3-5.5,4-8.5c3.8-10.8,4.2-23.7-2-33.7c-9.4,6-14.9,16.3-16,27.4
		c-0.5,5.1-0.6,11.9,2,16.4C155.6,228.8,161.4,225.6,164.2,221.4z"/>
	<path class="st3" d="M233.9,119.1c1,1.5,1.8,3,2.5,4.7c0.9,2.3,1.5,4.6,1.8,7.1c0.1,1.2-0.6,5.7-0.1,6.4c-2.6-3.9-5.9-7.3-9.5-10.2
		c-3.7-2.8-8.3-4.2-13-4.1c1.9-3.3,1-10.4,0.6-14.1c-0.1-0.5-0.1-1,0.1-1.5c0.5-0.8,1.4-1.2,2.3-1.2c3.7-0.1,6.8,2.7,9.3,5.4
		C230,114,232.1,116.5,233.9,119.1z"/>
	<path class="st3" d="M262.9,122.7c4.9-3.4,12.3-7.5,18.4-5.2c0.1,0,0.3,0.1,0.4,0.2c0.1,0.1,0.2,0.3,0.2,0.4c0,0.8-0.4,1.5-1.1,1.8
		c-0.7,0.3-1.4,0.5-2.2,0.5c-2.3,0.4-4.4,1.3-6.2,2.7c-1.6,1.4-3,3-4,4.9c-0.5,0.8-0.8,2,0,2.6c0.6,0.4,1.4,0.3,2-0.1
		c1-0.8,1.9-1.7,2.7-2.7c3.5-3.6,12.5-4.6,14.5,1.2c0.8,2.2,0,4.6-0.6,6.8c-1.1,3.9-1.7,7.9-1.9,11.9l-4.3-6.6
		c-1.5-2.3-5.7-3.2-8.2-4c-4.2-1.3-8.6-0.9-12.9-0.1c-2.1,0.4-4.2,0.9-6.4,1.4c-1.7,0.4-4.2,1.3-6,0.9c0.3-1.1,1.9-2.5,2.6-3.4
		c1.2-1.7,2.5-3.3,3.9-4.9C256.4,127.9,259.5,125.1,262.9,122.7z"/>
	<path class="st3" d="M108.7,130.5c-2.9,0.2-5,3.1-5.8,5.9c-2.4,7.9,0.9,16.4,8,20.7c-4.3,4.2-9.6,7.1-15.5,8.3
		c-1.5,0.3-3.6,1.5-2.8,2.8c0.5,0.5,1.1,0.8,1.8,0.8c6.1,0.5,12.2-1.1,17.4-4.4c-3.9,5-7.9,10.4-8.9,16.7s2.4,13.7,8.7,15
		c1.3,0.3,2.6,0.1,3.8-0.5c0.6-0.5,1.1-1.1,1.4-1.8c1.7-3.2,1.5-7.1,1.4-10.8c-0.1-10.3,2-20.4,6-29.9c-3.8-1.1-7.1-3.4-9.5-6.5
		c-1.8-2.3-3.4-4.4-4.2-7.2S109.2,133.4,108.7,130.5z"/>
	<path class="st3" d="M337,191c2.6,9.9,9.3,18.1,18.3,22.8c1.6,0.8,3.7,2.2,3.2,4c-1.6,6-12.8-1.5-15-3.6c-0.7-0.7-1.4-1.3-2.2-1.8
		c-0.9-0.5-1.9-0.5-2.8,0.1c-0.6,0.5-0.9,1.4-0.8,2.2c0.1,0.8,0.4,1.6,0.9,2.3c1.8,3.1,5.2,5.9,8.2,7.8c3.3,2.1,7.3,3,11.2,2.7
		c1-0.1,2.1-0.1,2.7,0.6c0.2,0.3,0.4,0.7,0.5,1.1c0.2,1.8-0.5,3.5-1.9,4.6c-1.4,1.1-2.9,1.9-4.6,2.3c-3,1-6.1,1.5-9.3,1.4
		c-3.2-0.1-6.2-1.3-8.7-3.3c-0.7-0.7-1.4-1.2-2.3-1.6c-0.9-0.3-1.9,0-2.6,0.7c-1.4,1.5-0.1,3.1,0.3,4.7c0.5,2.1,1.2,4.1,2,6.1
		c1.5,3.9,3.8,7.4,6.8,10.3c1.6,1.5,3.5,3,4.4,5s0.6,4.9-1.5,5.8c-1,0.4-2.2,0.4-3.2,0c-3.4-0.9-6.2-3.2-8.8-5.6
		c-0.5-0.5-1-1-1.4-1.7c-0.3-0.7-0.4-1.5-0.5-2.2c-0.5-6.6-1.6-11.9-5-17.6c-0.9-1.3-1.5-2.7-1.9-4.2c-0.3-1.5-0.3-3.1-0.1-4.6
		c1-13.8,2.1-27.6,3.1-41.4c-0.1-1.1,0.3-2.2,1.1-2.9c0.8-0.4,1.8-0.6,2.7-0.4c8.9,0.6,15.6-2.4,23.6-5.4
		C353.1,184.2,341.1,189.3,337,191z"/>
	<path class="st3" d="M331.9,297.9c-2.3,0.7-4.4-1.4-5.7-3.3s-2.8-4.3-5.1-4.5c1,4.2,0.3,8.6-1,12.8c-1.8,6.1-4.8,12.3-10.3,15.6
		c-1.2,0.7-2.8,1.3-4,0.6c-0.5-0.3-0.9-0.8-1.2-1.3c-2.1-3-3.5-6.5-5.6-9.6s-5.1-5.8-8.8-6.2c0.1-0.5,0.5-1,1-1.2
		c4.1-2.7,10,2.3,14.1-0.3c2.3-1.5,2.8-4.7,4.8-6.6c0.9-0.8,1.8-1.5,2.9-2c2.6-1.5,4.9-3.4,6.9-5.6c1-1.1,1.9-2.3,2.8-3.5
		c1.1-1.6,1-2.4,2.6-1.2c2.1,1.5,3.9,5.5,4.9,7.8C330.4,290,333.2,297.5,331.9,297.9z"/>
	<path class="st3" d="M121,153.5c-3.1,5.8-3.8,12.4-4.1,18.8c-0.1,6.6-0.8,13.2-2,19.6c-1.4,6.9-3.5,13.6-5.2,20.3
		c-1.8,6.6-3,13.4-3.8,20.2c-1.3,13.8-0.9,27.6,1.2,41.3c0.8,6.4,2.1,12.8,3.9,19c1.9,6.1,4.5,12.1,7.6,17.8
		c5.4,9.8,11.8,18.9,19.3,27.3c7.5,8.7,15.8,17.5,26,23.1c11.7,6.5,25.3,5.6,38,3.2c11.8-2.2,23.3-6,34.1-11.2
		c10.8-5.2,21-11.8,30.2-19.5c9.4-7.9,18-17,24.2-27.6c1.6-2.7,3-5.5,4.4-8.4c0.7-1.2,0.3-2.7-0.9-3.4c-1.2-0.7-2.7-0.3-3.4,0.9
		c-10,21.5-28.6,38.2-49.1,49.6c-10.1,5.6-20.8,9.9-32,12.8c-5.8,1.6-11.8,2.6-17.8,3.3c-6.4,0.6-13.1,0.6-19.2-1.4
		c-5-1.8-9.7-4.4-13.8-7.8c-4.4-3.6-8.6-7.5-12.4-11.8c-7.2-7.6-13.7-15.9-19.3-24.8c-3.2-5.1-6-10.4-8.3-15.9
		c-2.3-5.7-4-11.7-5.1-17.8c-2.5-13-3.6-26.1-3.1-39.3c0.2-6.6,1-13.2,2.3-19.6c1.3-6.6,3.3-13,5-19.5c1.9-6.5,3.2-13.2,3.9-20
		c0.6-6.2,0.2-12.4,1.3-18.6c0.5-2.8,1.4-5.5,2.7-8.1C126.7,153.3,122.4,150.8,121,153.5L121,153.5z"/>
	<path class="st3" d="M170.8,242.1c-6.3,2.5-12.9,5.5-15.7,12.3s1.9,13.9,6,19.1c1,1,2.6,1,3.5,0c0.9-1,0.9-2.5,0-3.5
		c-1.8-2.2-3.2-4.7-4.4-7.2c-1.1-2.1-1.2-4.6-0.4-6.8c2.1-4.9,7.6-7.1,12.3-9c1.3-0.4,2.1-1.7,1.7-3.1
		C173.5,242.5,172.1,241.7,170.8,242.1L170.8,242.1z"/>
	<path class="st3" d="M219.3,292.8c0.2,0,0.5,0,0.8,0c-0.1-0.1-0.2-0.1-0.2-0.2c0.2,0.4,0.3,0.9,0.3,1.4c0.2,1.1,0.3,2.3,0.3,3.5
		c0,2.3-0.4,4.6-1.1,6.8c-1.6,4.6-4.3,8.8-8,12c-7.4,6.7-17.5,9.6-27.3,7.8c-9.6-2.1-17.5-9-20.9-18.3c-0.3-0.9-0.6-1.8-0.7-2.7
		c0-0.5,0-1.1,0-1.6c0-0.3,0.2-0.4,0-0.1c0,0-0.6,0.9-0.3,0.6s-0.3,0.2,0,0l0.4-0.2c0.1-0.1,0.2-0.1,0.4-0.2c-0.4,0.2,0,0,0.1,0
		c0.9-0.3,1.7-0.5,2.6-0.7c1.7-0.4,3.5-0.7,5.3-1c2.2-0.4,4.4-1,6.6-1.4C191.3,295.4,205.3,293.5,219.3,292.8c3.2-0.2,3.2-5.2,0-5
		c-14.2,0.7-28.3,2.6-42.2,5.5c-2.5,0.5-5,1.2-7.5,1.6c-2,0.4-4,0.7-5.9,1.2c-1.8,0.5-3.8,1-5.1,2.4c-1.7,1.8-1.1,5-0.6,7.2
		c1.5,5.2,4.3,9.9,8.1,13.8c4.2,4.5,9.6,7.6,15.6,9.1c11.4,2.8,23.9-0.6,32.7-8.3c4.9-4.3,8.5-9.9,10.2-16.2c0.8-3,1.1-6.2,0.8-9.3
		c-0.1-1.6-0.5-3.3-1.2-4.8c-1-1.8-2.9-2.4-4.8-2.3C216.1,287.9,216.1,292.9,219.3,292.8z"/>
	<path class="st3" d="M134.6,187.9c2.6-4.6,6.2-8.5,10.4-11.6c4.1-2.9,9-4.4,13.8-1.9c8.3,4.5,11.5,14.8,11.4,23.6
		c-0.1,4.8-1,9.5-2.6,14c-1.5,4-3.6,9.4-7.9,11.2c-9.6,4-9.3-14.3-8.5-19.4c1.5-9.5,6.5-18.5,15.1-23.2c2.8-1.5,0.3-5.9-2.5-4.3
		c-9.1,5-15.1,14.4-17.1,24.4c-1.1,5.2-1.1,10.5-0.2,15.8c1,5.6,3.6,11.7,10.1,12.2s11.1-4.9,13.7-10.2c2.5-5.2,4.1-10.8,4.8-16.5
		c1.2-10.7-1.8-22.8-10.5-29.8c-5.4-4.8-13.4-5.5-19.6-1.6c-6.1,3.3-11.1,8.9-14.6,14.9C128.7,188.2,133,190.7,134.6,187.9
		L134.6,187.9z"/>
	<path class="st3" d="M214.7,201.8c2.6-4.6,6.2-8.5,10.4-11.6c4.1-2.9,9-4.4,13.8-1.9c8.3,4.5,11.5,14.8,11.4,23.6
		c-0.1,4.8-1,9.5-2.6,14c-1.5,4-3.6,9.4-7.9,11.2c-9.6,4-9.3-14.3-8.5-19.4c1.5-9.5,6.5-18.5,15.1-23.2c2.8-1.5,0.3-5.9-2.5-4.3
		c-9.1,5-15.1,14.4-17.1,24.4c-1.1,5.2-1.1,10.5-0.2,15.8c1,5.6,3.6,11.7,10.1,12.2s11.1-4.9,13.7-10.2c2.5-5.2,4.1-10.8,4.7-16.5
		c1.2-10.7-1.8-22.8-10.5-29.8c-5.4-4.8-13.4-5.5-19.6-1.7c-6.1,3.3-11.1,8.9-14.6,14.9C208.7,202.1,213,204.6,214.7,201.8
		L214.7,201.8z"/>
	<path class="st3" d="M298.9,259.6c-6.6,3.3-10.7,10.2-12.1,17.3c-1.5,7.7-0.8,17.2,5.4,22.8c2.9,2.7,6.9,4,10.9,3.5
		c3.8-0.5,7.1-3.1,8.6-6.6c0.8-2.1-0.2-4.5-2.3-5.3c0,0,0,0,0,0c-1.4-0.6-2.9-0.8-4.1-1.9c-2.3-2.3-3.2-5.7-2.3-8.9
		c0.6-2.2,1.5-4.3,2.8-6.2c1.3-1.9,3-3.7,3.6-6c1.4-5-3.2-7.8-7.4-8.9c-3.1-0.8-4.4,4-1.3,4.8c1.2,0.2,2.4,0.7,3.4,1.4
		c0.9,0.7,0.5,1.6-0.1,2.6c-1,1.5-2.1,2.9-3.1,4.4c-0.9,1.6-1.7,3.2-2.3,4.9c-2.1,6.2-0.4,14.4,6,17.3c0.8,0.3,1.6,0.6,2.4,0.8
		c0.1,0,0.3,0.1,0.4,0.1c0,0-0.4-1-0.4-1l-0.2,0.4c-0.6,1-1.5,1.8-2.6,2.4c-2.4,1.1-5.2,0.9-7.4-0.6c-5.6-3.5-6.4-11.4-5.5-17.3
		c0.9-6.4,4.1-12.8,10.1-15.8C304.2,262.4,301.7,258.1,298.9,259.6L298.9,259.6z"/>
	<path class="st3" d="M306.5,295.1c7.2,0.5,13.4-4.1,17.4-9.8c4.1-6,6.8-12.7,8-19.9c2.2-13-1.8-28.1-14.2-34.7
		c-6.5-3.6-14.2-3.9-21-0.9c-1.2,0.7-1.6,2.2-0.9,3.4c0.7,1.2,2.2,1.6,3.4,0.9c4.8-2,10.2-1.9,14.9,0.4c4.8,2.3,8.5,6.3,10.7,11.1
		c5.2,11,2.2,24.2-3.5,34.3c-3.1,5.4-8,10.6-14.8,10.1c-1.4,0-2.5,1.1-2.5,2.5C304,294,305.2,295.1,306.5,295.1L306.5,295.1z"/>
	<path class="st3" d="M323.6,235.4c3.5-16.1,5.8-32.4,6.8-48.9c0-1.4-1.1-2.5-2.5-2.5c-1.4,0-2.5,1.1-2.5,2.5
		c-1,16-3.2,31.9-6.6,47.5C318.1,237.1,322.9,238.5,323.6,235.4L323.6,235.4z"/>
	<path class="st3" d="M110.5,211.2c-11.3-1.6-19.1-12-17.5-23.3c0.5-3.6,2-7,4.2-9.9c1.3-1.7-0.9-4.5-2.8-3.7
		c-6.8,2.7-14.5,4-21.7,2.1c-6.2-1.5-11.4-5.6-14.4-11.2c-1.6-3-2.2-6.4-1.9-9.8l-4.3,1.8c11,8.9,27.8,8.5,38.3-1.1
		c1-1,0.9-2.6-0.1-3.6c-0.1-0.1-0.3-0.3-0.5-0.4c-9.2-6-14.9-16-15.3-27c-0.2-11,5.2-21.4,14.4-27.4c5.1-3.5,11-5.5,17.2-5.7
		c1.4,0,2.5-1.2,2.5-2.6c0-0.4-0.1-0.8-0.3-1.2c-5.1-8-5.4-18.1-0.8-26.4c4.6-8,14-12.3,23.1-11.7c2.5,0.2,5,0.7,7.3,1.7
		c2.8,1.3,5.3,3,7.4,5.2c1,1,2.6,0.9,3.6-0.1c0.1-0.1,0.2-0.3,0.3-0.4c4.8-7.6,11.9-13.4,20.3-16.6c8.7-3.3,18.3-3.4,27.2-0.5
		c5,1.6,9.7,4.2,13.7,7.6c1,0.9,2.5,0.9,3.5,0c1-1,1-2.6,0-3.5c-8.2-6.9-18.4-10.8-29.1-11.1c-10.2-0.2-20.2,2.9-28.3,9
		c-4.6,3.5-8.6,7.7-11.7,12.6l3.9-0.5c-2.3-2.3-5-4.2-7.9-5.7c-2.4-1.1-5-1.9-7.7-2.3c-5.4-0.8-11-0.1-16.1,2
		c-5.1,2.1-9.6,5.6-12.8,10.1c-3.1,4.6-4.9,9.9-5.1,15.5c-0.3,6.3,1.3,12.5,4.7,17.7l2.2-3.8c-12.8,0.5-24.5,7.4-31.3,18.2
		c-6.8,10.8-6.8,24.4-1.3,35.7c3,6.3,7.8,11.7,13.8,15.5l-0.5-3.9c-8.3,7.6-22.4,8.1-31.2,1.1c-1-1-2.6-0.9-3.6,0.1
		c-0.4,0.4-0.7,1-0.7,1.6c-0.7,7.2,2.7,14.4,8,19.3c6,5.6,14.2,7.9,22.3,7.5c4.8-0.3,9.6-1.3,14.1-3.1l-2.8-3.7
		c-4.2,5.7-5.8,12.8-4.7,19.8c1.2,6.8,5.1,12.8,10.8,16.6c3.1,2.1,6.6,3.6,10.2,4.1c1.3,0.3,2.7-0.4,3.1-1.7
		C112.6,212.9,111.8,211.6,110.5,211.2L110.5,211.2z"/>
	<path class="st3" d="M106.7,133.2c-0.4,10.5,8,19.7,17.8,22.4c11.2,3,23.5-1.5,32-8.9c4.5-4,8.2-9.3,9.1-15.3
		c0.3-1.3-0.4-2.7-1.8-3.1c-1.3-0.4-2.7,0.4-3.1,1.8c-1.4,9.3-9.9,16.3-18.3,19.4c-8.6,3.3-18.7,2.9-25.6-3.9
		c-3.4-3.2-5.3-7.7-5.2-12.4C111.8,130,106.8,130,106.7,133.2L106.7,133.2z"/>
	<path class="st3" d="M157.7,143c8.9,7.8,21.2,10.4,32.6,7.8s20.8-10.6,26.1-20.9c3-5.9,4.8-12.4,5.1-19c0.1-3.2-4.9-3.2-5,0
		c-0.5,10.3-4.9,19.9-12.3,27c-7.5,6.9-17.7,10-27.8,8.4c-5.6-0.8-10.8-3.2-15.1-6.9c-1-0.9-2.5-0.9-3.5,0
		C156.8,140.4,156.8,142,157.7,143L157.7,143z"/>
	<path class="st3" d="M217.1,127c8.3-0.6,14.1,6.6,18.6,12.6c1,1.3,3.4,1.9,4.3,0c2.9-6.3,7.5-11.6,13.4-15.3l-3.5-3.5
		c-2.9,6.1-5.1,12.6-6.6,19.2c-0.3,1.4,0.5,2.7,1.9,3.1c0.6,0.1,1.3,0.1,1.8-0.2c10.1-5,21.9-5,32-0.2c1.2,0.7,2.7,0.3,3.4-0.9
		c0.7-1.2,0.3-2.7-0.9-3.4c-11.7-5.7-25.4-5.6-37,0.2l3.7,2.8c1.4-6.2,3.4-12.2,6.1-18c1-2.1-1.1-4.8-3.4-3.4
		c-6.7,4.1-12,10-15.3,17.1h4.3c-5.6-7.4-12.7-15.8-22.9-15c-1.4,0-2.5,1.1-2.5,2.5C214.6,125.9,215.7,127,217.1,127L217.1,127z"/>
	<path class="st3" d="M282.7,130.6c-0.5,5.1-2.6,10-2.3,15.2c0.2,4.2,1.7,8.3,4.2,11.7c5.4,7.3,14.5,11,23.4,9.5
		c5.1-0.8,9.9-2.9,13.9-6.1c1-1,1-2.6,0-3.5c-1-0.9-2.5-0.9-3.5,0c-5.9,4.6-14.1,6.4-21.2,3.8c-6.3-2.2-11.4-8.6-11.8-15.3
		c-0.3-5.1,1.9-10.1,2.3-15.2c0-1.4-1.1-2.5-2.5-2.5C283.9,128.2,282.7,129.3,282.7,130.6L282.7,130.6z"/>
	<path class="st3" d="M305.5,165.6c1.2,7.9,7,14.7,14.1,18.2c8.5,4.2,18.6,3.9,27.5,1.1c4.8-1.5,9.6-3.5,12.4-7.8
		c1.8-2.7-2.6-5.2-4.3-2.5c-1.9,2.9-5.5,4.2-8.6,5.3c-4,1.4-8.1,2.1-12.3,2.2c-7.3,0-14.4-2.5-19.4-8c-2.5-2.7-4.1-6.1-4.6-9.8
		c-0.4-1.3-1.7-2.1-3.1-1.8C306,162.9,305.2,164.2,305.5,165.6L305.5,165.6z"/>
	<path class="st3" d="M215.8,47.6c8.2-8.4,19.3-13.3,31.1-13.6c17.8-0.1,33.9,10.4,41,26.8c0.4,1.3,1.8,2.1,3.1,1.8
		c9.7-2.2,19.7-2.9,29.7-2.1c10.2,0.7,20.6,2.6,30,6.7c4.9,2.1,9.4,4.9,13.5,8.4l1.8-4.3C352.3,70,339,75,329.5,84.8
		c-1.3,1.4-0.5,4.6,1.8,4.3c10.6-1.4,20.8,3,28.9,9.6c9,7.3,15.4,17,21.7,26.6c3.7,5.6,7.5,11.2,11.7,16.5l0.5-3.9
		c-7.6,4.3-16.2,6.8-25,7.2c-1.4,0-2.5,1.2-2.5,2.6c0,0.4,0.1,0.8,0.3,1.2c4.5,9.2,13.1,15.9,17.4,25.3c0.8,1.5,1.1,3.3,0.9,5
		c-0.5,1.9-1.7,3.5-3.2,4.7c-3.5,3.1-8.2,4.8-12.6,6.1c-7.3,2-14.6,4.7-22,5.9c-1.3,0.4-2.1,1.8-1.7,3.1c0.1,0.2,0.1,0.4,0.2,0.6
		c9.1,13.8,26.1,16.5,41.2,18.4l-2.4-3.2c-6.8,16.1-23.2,27.7-40.6,28.9c-1.4,0-2.5,1.2-2.5,2.6c0,0.4,0.1,0.8,0.3,1.2
		c6,11.9,15.4,21.9,26.9,28.6l-0.5-3.9c-8.3,9.3-21.7,9-33.1,8.7c-1.8,0-3.3,2.2-2.2,3.8c9.8,13.5,13.5,30.5,10,46.8h4.8
		c-4-9.7-10-18.4-17.6-25.6c-1.5-1.4-4.4-0.5-4.3,1.8c0.6,8.6-7,16-13.5,20.4c-7,4.8-15.3,7.6-23.9,7.9l2.4,3.2
		c2-10.6,2-21.6-0.1-32.2c-0.6-3.1-5.4-1.8-4.8,1.3c1.9,9.8,1.9,19.8,0.1,29.5c-0.3,1.4,0.5,2.7,1.8,3.1c0.2,0,0.4,0.1,0.6,0.1
		c9.8-0.3,19.2-3.5,27.2-9.1c7.7-5.4,15.9-14,15.2-24.2l-4.3,1.8c7,6.6,12.6,14.5,16.3,23.4c0.3,1.1,1.3,1.8,2.4,1.8
		c1.1,0,2.1-0.8,2.4-1.8c3.7-17.4,0.1-36.2-10.5-50.6l-2.2,3.8c12.8,0.3,27.4,0.1,36.7-10.2c1-1,0.9-2.6-0.1-3.6
		c-0.1-0.1-0.3-0.2-0.4-0.3c-10.8-6.3-19.5-15.6-25.1-26.8l-2.2,3.8c15.5-1.2,29.7-9,39-21.4c2.6-3.5,4.8-7.2,6.4-11.2
		c0.7-1.7-1-3-2.4-3.2c-13.2-1.7-28.9-3.8-36.9-16l-1.5,3.7c7.3-1.2,14.2-3.9,21.3-5.7c5.3-1.2,10.3-3.6,14.6-6.8
		c4-3.1,6.5-7.7,5.3-12.9s-4.8-9.7-8-13.8c-3.7-4.9-8-9.6-10.8-15.2l-2.2,3.8c9.6-0.4,19-3.1,27.5-7.9c1.2-0.7,1.6-2.3,0.8-3.5
		c-0.1-0.2-0.2-0.3-0.3-0.4c-7.7-9.6-13.7-20.5-21.2-30.2c-7-9.1-15.6-17-26.3-21.3c-5.8-2.4-12.1-3.3-18.3-2.5l1.7,4.2
		c8.5-8.8,20.6-13.3,32.8-12.1c2.1,0.2,3.3-2.9,1.8-4.3C359.9,65,350,60.9,340,58.4c-10.9-2.6-22-3.7-33.2-3
		c-5.8,0.3-11.6,1.1-17.2,2.4l3.1,1.7c-4.8-11.5-13.8-20.8-25.1-26.1c-11.6-5.3-24.9-5.7-36.9-1.3c-6.9,2.5-13.2,6.6-18.4,11.9
		C210.1,46.3,213.6,49.9,215.8,47.6L215.8,47.6z"/>
</g>
</svg>
