<svg xmlns="http://www.w3.org/2000/svg" viewBox="0 0 447 415"><defs><style>.cls-1{fill:#fff;}.cls-2{fill:#48406a;}.cls-3{fill:#fb5e54;}.cls-4{fill:none;}</style></defs><title>me_1</title><g id="Layer_2" data-name="Layer 2"><circle class="cls-1" cx="223.5" cy="207.5" r="189.41"/><path class="cls-2" d="M426.68,240.15c-2.93-1.1-7.31-.54-10.43-1A61.42,61.42,0,0,1,404.16,236c-6.86-2.61-13.38-7-16.91-13.57-4.51-8.42-2.93-17.87-.44-26.65,2.87-10.08,4.85-19.59,1.62-29.86A35.47,35.47,0,0,0,373.61,146c-3.31-2.15-7.05-4-9.66-7-4-4.6-4.35-11.24-5.22-17-2.56-16.87-10-33.15-25-42.39-8.75-5.42-19.9-7.74-30.13-7.35-4.47.18-9.48.88-13.57,3C277.24,63.92,257.85,59,241.26,63.13a3.4,3.4,0,0,0-.34.12,32,32,0,0,0-20.41-9.91c-14.34-1.54-27.79,5.89-39.46,13.3a2.86,2.86,0,0,0-1.36,2c-15.34.78-29.07,10.24-37.45,22.91a2.92,2.92,0,0,0-.91.1A64.84,64.84,0,0,0,110,110c-8.51,9.25-9.42,22.58-17.72,31.71a3.09,3.09,0,0,0-.53.82,48.92,48.92,0,0,0-15.05,15.65c-5.88,9.77-7.06,20.74-7.29,31.92-.25,12.23.14,27-9.19,36.42a15.68,15.68,0,0,1-14.67,4.61c-4.74-1-9.35-4.08-9.89-9.23a3,3,0,0,0-5.59-1.51c-6.65,9.54-6.39,23.21,1.33,32.12a25.7,25.7,0,0,0,20.25,8.64A45.62,45.62,0,0,0,41.56,298c3,16.75,16,30.48,32.16,35.29a2.69,2.69,0,0,0,2.17-.19,23.09,23.09,0,0,0,8.85,1.75c2.83,0,3.65-3.17,2.12-5.12-4.89-6.2-4.77-15-.84-21.54.33,8.9,5.33,17.63,13.65,21.49,9.88,4.59,21.65,1.49,28.71-6.33,5,9.3,11.72,16.89,18.9,24.57s14.11,15.51,22.72,21.46c18.6,12.84,44.18,6.75,63.86-.52,22.61-8.35,43.34-22.48,58.75-41.09a33.87,33.87,0,0,0,6.47,1.54c18.63,2.54,35.82-9.66,45.2-25,5.86,3.57,13.64,2.76,19.38-1.23,6.73-4.67,9.44-12.64,10.73-20.49,14.4,8.08,33.47.53,36.74-17,.38-2-1.36-4.59-3.69-3.69a14.47,14.47,0,0,1-8.35.65,43,43,0,0,0,16.48-6.25,56.62,56.62,0,0,0,9.87-7.86c1.33-1.34,3.59-3.33,3.44-5.44A3.16,3.16,0,0,0,426.68,240.15Z"/><path class="cls-3" d="M241.54,230c-.42,4.48-.48,10.4,1.78,14.44,2.87,5.13,8,2.32,10.48-1.43a32.6,32.6,0,0,0,3.53-7.45c3.3-9.5,3.73-20.8-1.77-29.57C247.28,211.18,242.46,220.26,241.54,230Z"/><path class="cls-3" d="M173.77,229.07a32.6,32.6,0,0,0,3.53-7.45c3.3-9.5,3.73-20.81-1.77-29.57-8.28,5.21-13.1,14.29-14,24-.42,4.47-.48,10.4,1.78,14.44C166.16,235.63,171.24,232.82,173.77,229.07Z"/><path class="cls-2" d="M114.63,254.21c.34-12.54,2.62-24.58,5.9-36.67a195.14,195.14,0,0,0,4.63-19.24,114.48,114.48,0,0,0,1.14-13.07c-13.94,12.73-9.62,33.7-11.94,51.1-1.19,8.91-4.17,17.08-10.3,23.79-6.85,7.5-16,12.19-23.71,18.72C71.92,286,64.48,296.55,65,308.12c.42,8.63,6,17.09,14.07,19.83-4.45-11-.8-24.43,9.79-31,2.11-1.31,5.35.9,4.41,3.39-3.27,8.59-.18,19.12,8.2,23.6s18.87,1,23.94-6.54C116.74,298,114.07,275.18,114.63,254.21Z"/><path class="cls-3" d="M125.68,128.46c9.08-6.46,8.06-19.78,12.32-29.23l.16-.36c-10.17,3.5-19.8,9.56-26.26,18.19-4.59,6.13-6.54,13.57-9.81,20.34C110,134.62,118.82,133.35,125.68,128.46Z"/><path class="cls-2" d="M204.81,123.17c-5.77-8-14.37-14.14-24.63-12.4-5.87,1-11.2,5.23-12.58,11.17a24.57,24.57,0,0,0-.59,4.7C177.8,117.54,192.28,117.8,204.81,123.17Z"/><path class="cls-3" d="M368.61,279.18c-.11-10.27-1.48-18.47-10-24.9-5.22-3.92-11.12-7.11-14.95-12.58-4.41-6.29-3.61-13.86-2.42-21,1.63-9.8,3.91-19.57,3.9-29.55,0-8.52-1.85-17.4-7-24.37s-13.17-9.23-19.61-14.37c-12.65-10.08-10.65-27.9-19.31-40.43C288.53,96.52,268,91.85,251.47,100.29c-3.43,1.75-6.46-3.42-3-5.18a45.06,45.06,0,0,1,9.91-3.67,2.7,2.7,0,0,1,.54-1.55,29.82,29.82,0,0,1,19.45-12.46,26.13,26.13,0,0,1,4.39-.34C272,69.33,257.44,66,244.61,68.55a27.17,27.17,0,0,1,1.56,3.56c1.28,3.65-4.52,5.21-5.78,1.59-3.43-9.78-14.14-14.71-24-14.57-10.1.14-19.42,4.79-28,10,15.63,2.48,29.7,13.44,34.13,29,1.06,3.72-4.73,5.3-5.79,1.59-6.91-24.23-37.16-31.39-56.75-18a48.94,48.94,0,0,0-18.58,25.2c-3.08,9.56-3,19.47-11.7,26-7.9,5.93-18.1,7.13-27.09,10.65a42.73,42.73,0,0,0-23.13,22.17c-9.09,20.31,1.87,46-14.07,64a21.89,21.89,0,0,1-22,7,18.43,18.43,0,0,1-11.07-7.4,20.08,20.08,0,0,0,3.31,18.89c5.81,7,16.26,8.88,24.33,5a3,3,0,0,1,3,5.18c-12,8.86-18.51,24.7-15.42,39.42a39.49,39.49,0,0,0,15.13,23.34,30.93,30.93,0,0,1-2.35-5.33c-4-12.11,1.16-25.06,8.94-34.43s19-14.62,27.79-22.84,11.3-18.53,11.94-30.13c.58-10.48-.09-21.37,2.94-31.55,3.19-10.71,10.62-17.46,20.11-22.84,11.41-6.47,21.5-13.13,26.43-25.93,2.48-6.41,2.87-12.72,2.73-19.51-.12-5.49.4-10.51,3.71-15.08,6.33-8.74,18.09-10.88,27.88-7.3,9.57,3.49,16.75,11.53,21.11,20.55,11.28-10.94,25.4-22.41,41.86-14.77,16.94,7.85,20.83,31.09,18.92,47.73a3.46,3.46,0,0,1,.12.75c.39,8.75-2.59,19.67,2.31,27.57,3.66,5.89,10.44,9,14.78,14.29,10.91,13.4-2.67,29.25-6.28,42.73-2.4,8.95-3,17.89,1.11,26.35,2.8,5.78,6.58,11.57,6.53,18.24,0,5.39-3.23,11.24-8.62,12.88-3.85,1.18-7.14-.1-9.9-2.33,2.13,12.89,15.21,23.17,28.2,23.42,15.28.3,28.41-9.84,36.11-22.4a3.15,3.15,0,0,1,.39-1.05,26.11,26.11,0,0,0,2.56-22.11c-2.35-6.7-7.66-12-11.92-17.53-8.26-10.75-12.39-21.31-9.9-34.93,1.35-7.39,4-14.68,4-22.27a31.17,31.17,0,0,0-6.09-18.18c-4.27-5.81-10.69-8.36-15.89-13.06a26,26,0,0,1-8.09-15.52c-.56-3.78,5.22-5.4,5.79-1.59,1.38,9.24,7,13.16,14.19,18.15a37.17,37.17,0,0,1,11.92,13.48c6.68,13,3.08,25.39.32,38.89-1.77,8.65-1.14,16.29,3.39,24,3.65,6.2,8.62,11.44,12.83,17.24,7,9.62,8.75,21.42,4.3,32.11,4.59,3.23,11.18,1.74,15.12-2.17,4.36-4.32,5.95-10.63,6.75-16.62A2.88,2.88,0,0,1,368.61,279.18Z"/><path class="cls-3" d="M418.64,245.45c-2-.23-3.93-.52-5.88-.89a60.64,60.64,0,0,1-12.43-3.7c-6.64-2.82-12.73-7-16.82-13.06A32.19,32.19,0,0,1,378.38,208c.55-10.5,6-20.14,5.9-30.68s-5-20.41-13.7-26.11c-6.4-4.17-12.44-7.74-15.14-15.31-3.63-10.18-3.12-21.13-7.68-31.17A45.57,45.57,0,0,0,333,86.31c-8-5.74-18.31-8.17-28.1-8.07a32.87,32.87,0,0,0-9.32,1.27c2.75.93,5.45,2,8.11,3.14C311.64,86,319,90.36,323.4,98c4.12,7.23,5.32,15.63,6.24,23.77.44,3.84-5.57,3.8-6,0-.77-6.81-1.77-14-5.06-20.08-3.51-6.5-9.46-10.24-16.06-13.1s-13.91-6.07-21.17-5.55a23.25,23.25,0,0,0-15,7.18,42.48,42.48,0,0,1,34.34,13.93c5.51,6.15,8.53,13.37,10.72,21.23,2.59,9.34,4.72,18.4,13.32,24,7.16,4.7,14.3,7.81,19.25,15.16,4.55,6.77,6.6,15.06,7.07,23.12.58,10.06-1.46,20.09-3.22,29.94-.89,5-2.18,10.25-1.35,15.32.72,4.37,3.6,7.54,6.94,10.24,5.21,4.22,11.3,7.25,15.49,12.63,4.45,5.71,5.42,12.66,5.66,19.65a18.74,18.74,0,0,0,29.25-6.57c-9.78.81-19.61-5.94-21.75-15.85-.82-3.77,5-5.37,5.78-1.59a14.39,14.39,0,0,0,2.65,5.7,37.92,37.92,0,0,0,19.42-4.45,50.55,50.55,0,0,0,9.3-6.6c.24-.2.46-.42.69-.63C419.43,245.51,419,245.49,418.64,245.45ZM372.2,233.36c-13.07-7.2-9.29-23-7.77-35.12,1.84-14.55,1.4-32.22-12.06-41.34-3.18-2.16-.18-7.35,3-5.18,10.39,7,15.07,18.79,15.79,31,.46,7.72-.71,15.41-1.82,23-1.14,7.82-2.29,17.94,5.86,22.43C378.62,230.05,375.58,235.23,372.2,233.36Z"/><path class="cls-2" d="M244.9,127.9a35.52,35.52,0,0,1,20.28,2.43c-2.38-5.3-6-9.81-11.16-12.53-10.68-5.61-20.53-.25-28.84,6.77a104.14,104.14,0,0,1,20.13-4.43c2.6-.31,3.95,3.5,2.13,5.12A21.7,21.7,0,0,0,244.9,127.9Z"/><path class="cls-2" d="M175.47,280.55c-2.78-3.66-6.84-8.79-5.27-13.62,1.66-5.1,7.52-7.38,12.05-9.21,3.54-1.42,2-7.23-1.59-5.78-6.41,2.58-13.44,5.68-16,12.65s1.55,13.59,5.65,19C172.6,286.61,177.81,283.62,175.47,280.55Z"/><path class="cls-4" d="M175.47,280.55c-2.78-3.66-6.84-8.79-5.27-13.62,1.66-5.1,7.52-7.38,12.05-9.21,3.54-1.42,2-7.23-1.59-5.78-6.41,2.58-13.44,5.68-16,12.65s1.55,13.59,5.65,19C172.6,286.61,177.81,283.62,175.47,280.55Z"/><path class="cls-4" d="M185.34,213.48c1.46-11.38-1.47-24.26-10.93-31.59-13.14-10.16-27.6,2.1-34.53,13.61-2,3.32,3.19,6.34,5.18,3,3.14-5.21,7.46-10.32,13-13.08,5.05-2.51,9.83-1.28,13.57,2-8.78,5.82-14.22,15.38-15.79,25.8-1.27,8.45-.93,26,11.09,26.3C179.18,239.85,184.12,223.05,185.34,213.48Z"/><path class="cls-4" d="M254.44,195.8c-13.14-10.16-27.6,2.1-34.53,13.61-2,3.32,3.19,6.34,5.18,3,3.14-5.21,7.46-10.32,13-13.07,5.05-2.52,9.83-1.28,13.57,1.94-8.78,5.82-14.22,15.38-15.79,25.81-1.27,8.44-.93,26,11.09,26.29,12.24.35,17.18-16.45,18.4-26C266.83,216,263.9,203.13,254.44,195.8Z"/><path class="cls-1" d="M274.44,291c2.21,3.12,6.27,8.49,10.44,4.69,2.6-2.38,2.74-6.08,2-9.29-1.31-5.87-5.2-10.87-7.31-16.46-4.69-12.48-.34-27.35,4.93-38.93,3.12-6.86,8.39-15.35,4.19-22.85-2.79-5-8.4-8-12.42-11.83-9.89-9.5-7.12-21.93-7.37-34.2a2.6,2.6,0,0,1-.26-1.59,66.59,66.59,0,0,0-.8-21.84,30,30,0,0,0-28.2-3.07c-2.09.82-4.42-1.65-3.69-3.69a27.61,27.61,0,0,1,2.1-4.61,94.43,94.43,0,0,0-21.84,7.23,3,3,0,0,1-2.2.18,2.47,2.47,0,0,1-2-.51c-12.89-9.42-31.46-13.67-43.61-.61a2.77,2.77,0,0,1-1.32.83,36.53,36.53,0,0,1-.37,6.46,48.57,48.57,0,0,1-12.38,25c-6.2,6.64-14.25,10.17-21.78,14.82-.37,5.48-.42,11-1.18,16.42a162.62,162.62,0,0,1-4.56,20.21c-3.66,13.4-6.2,26.58-6.24,40.53-.06,21.86,3.19,45.53,14.21,64.74,5.17,9,12.18,16.22,19.2,23.77,6.85,7.37,13.9,15.22,22.76,20.21,10.08,5.68,22.19,4.69,33.16,2.68a134.09,134.09,0,0,0,77-44c-11.93-6.53-20.06-19.59-18-33.61C269.38,288.87,273.14,289.13,274.44,291ZM155.85,213.2c1.57-10.42,7-20,15.79-25.8-3.74-3.23-8.52-4.46-13.57-2-5.55,2.76-9.87,7.87-13,13.08-2,3.31-7.17.29-5.18-3,6.93-11.51,21.39-23.77,34.53-13.61,9.46,7.33,12.39,20.21,10.93,31.59-1.22,9.57-6.16,26.37-18.4,26C154.92,239.16,154.58,221.65,155.85,213.2Zm8.79,51.39c2.58-7,9.61-10.07,16-12.65,3.58-1.45,5.13,4.36,1.59,5.78-4.53,1.83-10.39,4.11-12.05,9.21-1.57,4.83,2.49,10,5.27,13.62,2.34,3.07-2.87,6.06-5.18,3C166.19,278.18,162.07,271.52,164.64,264.59Zm100.73-37.2c-1.22,9.57-6.16,26.37-18.4,26-12-.33-12.36-17.85-11.09-26.29,1.57-10.43,7-20,15.79-25.81-3.74-3.22-8.52-4.46-13.57-1.94-5.55,2.75-9.87,7.86-13,13.07-2,3.31-7.17.29-5.18-3,6.93-11.51,21.39-23.77,34.53-13.61C263.9,203.13,266.83,216,265.37,227.39Z"/><path class="cls-2" d="M185.34,213.48c1.46-11.38-1.47-24.26-10.93-31.59-13.14-10.16-27.6,2.1-34.53,13.61-2,3.32,3.19,6.34,5.18,3,3.14-5.21,7.46-10.32,13-13.08,5.05-2.51,9.83-1.28,13.57,2-8.78,5.82-14.22,15.38-15.79,25.8-1.27,8.45-.93,26,11.09,26.3C179.18,239.85,184.12,223.05,185.34,213.48Zm-22.05,17c-2.26-4-2.2-10-1.78-14.44.92-9.72,5.74-18.8,14-24,5.5,8.76,5.07,20.07,1.77,29.57a32.6,32.6,0,0,1-3.53,7.45C171.24,232.82,166.16,235.63,163.29,230.5Z"/><path class="cls-2" d="M254.44,195.8c-13.14-10.16-27.6,2.1-34.53,13.61-2,3.32,3.19,6.34,5.18,3,3.14-5.21,7.46-10.32,13-13.07,5.05-2.52,9.83-1.28,13.57,1.94-8.78,5.82-14.22,15.38-15.79,25.81-1.27,8.44-.93,26,11.09,26.29,12.24.35,17.18-16.45,18.4-26C266.83,216,263.9,203.13,254.44,195.8Zm2.89,39.73A32.6,32.6,0,0,1,253.8,243c-2.53,3.75-7.61,6.56-10.48,1.43-2.26-4-2.2-10-1.78-14.44.92-9.71,5.74-18.79,14-24C261.06,214.73,260.63,226,257.33,235.53Z"/><path class="cls-2" d="M426.68,240.15c-2.93-1.1-7.31-.54-10.43-1A61.42,61.42,0,0,1,404.16,236c-6.86-2.61-13.38-7-16.91-13.57-4.51-8.42-2.93-17.87-.44-26.65,2.87-10.08,4.85-19.59,1.62-29.86A35.47,35.47,0,0,0,373.61,146c-3.31-2.15-7.05-4-9.66-7-4-4.6-4.35-11.24-5.22-17-2.56-16.87-10-33.15-25-42.39-8.75-5.42-19.9-7.74-30.13-7.35-4.47.18-9.48.88-13.57,3C277.24,63.92,257.85,59,241.26,63.13a3.4,3.4,0,0,0-.34.12,32,32,0,0,0-20.41-9.91c-14.34-1.54-27.79,5.89-39.46,13.3a2.86,2.86,0,0,0-1.36,2c-15.34.78-29.07,10.24-37.45,22.91a2.92,2.92,0,0,0-.91.1A64.84,64.84,0,0,0,110,110c-8.51,9.25-9.42,22.58-17.72,31.71a3.09,3.09,0,0,0-.53.82,48.92,48.92,0,0,0-15.05,15.65c-5.88,9.77-7.06,20.74-7.29,31.92-.25,12.23.14,27-9.19,36.42a15.68,15.68,0,0,1-14.67,4.61c-4.74-1-9.35-4.08-9.89-9.23a3,3,0,0,0-5.59-1.51c-6.65,9.54-6.39,23.21,1.33,32.12a25.7,25.7,0,0,0,20.25,8.64A45.62,45.62,0,0,0,41.56,298c3,16.75,16,30.48,32.16,35.29a2.69,2.69,0,0,0,2.17-.19,23.09,23.09,0,0,0,8.85,1.75c2.83,0,3.65-3.17,2.12-5.12-4.89-6.2-4.77-15-.84-21.54.33,8.9,5.33,17.63,13.65,21.49,9.88,4.59,21.65,1.49,28.71-6.33,5,9.3,11.72,16.89,18.9,24.57s14.11,15.51,22.72,21.46c18.6,12.84,44.18,6.75,63.86-.52,22.61-8.35,43.34-22.48,58.75-41.09a33.87,33.87,0,0,0,6.47,1.54c18.63,2.54,35.82-9.66,45.2-25,5.86,3.57,13.64,2.76,19.38-1.23,6.73-4.67,9.44-12.64,10.73-20.49,14.4,8.08,33.47.53,36.74-17,.38-2-1.36-4.59-3.69-3.69a14.47,14.47,0,0,1-8.35.65,43,43,0,0,0,16.48-6.25,56.62,56.62,0,0,0,9.87-7.86c1.33-1.34,3.59-3.33,3.44-5.44A3.16,3.16,0,0,0,426.68,240.15ZM111.9,117.06c6.46-8.63,16.09-14.69,26.26-18.19l-.16.36c-4.26,9.45-3.24,22.77-12.32,29.23-6.86,4.89-15.68,6.16-23.59,8.94C105.36,130.63,107.31,123.19,111.9,117.06ZM101.51,323.94c-8.38-4.48-11.47-15-8.2-23.6.94-2.49-2.3-4.7-4.41-3.39-10.59,6.57-14.24,20-9.79,31C71,325.21,65.46,316.75,65,308.12c-.56-11.57,6.88-22.1,15.31-29.28,7.67-6.53,16.86-11.22,23.71-18.72,6.13-6.71,9.11-14.88,10.3-23.79,2.32-17.4-2-38.37,11.94-51.1a114.48,114.48,0,0,1-1.14,13.07,195.14,195.14,0,0,1-4.63,19.24c-3.28,12.09-5.56,24.13-5.9,36.67-.56,21,2.11,43.76,10.82,63.19C120.38,324.9,109.75,328.35,101.51,323.94Zm138.2,36.15a133.31,133.31,0,0,1-29.8,9.16c-11,2-23.08,3-33.16-2.68-8.86-5-15.91-12.84-22.76-20.21-7-7.55-14-14.76-19.2-23.77-11-19.21-14.27-42.88-14.21-64.74,0-14,2.58-27.13,6.24-40.53a162.62,162.62,0,0,0,4.56-20.21c.76-5.45.81-10.94,1.18-16.42,7.53-4.65,15.58-8.18,21.78-14.82a48.57,48.57,0,0,0,12.38-25,36.53,36.53,0,0,0,.37-6.46,2.77,2.77,0,0,0,1.32-.83c12.15-13.06,30.72-8.81,43.61.61a2.47,2.47,0,0,0,2,.51,3,3,0,0,0,2.2-.18,94.43,94.43,0,0,1,21.84-7.23,27.61,27.61,0,0,0-2.1,4.61c-.73,2,1.6,4.51,3.69,3.69a30,30,0,0,1,28.2,3.07,66.59,66.59,0,0,1,.8,21.84,2.6,2.6,0,0,0,.26,1.59c.25,12.27-2.52,24.7,7.37,34.2,4,3.87,9.63,6.85,12.42,11.83,4.2,7.5-1.07,16-4.19,22.85-5.27,11.58-9.62,26.45-4.93,38.93,2.11,5.59,6,10.59,7.31,16.46.71,3.21.57,6.91-2,9.29-4.17,3.8-8.23-1.57-10.44-4.69-1.3-1.83-5.06-2.09-5.48.72-2.1,14,6,27.08,18,33.61A133.63,133.63,0,0,1,239.71,360.09Zm5.6-239.95a104.14,104.14,0,0,0-20.13,4.43c8.31-7,18.16-12.38,28.84-6.77,5.2,2.72,8.78,7.23,11.16,12.53a35.52,35.52,0,0,0-20.28-2.43,21.7,21.7,0,0,1,2.54-2.64C249.26,123.64,247.91,119.83,245.31,120.14Zm-78.3,6.5a24.57,24.57,0,0,1,.59-4.7c1.38-5.94,6.71-10.18,12.58-11.17,10.26-1.74,18.86,4.42,24.63,12.4C192.28,117.8,177.8,117.54,167,126.64ZM362,296.7c-3.94,3.91-10.53,5.4-15.12,2.17,4.45-10.69,2.67-22.49-4.3-32.11-4.21-5.8-9.18-11-12.83-17.24-4.53-7.7-5.16-15.34-3.39-24,2.76-13.5,6.36-25.88-.32-38.89a37.17,37.17,0,0,0-11.92-13.48c-7.16-5-12.81-8.91-14.19-18.15-.57-3.81-6.35-2.19-5.79,1.59a26,26,0,0,0,8.09,15.52c5.2,4.7,11.62,7.25,15.89,13.06a31.17,31.17,0,0,1,6.09,18.18c0,7.59-2.62,14.88-4,22.27-2.49,13.62,1.64,24.18,9.9,34.93,4.26,5.53,9.57,10.83,11.92,17.53a26.11,26.11,0,0,1-2.56,22.11,3.15,3.15,0,0,0-.39,1.05c-7.7,12.56-20.83,22.7-36.11,22.4-13-.25-26.07-10.53-28.2-23.42,2.76,2.23,6.05,3.51,9.9,2.33,5.39-1.64,8.59-7.49,8.62-12.88.05-6.67-3.73-12.46-6.53-18.24-4.08-8.46-3.51-17.4-1.11-26.35,3.61-13.48,17.19-29.33,6.28-42.73-4.34-5.33-11.12-8.4-14.78-14.29-4.9-7.9-1.92-18.82-2.31-27.57a3.46,3.46,0,0,0-.12-.75c1.91-16.64-2-39.88-18.92-47.73-16.46-7.64-30.58,3.83-41.86,14.77-4.36-9-11.54-17.06-21.11-20.55-9.79-3.58-21.55-1.44-27.88,7.3-3.31,4.57-3.83,9.59-3.71,15.08.14,6.79-.25,13.1-2.73,19.51-4.93,12.8-15,19.46-26.43,25.93-9.49,5.38-16.92,12.13-20.11,22.84-3,10.18-2.36,21.07-2.94,31.55-.64,11.6-3.15,22-11.94,30.13s-20,13.44-27.79,22.84-12.93,22.32-8.94,34.43a30.93,30.93,0,0,0,2.35,5.33,39.49,39.49,0,0,1-15.13-23.34C44.53,283.12,51,267.28,63,258.42a3,3,0,0,0-3-5.18c-8.07,3.86-18.52,2-24.33-5a20.08,20.08,0,0,1-3.31-18.89,18.43,18.43,0,0,0,11.07,7.4,21.89,21.89,0,0,0,22-7c15.94-18,5-43.67,14.07-64a42.73,42.73,0,0,1,23.13-22.17c9-3.52,19.19-4.72,27.09-10.65,8.74-6.55,8.62-16.46,11.7-26A48.94,48.94,0,0,1,160,81.67c19.59-13.4,49.84-6.24,56.75,18,1.06,3.71,6.85,2.13,5.79-1.59-4.43-15.52-18.5-26.48-34.13-29,8.54-5.19,17.86-9.84,28-10,9.86-.14,20.57,4.79,24,14.57,1.26,3.62,7.06,2.06,5.78-1.59a27.17,27.17,0,0,0-1.56-3.56c12.83-2.58,27.42.78,38.13,8.54a26.13,26.13,0,0,0-4.39.34A29.82,29.82,0,0,0,258.9,89.89a2.7,2.7,0,0,0-.54,1.55,45.06,45.06,0,0,0-9.91,3.67c-3.44,1.76-.41,6.93,3,5.18,16.54-8.44,37.06-3.77,47.71,11.65,8.66,12.53,6.66,30.35,19.31,40.43,6.44,5.14,14.55,7.53,19.61,14.37s7,15.85,7,24.37c0,10-2.27,19.75-3.9,29.55-1.19,7.18-2,14.75,2.42,21,3.83,5.47,9.73,8.66,14.95,12.58,8.56,6.43,9.93,14.63,10,24.9a2.88,2.88,0,0,0,.15.9C368,286.07,366.37,292.38,362,296.7Zm47.87-43.95a37.92,37.92,0,0,1-19.42,4.45,14.39,14.39,0,0,1-2.65-5.7c-.81-3.78-6.6-2.18-5.78,1.59,2.14,9.91,12,16.66,21.75,15.85a18.74,18.74,0,0,1-29.25,6.57c-.24-7-1.21-13.94-5.66-19.65-4.19-5.38-10.28-8.41-15.49-12.63-3.34-2.7-6.22-5.87-6.94-10.24-.83-5.07.46-10.34,1.35-15.32,1.76-9.85,3.8-19.88,3.22-29.94-.47-8.06-2.52-16.35-7.07-23.12-4.95-7.35-12.09-10.46-19.25-15.16-8.6-5.64-10.73-14.7-13.32-24-2.19-7.86-5.21-15.08-10.72-21.23a42.48,42.48,0,0,0-34.34-13.93,23.25,23.25,0,0,1,15-7.18c7.26-.52,14.65,2.72,21.17,5.55s12.55,6.6,16.06,13.1c3.29,6.12,4.29,13.27,5.06,20.08.43,3.8,6.44,3.84,6,0-.92-8.14-2.12-16.54-6.24-23.77C319,90.36,311.64,86,303.72,82.65c-2.66-1.11-5.36-2.21-8.11-3.14a32.87,32.87,0,0,1,9.32-1.27c9.79-.1,20.07,2.33,28.1,8.07a45.57,45.57,0,0,1,14.73,18.41c4.56,10,4.05,21,7.68,31.17,2.7,7.57,8.74,11.14,15.14,15.31,8.74,5.7,13.57,15.7,13.7,26.11s-5.35,20.18-5.9,30.68a32.19,32.19,0,0,0,5.13,19.81c4.09,6,10.18,10.24,16.82,13.06a60.64,60.64,0,0,0,12.43,3.7c1.95.37,3.91.66,5.88.89.37,0,.79.06,1.23.07-.23.21-.45.43-.69.63A50.55,50.55,0,0,1,409.88,252.75Z"/><path class="cls-2" d="M375.23,228.18c-8.15-4.49-7-14.61-5.86-22.43,1.11-7.62,2.28-15.31,1.82-23-.72-12.21-5.4-24-15.79-31-3.21-2.17-6.21,3-3,5.18,13.46,9.12,13.9,26.79,12.06,41.34-1.52,12.08-5.3,27.92,7.77,35.12C375.58,235.23,378.62,230.05,375.23,228.18Z"/><path class="cls-1" d="M229.82,313c0-.16.07-.32.11-.48l0-.12C229.91,312.63,229.87,312.83,229.82,313Z"/><path class="cls-1" d="M173.85,317.62c.09.21.18.43.28.64C174,318.05,173.94,317.83,173.85,317.62Z"/><path class="cls-1" d="M191,333.53l-.57-.2Z"/><path class="cls-1" d="M192.54,334l-.51-.15Z"/><path class="cls-1" d="M172.53,311.69a.52.52,0,0,0,.06-.15h0s0,0-.06.15Z"/><path class="cls-1" d="M189.35,332.93l-.54-.22Z"/><path class="cls-1" d="M180,326.72l.21.2c-.25-.24-.49-.49-.73-.75C179.67,326.35,179.84,326.54,180,326.72Z"/><path class="cls-1" d="M174.49,319l.42.82Z"/><path class="cls-1" d="M230.44,309.52c0-.06,0-.12,0-.18l-.06.54C230.41,309.76,230.43,309.64,230.44,309.52Z"/><path class="cls-1" d="M177.39,323.72c.08.1.14.2.22.29s.32.39.48.59C177.86,324.31,177.62,324,177.39,323.72Z"/><path class="cls-1" d="M178.41,325l.71.79Z"/><path class="cls-1" d="M229.39,303.08l.22,0-.22,0Z"/><path class="cls-1" d="M230.15,311.51c0-.22.08-.43.11-.64C230.23,311.08,230.19,311.29,230.15,311.51Z"/><path class="cls-1" d="M185.93,331.25l-.62-.38Z"/><path class="cls-1" d="M229.8,303.05h0Z"/><path class="cls-1" d="M175.73,321.3c-.19-.31-.37-.63-.54-.95.12.23.24.45.37.67a25.12,25.12,0,0,0,1.7,2.51A25.88,25.88,0,0,1,175.73,321.3Z"/><path class="cls-1" d="M187.59,332.13l-.48-.24Z"/><path class="cls-1" d="M182,328.48c-.48-.39-.94-.8-1.39-1.23C181,327.68,181.5,328.09,182,328.48Z"/><path class="cls-1" d="M183.22,329.46c-.23-.17-.46-.34-.68-.52C182.76,329.12,183,329.29,183.22,329.46Z"/><path class="cls-1" d="M184.55,330.39l-.67-.46Z"/><path class="cls-2" d="M169.11,308.37a6.16,6.16,0,0,1,.8-.53A6.16,6.16,0,0,0,169.11,308.37Z"/><path class="cls-2" d="M171.23,323.43a31.67,31.67,0,0,1-1.89-3.6A31.67,31.67,0,0,0,171.23,323.43Z"/><path class="cls-2" d="M230.09,298.15a1.67,1.67,0,0,1,.32.08A1.67,1.67,0,0,0,230.09,298.15Z"/><path class="cls-2" d="M213.18,337.39a35.52,35.52,0,0,1-4.17,1.34A35.52,35.52,0,0,0,213.18,337.39Z"/><path class="cls-2" d="M222.69,332a38.51,38.51,0,0,1-3.62,2.47A38.51,38.51,0,0,0,222.69,332Z"/><path class="cls-2" d="M206.88,339.22a35.06,35.06,0,0,1-4.32.6A35.06,35.06,0,0,0,206.88,339.22Z"/><path class="cls-2" d="M189.48,338.35a30.39,30.39,0,0,1-4.22-1.73A30.39,30.39,0,0,0,189.48,338.35Z"/><path class="cls-2" d="M183.25,335.53a32.79,32.79,0,0,1-5.5-4.08A32.79,32.79,0,0,0,183.25,335.53Z"/><path class="cls-2" d="M176.12,329.84c-.89-.95-1.76-2-2.59-3C174.36,327.87,175.23,328.89,176.12,329.84Z"/><path class="cls-2" d="M231.42,301.87l0,0Z"/><path class="cls-2" d="M172.11,312.34Z"/><path class="cls-2" d="M172.24,312.19h0l-.06.05h0l0,.05h0a0,0,0,0,0,0,0h0l.06,0A.88.88,0,0,1,172.24,312.19Z"/><path class="cls-2" d="M230.14,303.06l-.07-.05.07.05Z"/><path class="cls-2" d="M172.12,312.31h0Z"/><path class="cls-2" d="M231.61,301.46l0,.09Z"/><path class="cls-2" d="M172.23,312.28l0,0,.3-.17v-.35a.24.24,0,0,1,0-.09,0,0,0,0,0,0,0s-.18.28-.28.47h0C172.31,312.13,172.36,312.11,172.23,312.28Z"/><polygon class="cls-2" points="172.24 312.19 172.24 312.19 172.24 312.19 172.24 312.19"/><path class="cls-2" d="M231.79,300.56a1.1,1.1,0,0,1,0,.18A1.1,1.1,0,0,0,231.79,300.56Z"/><path class="cls-2" d="M231.27,298.88l.15.19Z"/><path class="cls-2" d="M231.51,299.25a2,2,0,0,1,.1.21A2,2,0,0,0,231.51,299.25Z"/><path class="cls-2" d="M231.73,301a.89.89,0,0,1,0,.14A.89.89,0,0,0,231.73,301Z"/><path class="cls-2" d="M231,298.56a1,1,0,0,1,.19.17A1.54,1.54,0,0,0,231,298.56Z"/><path class="cls-2" d="M230.57,298.31l.25.13Z"/><path class="cls-2" d="M231.77,300.1a1.48,1.48,0,0,1,0,.21A1.48,1.48,0,0,0,231.77,300.1Z"/><path class="cls-2" d="M231.68,299.66a1.6,1.6,0,0,1,0,.21A1.6,1.6,0,0,0,231.68,299.66Z"/><polygon class="cls-2" points="172.53 311.69 172.53 311.69 172.53 311.69 172.53 311.69 172.53 311.69"/><path class="cls-2" d="M172.8,312Z"/><path class="cls-2" d="M172.17,312.25h0Z"/><path class="cls-2" d="M181.88,304.83c-.74.16-1.49.32-2.24.45l-.26.05.26-.05C180.39,305.15,181.14,305,181.88,304.83Z"/><path class="cls-2" d="M169.11,308.37a5.91,5.91,0,0,0-.52.48,4,4,0,0,0-.89,1.59,4,4,0,0,1,.89-1.59A5.91,5.91,0,0,1,169.11,308.37Z"/><path class="cls-2" d="M229.39,298.08h0a267.75,267.75,0,0,0-42.21,5.55l-.35.08.35-.08A267.75,267.75,0,0,1,229.39,298.08Z"/><path class="cls-2" d="M229.61,303.06H230a.08.08,0,0,0,0-.05,3.17,3.17,0,0,1-.55.08h0Z"/><path class="cls-2" d="M172.24,312.19a.88.88,0,0,0-.07.13h0l0,0h0l0,0C172.36,312.11,172.31,312.13,172.24,312.19Z"/><polygon class="cls-2" points="172.82 311.98 172.82 311.98 172.82 311.98 172.82 311.98"/><path class="cls-2" d="M229.9,302.9a.42.42,0,0,1,0,.1l.07,0Z"/><path class="cls-2" d="M173,311.9l-.11.05,0,0h0Z"/><path class="cls-2" d="M172.17,312.32s0,0,0,0l0,0Z"/><path class="cls-2" d="M172.81,312h0Z"/><path class="cls-2" d="M173,311.9l-.12.05.11-.05Z"/><path class="cls-2" d="M229.94,303a.08.08,0,0,1,0,.05h.18l-.07-.05-.06,0h0Z"/><polygon class="cls-2" points="230.01 302.97 230.01 302.97 230.01 302.97 230.01 302.97"/><path class="cls-2" d="M229.39,303.08a3.17,3.17,0,0,0,.55-.08.42.42,0,0,0,0-.1l.11.07h0a2.3,2.3,0,0,0,1.38-1.08l0,0a1.87,1.87,0,0,0,.15-.32l0-.09c0-.1.06-.2.09-.3a.89.89,0,0,0,0-.14c0-.1,0-.19,0-.28a1.1,1.1,0,0,0,0-.18,2.09,2.09,0,0,0,0-.25,1.48,1.48,0,0,0,0-.21,2.23,2.23,0,0,0,0-.23,1.6,1.6,0,0,0,0-.21c0-.07-.05-.13-.07-.2a2,2,0,0,0-.1-.21l-.09-.18-.15-.19a1.58,1.58,0,0,0-.12-.15,1,1,0,0,0-.19-.17l-.14-.12-.25-.13-.16-.08a1.67,1.67,0,0,0-.32-.08l-.15,0a2.51,2.51,0,0,0-.55,0C226.18,298.21,226.16,303.21,229.39,303.08Z"/><path class="cls-2" d="M230.39,309.88c0-.12,0-.24.05-.36,0,.12,0,.24-.05.36Z"/><path class="cls-2" d="M229.93,312.55l0-.12h0Z"/><path class="cls-2" d="M229.39,298.08a2.51,2.51,0,0,1,.55,0,2.51,2.51,0,0,0-.55,0Z"/><path class="cls-2" d="M230.15,311.51h0c0-.22.08-.43.11-.64h0C230.23,311.08,230.19,311.29,230.15,311.51Z"/><path class="cls-2" d="M172.59,311.54Z"/><path class="cls-2" d="M230,303.05h0Z"/><path class="cls-2" d="M169.91,307.84a9.42,9.42,0,0,1,1.74-.78A9.42,9.42,0,0,0,169.91,307.84Z"/><path class="cls-2" d="M235.52,307.48a25.75,25.75,0,0,1-.22,3.51A25.75,25.75,0,0,0,235.52,307.48Z"/><path class="cls-2" d="M229.39,303.08h0a261.49,261.49,0,0,0-31.46,3.54,261.49,261.49,0,0,1,31.46-3.54Z"/><path class="cls-2" d="M178.41,325h0c.23.27.47.53.71.79h0Z"/><path class="cls-2" d="M230,303.05a5.63,5.63,0,0,1,.27,1.24A5.63,5.63,0,0,0,230,303.05Z"/><path class="cls-2" d="M227.7,318.51a26,26,0,0,0,1.67-3.93c.13-.41.24-.81.35-1.22-.1.41-.22.81-.35,1.22A26,26,0,0,1,227.7,318.51Z"/><path class="cls-2" d="M235.52,307.48c0-.78-.06-1.57-.14-2.34C235.46,305.91,235.51,306.7,235.52,307.48Z"/><path class="cls-2" d="M173,315.44c.07.23.14.45.22.67h0C173.19,315.89,173.11,315.67,173,315.44Z"/><path class="cls-2" d="M229.82,313c0-.16.07-.32.11-.48,0,.16-.07.32-.11.48Z"/><path class="cls-2" d="M173.85,317.62h0c.1.21.2.43.29.64h0C174,318.05,173.94,317.83,173.85,317.62Z"/><path class="cls-2" d="M174.41,311.46l-1.28.4-.15.05.15-.05Z"/><path class="cls-2" d="M179.5,326.17c.17.18.34.37.52.55-.18-.18-.35-.37-.52-.55Z"/><path class="cls-2" d="M174.49,319h0c.14.27.28.55.43.82h0Z"/><path class="cls-2" d="M231.51,298.3a6.77,6.77,0,0,0-2.12-.22h0A6.77,6.77,0,0,1,231.51,298.3Z"/><path class="cls-2" d="M181.88,304.83c1.65-.36,3.3-.76,5-1.12C185.18,304.07,183.53,304.47,181.88,304.83Z"/><path class="cls-2" d="M177.39,323.72c.08.1.14.2.22.29-.08-.09-.14-.19-.22-.29Z"/><path class="cls-2" d="M177.61,324c.15.2.32.39.49.59h0C177.93,324.4,177.76,324.21,177.61,324Z"/><path class="cls-2" d="M172.59,311.54s0,0-.06.15h0C172.55,311.59,172.58,311.54,172.59,311.54Z"/><path class="cls-2" d="M172.59,311.54a.52.52,0,0,1-.06.15A.43.43,0,0,0,172.59,311.54Z"/><path class="cls-2" d="M172.77,312l-.17.08-.06,0,.06,0Z"/><path class="cls-2" d="M173,315.44c-.14-.45-.27-.91-.37-1.37C172.77,314.53,172.9,315,173,315.44Z"/><polygon class="cls-2" points="172.82 311.97 172.82 311.98 172.82 311.98 172.82 311.97"/><path class="cls-2" d="M182.63,309.78c1.1-.24,2.19-.5,3.29-.75C184.82,309.28,183.73,309.54,182.63,309.78Z"/><path class="cls-2" d="M172.51,312.67c0-.18,0-.36,0-.54C172.51,312.31,172.5,312.49,172.51,312.67Z"/><path class="cls-2" d="M175.56,321a26.47,26.47,0,0,0,1.7,2.52h0A25.12,25.12,0,0,1,175.56,321Z"/><path class="cls-2" d="M175.19,320.35c.12.23.24.45.37.67-.13-.22-.25-.44-.37-.67Z"/><path class="cls-2" d="M173.69,306.47c1.88-.48,3.79-.8,5.69-1.14C177.48,305.67,175.57,306,173.69,306.47Z"/><path class="cls-2" d="M231.78,300.31a2.09,2.09,0,0,1,0,.25A2,2,0,0,0,231.78,300.31Z"/><path class="cls-2" d="M231.7,301.16c0,.1,0,.2-.09.3C231.65,301.36,231.67,301.26,231.7,301.16Z"/><path class="cls-2" d="M231.77,300.74c0,.09,0,.18,0,.28C231.75,300.92,231.76,300.83,231.77,300.74Z"/><path class="cls-2" d="M230.82,298.44l.14.12Z"/><path class="cls-2" d="M231.61,299.46c0,.07,0,.13.07.2S231.63,299.53,231.61,299.46Z"/><path class="cls-2" d="M230.14,303.06Z"/><path class="cls-2" d="M231.42,299.07l.09.18Z"/><path class="cls-2" d="M231.15,298.73a1.58,1.58,0,0,1,.12.15A1.58,1.58,0,0,0,231.15,298.73Z"/><path class="cls-2" d="M230.41,298.23l.16.08Z"/><path class="cls-2" d="M231.57,301.55a1.87,1.87,0,0,1-.15.32A1.87,1.87,0,0,0,231.57,301.55Z"/><path class="cls-2" d="M231.73,299.87a2.23,2.23,0,0,1,0,.23A2.23,2.23,0,0,0,231.73,299.87Z"/><path class="cls-2" d="M172.11,312.34a0,0,0,0,1,0,0A0,0,0,0,0,172.11,312.34Z"/><path class="cls-2" d="M172.18,312.24l.06-.05Z"/><polygon class="cls-2" points="172.53 311.69 172.53 311.69 172.53 311.69 172.53 311.69"/><path class="cls-2" d="M172.8,312h0Z"/><path class="cls-2" d="M172.51,311.78a.24.24,0,0,1,0-.09h0A.24.24,0,0,0,172.51,311.78Z"/><path class="cls-2" d="M229.94,298.11l.15,0A.42.42,0,0,0,229.94,298.11Z"/><path class="cls-2" d="M172.13,312.3l0-.05Z"/><path class="cls-2" d="M172.11,312.34l.06,0h0Z"/><path class="cls-2" d="M172.52,311.72a0,0,0,0,1,0,0h0s0,0,0,0-.18.28-.28.47h0C172.34,312,172.52,311.71,172.52,311.72Z"/><path class="cls-2" d="M172.82,312l.16-.07h0l-.15.07Z"/><path class="cls-2" d="M172.51,312.13v0Z"/><polygon class="cls-2" points="172.82 311.98 172.82 311.98 172.82 311.98 172.82 311.98 172.82 311.98"/><path class="cls-2" d="M172.83,312l0,0Z"/><path class="cls-2" d="M229.39,298.08h0c-3.21.13-3.23,5.13,0,5h0C226.16,303.21,226.18,298.21,229.39,298.08Z"/><path class="cls-2" d="M172.82,312h0Z"/><polygon class="cls-2" points="172.17 312.32 172.17 312.32 172.17 312.32 172.17 312.32 172.17 312.32"/><path class="cls-2" d="M230,303a2.3,2.3,0,0,0,1.38-1.08A2.3,2.3,0,0,1,230,303Z"/><path class="cls-2" d="M230.07,303l-.06,0h0Z"/><polygon class="cls-2" points="172.21 312.3 172.21 312.3 172.21 312.3 172.21 312.3 172.21 312.3"/><polygon class="cls-2" points="229.96 303.05 229.97 303.05 229.96 303.05 229.96 303.05"/><path class="cls-2" d="M172.17,312.32h0s0,0,0,0h0C172.17,312.35,172.16,312.36,172.17,312.32Z"/><path class="cls-2" d="M234.22,300.38a4.27,4.27,0,0,0-2.71-2.08,6.77,6.77,0,0,0-2.12-.22,2.51,2.51,0,0,1,.55,0,.42.42,0,0,1,.15,0,1.67,1.67,0,0,1,.32.08l.16.08.25.13.14.12a1.54,1.54,0,0,1,.19.17,1.58,1.58,0,0,1,.12.15l.15.19.09.18a2,2,0,0,1,.1.21c0,.07,0,.13.07.2a1.6,1.6,0,0,1,0,.21,2.23,2.23,0,0,1,0,.23,1.48,1.48,0,0,1,0,.21,2,2,0,0,1,0,.25,1.1,1.1,0,0,1,0,.18c0,.09,0,.18,0,.28a.89.89,0,0,1,0,.14c0,.1,0,.2-.09.3l0,.09a1.87,1.87,0,0,1-.15.32l0,0A2.3,2.3,0,0,1,230,303h0l.06,0,.07.05H230a5.63,5.63,0,0,1,.27,1.24h0a17.75,17.75,0,0,1,.29,3.49c0,.52,0,1-.07,1.55,0,.06,0,.12,0,.18s0,.24-.05.36c0,.33-.08.66-.13,1s-.07.42-.11.64-.12.61-.19.92l0,.12c0,.16-.07.32-.11.48h0c0,.11-.07.22-.1.33-.11.41-.22.81-.35,1.22a26,26,0,0,1-1.67,3.93,28.87,28.87,0,0,1-2.59,4.07,29.82,29.82,0,0,1-2.38,2.76c-.42.43-.86.85-1.31,1.26a30.68,30.68,0,0,1-5.93,4.26,33.45,33.45,0,0,1-6.8,2.83,34.71,34.71,0,0,1-3.6.83c-.61.1-1.21.19-1.82.26a32.22,32.22,0,0,1-3.67.19,29.29,29.29,0,0,1-5.45-.56c-.54-.11-1.08-.25-1.61-.39l-.51-.15-1.08-.34-.57-.2-1-.4-.54-.22c-.41-.18-.82-.38-1.22-.58l-.48-.24-1.18-.64-.62-.38-.76-.48-.67-.46-.66-.47c-.23-.17-.46-.34-.68-.52l-.56-.46c-.48-.39-.94-.8-1.39-1.23l-.36-.33-.21-.2c-.18-.18-.35-.37-.52-.55s-.26-.26-.38-.4-.48-.52-.71-.79l-.31-.38c-.17-.2-.34-.39-.49-.59s-.14-.19-.22-.29l-.13-.18a26.47,26.47,0,0,1-1.7-2.52c-.13-.22-.25-.44-.37-.67s-.19-.32-.27-.49-.29-.55-.43-.82l-.36-.78c-.09-.21-.19-.43-.29-.64-.2-.5-.4-1-.58-1.5h0c-.08-.22-.15-.44-.22-.67-.14-.45-.27-.91-.37-1.37q-.07-.35-.12-.69a5.74,5.74,0,0,1,0-.71c0-.18,0-.36,0-.54h0l-.3.17c0,.05-.05.06,0,0l-.06,0h0a0,0,0,0,1,0,0h0l0-.05h0l.06-.05h0c.1-.19.28-.48.28-.47s0,0,0,0,.05-.16.06-.15h0a.43.43,0,0,1-.06.15h0a.24.24,0,0,0,0,.09v.35l0,0,.06,0,.17-.08,0,0h0l0,0,.12-.05h0l-.16.07h0l.16-.06.15-.05,1.28-.4,1.3-.34c1.74-.4,3.51-.7,5.26-1,.56-.1,1.11-.21,1.66-.33,1.1-.24,2.19-.5,3.29-.75l1.65-.37q5.16-1.12,10.36-2a261.49,261.49,0,0,1,31.46-3.54c-3.23.13-3.21-4.87,0-5a267.75,267.75,0,0,0-42.21,5.55l-.35.08c-1.65.36-3.3.76-5,1.12-.74.16-1.49.32-2.24.45l-.26.05c-1.9.34-3.81.66-5.69,1.14-.65.17-1.35.35-2,.59a9.42,9.42,0,0,0-1.74.78,6.16,6.16,0,0,0-.8.53,5.91,5.91,0,0,0-.52.48,4,4,0,0,0-.89,1.59,11,11,0,0,0,.32,5.62,24.81,24.81,0,0,0,1.32,3.77,31.67,31.67,0,0,0,1.89,3.6,35.72,35.72,0,0,0,2.3,3.37c.83,1.07,1.7,2.09,2.59,3,.53.55,1.07,1.09,1.63,1.61a32.79,32.79,0,0,0,5.5,4.08c.65.39,1.32.75,2,1.09a30.39,30.39,0,0,0,4.22,1.73c.73.23,1.46.44,2.2.62a34.7,34.7,0,0,0,10.88.85,35.06,35.06,0,0,0,4.32-.6c.72-.14,1.43-.3,2.13-.49a35.52,35.52,0,0,0,4.17-1.34,38,38,0,0,0,9.51-5.35c.58-.45,1.14-.91,1.69-1.39a33,33,0,0,0,10.25-16.21,28.41,28.41,0,0,0,.67-3.45,25.75,25.75,0,0,0,.22-3.51c0-.78-.06-1.57-.14-2.34A13,13,0,0,0,234.22,300.38Z"/><path class="cls-2" d="M172.21,312.3h0l.3-.17h0Z"/><path class="cls-1" d="M229.8,303.05h-.19l-.22,0a261.49,261.49,0,0,0-31.46,3.54q-5.2.92-10.36,2l-1.65.37c-1.1.25-2.19.51-3.29.75-.55.12-1.1.23-1.66.33-1.75.31-3.52.61-5.26,1l-1.3.34-1.28.4-.15.05-.16.06h0l0,0-.17.08-.06,0,0,0h0c0,.18,0,.36,0,.54a5.74,5.74,0,0,0,0,.71q0,.35.12.69c.1.46.23.92.37,1.37.07.23.15.45.22.67.18.51.38,1,.59,1.51.09.21.18.43.28.64l.36.78.42.82c.09.17.19.33.28.49.17.32.35.64.54.95L229.82,313h0c.05-.2.09-.4.14-.6s.14-.62.19-.92.08-.43.11-.64.1-.66.13-1l.06-.54c0-.52.07-1,.07-1.55a17.75,17.75,0,0,0-.29-3.49h0a5.63,5.63,0,0,0-.27-1.24h-.16Z"/><path class="cls-1" d="M230.26,310.87h0c.05-.33.1-.66.13-1h0C230.36,310.21,230.31,310.54,230.26,310.87Z"/><path class="cls-1" d="M230,312.43h0c.07-.31.14-.62.19-.92h0C230.1,311.81,230,312.12,230,312.43Z"/><polygon class="cls-1" points="229.96 303.05 229.96 303.05 229.96 303.05 229.96 303.05 229.96 303.05"/><polygon class="cls-1" points="229.96 303.05 229.96 303.05 229.96 303.05 229.96 303.05"/><path class="cls-1" d="M230.52,307.79a17.75,17.75,0,0,0-.29-3.49h0A17.75,17.75,0,0,1,230.52,307.79Z"/><path class="cls-1" d="M175.71,311.12c1.74-.4,3.51-.7,5.26-1C179.22,310.42,177.45,310.72,175.71,311.12Z"/><path class="cls-1" d="M172.82,312l.16-.06Z"/><path class="cls-1" d="M230,303.05Z"/><path class="cls-1" d="M172.54,312.11l0,0h0Z"/><path class="cls-1" d="M172.55,313.38a5.74,5.74,0,0,1,0-.71A5.74,5.74,0,0,0,172.55,313.38Z"/><path class="cls-1" d="M229.64,303.06h0Z"/><path class="cls-1" d="M172.82,312l0,0,0,0Z"/><polygon class="cls-1" points="229.82 313.03 229.82 313.03 229.82 313.03 229.82 313.03 229.82 313.03"/><path class="cls-1" d="M173.26,316.11h0c.18.5.38,1,.58,1.5h0C173.64,317.12,173.44,316.62,173.26,316.11Z"/><path class="cls-1" d="M174.91,319.86h0c.08.17.18.33.27.49h0C175.1,320.19,175,320,174.91,319.86Z"/><path class="cls-1" d="M174.13,318.26h0l.36.78h0Z"/><path class="cls-1" d="M230.39,309.88c0,.33-.08.66-.13,1C230.31,310.54,230.36,310.21,230.39,309.88Z"/><path class="cls-1" d="M175.19,320.35c-.09-.16-.19-.32-.27-.49C175,320,175.1,320.19,175.19,320.35Z"/><path class="cls-1" d="M173.84,317.62c-.2-.5-.4-1-.58-1.5C173.44,316.62,173.64,317.12,173.84,317.62Z"/><path class="cls-1" d="M230.15,311.51c-.05.3-.12.61-.19.92C230,312.12,230.1,311.81,230.15,311.51Z"/><path class="cls-1" d="M230.52,307.79c0,.52,0,1-.07,1.55C230.49,308.82,230.52,308.31,230.52,307.79Z"/><path class="cls-1" d="M174.49,319l-.36-.78Z"/><path class="cls-3" d="M229.82,313l-54.09,8.27a25.88,25.88,0,0,0,1.53,2.23c0,.07.09.13.13.19.23.3.47.59.7.88.11.12.22.25.32.38l.71.79c.12.14.25.27.38.4s.48.51.73.75l.36.33c.45.43.91.84,1.39,1.23l.56.46c.22.18.45.35.68.52l.66.47.67.46.76.48.62.38c.39.22.78.44,1.18.64l.48.24c.4.2.81.4,1.22.58l.54.22,1,.4.57.2,1.08.34.51.15c.53.14,1.07.28,1.61.39a29.29,29.29,0,0,0,5.45.56,32.22,32.22,0,0,0,3.67-.19c.61-.07,1.21-.16,1.82-.26a34.71,34.71,0,0,0,3.6-.83,33.45,33.45,0,0,0,6.8-2.83,30.68,30.68,0,0,0,5.93-4.26c.45-.41.89-.83,1.31-1.26a29.82,29.82,0,0,0,2.38-2.76,28.87,28.87,0,0,0,2.59-4.07,26,26,0,0,0,1.67-3.93C229.54,314.06,229.69,313.55,229.82,313Z"/><path class="cls-3" d="M215.49,330.86a33.45,33.45,0,0,1-6.8,2.83A33.45,33.45,0,0,0,215.49,330.86Z"/><path class="cls-3" d="M227.7,318.51a28.87,28.87,0,0,1-2.59,4.07A28.87,28.87,0,0,0,227.7,318.51Z"/><path class="cls-3" d="M203.27,334.78a32.22,32.22,0,0,1-3.67.19A32.22,32.22,0,0,0,203.27,334.78Z"/><path class="cls-3" d="M225.11,322.58a29.82,29.82,0,0,1-2.38,2.76A29.82,29.82,0,0,0,225.11,322.58Z"/><path class="cls-3" d="M208.69,333.69a34.71,34.71,0,0,1-3.6.83A34.71,34.71,0,0,0,208.69,333.69Z"/><path class="cls-3" d="M178.09,324.6h0l.31.38h0C178.31,324.85,178.2,324.72,178.09,324.6Z"/><path class="cls-3" d="M229.82,313c-.13.52-.28,1-.45,1.55.13-.41.25-.81.35-1.22,0-.11.07-.22.1-.33Z"/><path class="cls-3" d="M177.26,323.53h0l.13.18h0C177.35,323.66,177.3,323.6,177.26,323.53Z"/><path class="cls-3" d="M179.12,325.77h0c.12.14.25.27.38.4h0C179.37,326,179.24,325.91,179.12,325.77Z"/><path class="cls-3" d="M188.81,332.71c-.41-.18-.82-.38-1.22-.58C188,332.33,188.4,332.53,188.81,332.71Z"/><path class="cls-3" d="M192,333.87l-1.08-.34Z"/><path class="cls-3" d="M190.38,333.33l-1-.4Z"/><path class="cls-3" d="M194.15,334.41c-.54-.11-1.08-.25-1.61-.39C193.07,334.16,193.61,334.3,194.15,334.41Z"/><path class="cls-3" d="M229.72,313.36c0-.11.07-.22.1-.33h0C229.79,313.14,229.75,313.25,229.72,313.36Z"/><path class="cls-3" d="M187.11,331.89c-.4-.2-.79-.42-1.18-.64Z"/><path class="cls-3" d="M180.59,327.25l-.36-.33Z"/><path class="cls-3" d="M185.31,330.87l-.76-.48Z"/><path class="cls-3" d="M183.88,329.93l-.66-.47Z"/><path class="cls-3" d="M182.54,328.94l-.56-.46Z"/><path class="cls-3" d="M179.5,326.17c-.13-.13-.26-.26-.38-.4C179.24,325.91,179.37,326,179.5,326.17Z"/><path class="cls-3" d="M177.39,323.72l-.13-.18Z"/><path class="cls-3" d="M178.41,325l-.31-.38Z"/><path class="cls-4" d="M234.22,300.38a4.27,4.27,0,0,0-2.71-2.08,6.77,6.77,0,0,0-2.12-.22h0a267.75,267.75,0,0,0-42.21,5.55l-.35.08c-1.65.36-3.3.76-5,1.12-.74.16-1.49.32-2.24.45l-.26.05c-1.9.34-3.81.66-5.69,1.14-.65.17-1.35.35-2,.59a9.42,9.42,0,0,0-1.74.78,6.16,6.16,0,0,0-.8.53,5.91,5.91,0,0,0-.52.48,4,4,0,0,0-.89,1.59,11,11,0,0,0,.32,5.62,24.81,24.81,0,0,0,1.32,3.77,31.67,31.67,0,0,0,1.89,3.6,35.72,35.72,0,0,0,2.3,3.37c.83,1.07,1.7,2.09,2.59,3,.53.55,1.07,1.09,1.63,1.61a32.79,32.79,0,0,0,5.5,4.08c.65.39,1.32.75,2,1.09a30.39,30.39,0,0,0,4.22,1.73c.73.23,1.46.44,2.2.62a34.7,34.7,0,0,0,10.88.85,35.06,35.06,0,0,0,4.32-.6c.72-.14,1.43-.3,2.13-.49a35.52,35.52,0,0,0,4.17-1.34,38,38,0,0,0,9.51-5.35c.58-.45,1.14-.91,1.69-1.39a33,33,0,0,0,10.25-16.21,28.41,28.41,0,0,0,.67-3.45,25.75,25.75,0,0,0,.22-3.51c0-.78-.06-1.57-.14-2.34A13,13,0,0,0,234.22,300.38Z"/></g></svg>