<?xml version="1.0" encoding="utf-8"?>
<!-- Generator: Adobe Illustrator 23.1.0, SVG Export Plug-In . SVG Version: 6.00 Build 0)  -->
<svg version="1.1" id="Layer_1" xmlns="http://www.w3.org/2000/svg" xmlns:xlink="http://www.w3.org/1999/xlink" x="0px" y="0px"
	 viewBox="0 0 225.7 224.8" style="enable-background:new 0 0 225.7 224.8;" xml:space="preserve">
<style type="text/css">
	.st0{fill:#FD5F57;}
</style>
<path class="st0" d="M168.7,85c0-26.5,0.1-53-0.1-79.4c0-4.4,1.2-5.7,5.6-5.6c15.3,0.3,30.6,0.3,46,0c4.5-0.1,5.5,1.4,5.5,5.7
	c-0.2,28.5,0,57,0,85.4c-0.1,33.1-21.7,64.5-52.3,76.8c-4.1,1.6-4.6,0.4-4.6-3.4C168.8,138,168.7,111.5,168.7,85z"/>
<path class="st0" d="M140.7,100.5c0,17.8,1.3,35.7-0.3,53.4c-2.9,33.5-21.4,56.4-51.7,70.2c-3.3,1.5-4.3,0.7-4.3-2.9
	c0.1-53.5,0.1-106.9,0-160.4c0-3.6,1.3-4.5,4.7-4.5c15.8,0.1,31.6,0.1,47.5,0c3.6,0,4.5,1.4,4.4,4.7c-0.1,13.2-0.1,26.3-0.1,39.5
	C140.9,100.5,140.8,100.5,140.7,100.5z"/>
<path class="st0" d="M56.7,184c0,12.3-0.1,24.6,0.1,37c0.1,3.9-1,4.6-4.8,4.2c-26-2.9-47.9-24.8-51.3-51.7
	c-1.2-9.6-0.4-19.3-0.7-28.9c-0.1-2.5,0.8-3.6,3.4-3.5c16.6,0.1,33.3,0.1,49.9,0c3.3,0,3.3,1.7,3.3,4.1C56.7,158,56.7,171,56.7,184z
	"/>
</svg>
