<svg xmlns="http://www.w3.org/2000/svg" viewBox="0 0 90.26 122.72"><defs><style>.a{fill:#eda18c;}.b{fill:#e05a6c;}.c{fill:#f8cb6f;}</style></defs><title>baloon</title><path class="a" d="M90,50.11C88.74,63,79.81,76.61,70.16,87.23S50,105.42,43.65,105.3C38.44,105.14,28.4,97,18.92,85.93S.7,60.87.07,47.9C-1.4,22,19.27-.68,46.24,0S92.74,24.36,90,50.11Z"/><path class="b" d="M84.47,49.5c-1.14,12.93-9,26.72-17.52,37.48s-17.77,18.42-23.3,18.31C39.08,105.16,30.3,97,22,85.85S6.14,60.54,5.63,47.57C4.41,21.69,22.6-.59,46.24,0S87,23.72,84.47,49.5Z"/><path class="a" d="M75.06,48.62c-.94,12.95-7,27-13.57,38S47.85,105.39,43.65,105.3c-3.48-.1-10.1-8.28-16.33-19.54S15.38,60.12,15.08,47.14C14.3,21.23,28.26-.45,46.24,0S77.1,22.77,75.06,48.62Z"/><path class="b" d="M65.29,47.89c-1.73,25.85-16.23,57.47-21.64,57.41-4.42-.19-18.31-32.52-18.79-58.41C24.55,21,34.12-.3,46.24,0S66.88,22,65.29,47.89Z"/><path class="a" d="M52.09,47.2c-1,25.93-6.56,58.13-8.44,58.1-1.53,0-5.83-32.5-5.58-58.44S42-.1,46.24,0,53.06,21.27,52.09,47.2Z"/><path class="c" d="M50.49,106l.07-2.91-13.69-.34-.07,2.91h.27L38.2,115l-.63,0,0,1.49h.59a13.24,13.24,0,0,0,.19,6l9.81.24a13.22,13.22,0,0,0,.49-6h.55l0-1.49-.63,0L50.27,106Zm-9.87,9-.84-9.29,6.83.17-1.08,9.25ZM39.1,105.7l.84,9.29-1,0-1.16-9.3Zm8.8,9.49-1.7,0,1.08-9.25,2.29.06Z"/></svg>