<svg xmlns="http://www.w3.org/2000/svg" viewBox="0 0 101.38 86.95"><defs><style>.a{fill:#dcf1ff;}.b{fill:#fff;}.c{fill:#eda18c;}.d{fill:#e05a6c;}.e{fill:#f8cb6f;}</style></defs><title>Ativo 2</title><path class="a" d="M17.43,6.82C14,8.06,11,10,9.92,14.29c-.56,2.15-.5,4.49-1.53,6.46C6.6,24.15,2,25.49.52,29-1.17,32.9,1.6,37.15,4.05,40.61s4.72,8.22,2.23,11.66c-1,1.39-2.62,2.22-3.82,3.45-3,3-3,8-1,11.78s5.46,6.4,9,8.62A74.37,74.37,0,0,0,52.37,86.89c13.18-.52,31.54-4.71,41.79-13.54,6.24-5.37,10.69-14.81,3.55-21.73-2.08-2-5.09-3.68-5.36-6.57-.23-2.49,1.73-4.56,3.37-6.46,2.41-2.79,4.43-6.12,4.69-9.8.4-5.65-3.39-10.76-7.66-14.47C81.61,4.62,64.62.62,50.2.2A53.86,53.86,0,0,0,28.08,3.79C24.86,5.1,20.88,5.6,17.43,6.82Z"/><path class="b" d="M84.68,76.21c2.68-.16,4.79-2,4.79-4.16s-1.85-3.76-4.27-4.1a3,3,0,0,0-3.1-2.24,3.72,3.72,0,0,0-.7.07,7.89,7.89,0,0,0-15.4,1l-.49,0a4.5,4.5,0,0,0-4.57,3.19c-2,.14-3.58,1.5-3.58,3.16s1.76,3.17,3.93,3.16h.49l22.68,0h.23Z"/><path class="b" d="M18.4,65.94a2.86,2.86,0,0,0,2.93-2.55,2.78,2.78,0,0,0-2.62-2.51,1.84,1.84,0,0,0-1.9-1.37,2.28,2.28,0,0,0-.43,0A4.77,4.77,0,0,0,11.72,56,4.74,4.74,0,0,0,7,60.15h-.3a2.76,2.76,0,0,0-2.8,2A2.16,2.16,0,0,0,1.66,64,2.21,2.21,0,0,0,4.07,66H18.4Z"/><path class="b" d="M97.44,39a2.22,2.22,0,0,0,2.28-2,2.16,2.16,0,0,0-2-2A1.43,1.43,0,0,0,96.21,34a1.77,1.77,0,0,0-.33,0,3.75,3.75,0,0,0-7.32.47h-.23A2.14,2.14,0,0,0,86.14,36a1.68,1.68,0,0,0-1.7,1.5A1.72,1.72,0,0,0,86.31,39H97.44Z"/><path class="a" d="M29.7,16.15c2.36-.14,4.21-1.73,4.21-3.66s-1.62-3.31-3.76-3.61a2.64,2.64,0,0,0-2.73-2,3.28,3.28,0,0,0-.61.06,6.94,6.94,0,0,0-13.54.87l-.43,0a4,4,0,0,0-4,2.8A3.1,3.1,0,0,0,5.67,13.4c0,1.54,1.55,2.78,3.46,2.78h.43l19.95,0h.2Z"/><path class="c" d="M80.23,32.43c-.81,8.36-6.59,17.14-12.84,24S54.32,68.21,50.24,68.13c-3.37-.1-9.87-5.39-16-12.53S22.46,39.39,22.05,31a29.21,29.21,0,1,1,58.18,1.43Z"/><path class="d" d="M76.65,32c-.74,8.37-5.83,17.29-11.33,24.25S53.82,68.2,50.24,68.13c-3-.09-8.64-5.38-14-12.58S26,39.17,25.64,30.78C24.85,14,36.62-.37,51.92,0S78.26,15.36,76.65,32Z"/><path class="c" d="M70.56,31.46C69.95,39.84,66,49,61.78,56S53,68.19,50.24,68.13c-2.25-.06-6.54-5.36-10.57-12.64S32,38.9,31.75,30.51C31.25,13.74,40.29-.28,51.92,0S71.88,14.74,70.56,31.46Z"/><path class="d" d="M64.24,31c-1.12,16.72-10.5,37.18-14,37.14C47.39,68,38.4,47.1,38.09,30.35S44.08-.19,51.92,0,65.27,14.24,64.24,31Z"/><path class="c" d="M55.7,30.55C55,47.32,51.46,68.16,50.24,68.13c-1,0-3.77-21-3.61-37.81S49.2-.06,51.92,0,56.33,13.77,55.7,30.55Z"/><path class="e" d="M54.66,68.57l0-1.88-8.86-.22,0,1.88H46l.74,6h-.41l0,1h.38a8.56,8.56,0,0,0,.13,3.91l6.35.16a8.55,8.55,0,0,0,.32-3.89h.36l0-1h-.41l1.09-6Zm-6.38,5.84-.54-6,4.42.11-.7,6Zm-1-6,.54,6-.67,0-.75-6ZM53,74.53l-1.1,0,.7-6,1.48,0Z"/><path class="b" d="M39.85,38.94q0-4.67,0-9.35c0-.27,0-.55,0-.82.09-1.44.93-1.95,2.22-1.29s2.38,1.3,3.58,2l15,8.16c.58.31,1.2.72,1,1.44a2.42,2.42,0,0,1-1,1.35c-6,3.32-12,6.6-18,9.88l-.32.18c-1.46.72-2.43.11-2.43-1.53q0-3.72,0-7.44c0-.85,0-1.69,0-2.54Z"/></svg>