<svg xmlns="http://www.w3.org/2000/svg" viewBox="0 0 98.66 98.82"><defs><style>.a{fill:#fce5e0;}.b{fill:#490100;}.c{fill:#e05a6c;}.d{fill:#cc1a02;}.e{fill:#598cbd;}.f{fill:#f8cb6f;}.g{fill:#492d00;}.h{fill:#cc8e02;}</style></defs><title>Ativo 1</title><path class="a" d="M29.38,6a28.7,28.7,0,0,0-2.24,2c-3.33,3.34-5.84,7.53-9.69,10.24C15,20,12.15,21,9.71,22.75,1.23,28.72.15,41.33,3.89,51c1.88,4.86,4.79,9.77,3.86,14.9-.65,3.56-3.13,6.9-2.44,10.46S9.46,82,12.79,83.21c10.92,4,23.11,2.12,34.44,4.69,4.12.93,8.09,2.44,12.23,3.25A38.1,38.1,0,0,0,94.95,78.88c2.61-3,4.8-7.25,3.14-10.88s-6.57-5.2-7.56-9.07c-1-4,2.8-7.5,4.78-11.18,3.79-7.06.62-15.88-4-22.46C79.37,8.07,48.59-9.56,29.38,6Z"/><path class="b" d="M85.78,17.05c-1.54-4.79-4.26-6.63-4.26-6.63l1.79.13a25.66,25.66,0,0,1,2.78,6.32Z"/><path class="c" d="M85.89,16.63a50.76,50.76,0,0,1,10.39,1.84,27.16,27.16,0,0,0-4.17,1.89s3.42,4.27,4.62,7.86a39.72,39.72,0,0,0-5-1.33s.32,5.55-1,7.33c0,0-3.84-4.47-4.7-6.22,0,0-3.24,2.21-4.42,4.52,0,0-.23-6.6.84-9.51,0,0-4.48,1.32-5.46,2.33A18.1,18.1,0,0,1,85.89,16.63Z"/><path class="d" d="M85.89,16.63A38.48,38.48,0,0,1,89.58,28.4S86.51,19.4,85.89,16.63Z"/><path class="d" d="M87.14,19.22a8,8,0,0,1,.94-.4l.47-.16.54-.15.58-.13.61-.1.61-.06.59,0H92l.5,0c.31,0,.56.06.74.09l.28.05H92l-.55,0-.58,0-.6.07-.6.09-.58.1-.54.11-.48.11Z"/><path class="d" d="M88.24,22.7s.42.09,1,.27l.49.16.54.19.57.23.58.25.57.28.54.29.5.29.43.27c.27.17.48.33.63.44l.23.18-.26-.13-.68-.35-.45-.23-.51-.25-.55-.26L91.32,24l-.57-.26-.55-.25-.52-.23-.47-.2Z"/><path class="d" d="M88.13,23.11l-.86.84-.41.41-.45.47-.47.51-.47.53-.46.54-.44.54-.4.51-.35.46-.52.7-.2.27.15-.29c.1-.19.25-.45.44-.76.09-.16.2-.32.32-.49s.24-.35.38-.53.27-.37.43-.55l.46-.55.49-.53.49-.5.48-.45.44-.38C87.73,23.39,88.13,23.11,88.13,23.11Z"/><path class="d" d="M86.82,18.58l-.35.13c-.22.08-.54.2-.91.35l-.59.26c-.21.09-.42.21-.65.32s-.45.23-.68.37-.46.27-.68.41-.45.29-.66.44l-.63.45-.57.44-.5.41c-.31.26-.56.49-.73.65l-.27.25.24-.29c.15-.18.38-.44.66-.72s.3-.3.48-.45.36-.31.56-.48.4-.32.63-.47.45-.3.67-.45.46-.28.7-.41.47-.24.7-.35.46-.21.67-.29l.62-.22a9.41,9.41,0,0,1,.94-.27Z"/><path class="d" d="M91.41,24a1.42,1.42,0,0,1,.16-.25l.09-.11.11-.11.12-.11.13-.11.14-.1.14-.09.14-.07.13-.05.2-.06.08,0-.05.06-.15.15-.1.09-.12.1-.13.1-.13.1-.13.1-.13.09-.13.08-.12.07A2.55,2.55,0,0,1,91.41,24Z"/><path class="d" d="M85.3,25.93a2.92,2.92,0,0,1,0,.29v.14s0,.1,0,.15v.67c0,.05,0,.11,0,.16v.14c0,.09,0,.16,0,.21v.08l0-.07a1.4,1.4,0,0,1-.09-.2l0-.14a1.47,1.47,0,0,1,0-.16,1.66,1.66,0,0,1,0-.17v-.53c0-.06,0-.11,0-.16s0-.1,0-.14A1.4,1.4,0,0,1,85.3,25.93Z"/><path class="d" d="M86.91,24.19l-.51,0h-.52l-.29,0-.3,0-.3,0-.29,0-.27,0-.25,0-.37,0h-.14l.13-.06.35-.12.24-.07.27-.07L85,24l.31,0,.31,0h.3l.28,0,.25,0A2.07,2.07,0,0,1,86.91,24.19Z"/><path class="d" d="M83.85,19.86a3.71,3.71,0,0,1-.06.42c0,.06,0,.13,0,.2s0,.14-.05.22l-.07.23-.07.24-.08.24-.09.23-.09.21-.09.18c-.05.11-.11.21-.14.27l-.06.1v-.12c0-.07,0-.18,0-.3l0-.2c0-.07,0-.14.06-.22s0-.15.07-.23l.08-.24.08-.24.09-.23.09-.21.09-.18A3.71,3.71,0,0,1,83.85,19.86Z"/><path class="d" d="M89.27,26.67l.34.05.16,0,.17,0,.19,0,.19.06.19.06.18.06.17.06.15.06.22.11.08,0H91l-.16,0-.18,0-.19,0-.19-.06L90,27.08,89.86,27l-.17-.08-.15-.08A1.79,1.79,0,0,1,89.27,26.67Z"/><path class="d" d="M89.25,27.14a3.59,3.59,0,0,1-.11.4l-.06.19-.08.21-.09.22-.1.22-.11.22-.11.21-.11.19-.1.17-.17.25-.07.09,0-.11c0-.07,0-.17.08-.29l.06-.19.08-.21.09-.22.1-.22.11-.22.11-.21.11-.19.1-.17A3.57,3.57,0,0,1,89.25,27.14Z"/><path class="d" d="M88.84,18.63s.17.1.42.27l.19.14.21.16.22.18.22.19.22.2.21.2.19.19.16.18.23.28.08.11-.12-.07-.3-.2-.19-.14-.21-.16L90.15,20l-.22-.19-.22-.2-.2-.2-.19-.19L89.16,19C89,18.79,88.84,18.63,88.84,18.63Z"/><path class="d" d="M90.7,18.27a.37.37,0,0,1,0-.11l0,0,0,0,0,0,0,0,0,0,0,0,0,0h.17v0a.34.34,0,0,1,0,.08l0,0,0,0,0,0,0,0,0,0,0,0,0,0h0A.37.37,0,0,1,90.7,18.27Z"/><path class="d" d="M89.75,23.22a3.08,3.08,0,0,1,.3.36l.13.18.13.21.13.23.12.25.11.25c0,.08.06.17.09.25s.05.16.07.24,0,.15.05.22a3.06,3.06,0,0,1,.06.33v.13l-.06-.11-.15-.3-.09-.2-.1-.22-.11-.24-.11-.25-.11-.25-.11-.24-.1-.22-.09-.2C89.82,23.4,89.75,23.22,89.75,23.22Z"/><path class="d" d="M85.47,19.09,85.19,19l-.13-.06-.15-.07-.15-.07-.16-.08-.16-.08-.15-.07-.15-.07L84,18.39l-.2-.1-.08,0H84l.15,0,.17,0,.17.06.17.08.16.09.15.1.13.11.11.1A1.35,1.35,0,0,1,85.47,19.09Z"/><path class="b" d="M72.72,88.2a6.19,6.19,0,0,0,2.47-2.86l.18.84a12.31,12.31,0,0,1-2.54,2.13Z"/><path class="c" d="M72.92,88.2a24.36,24.36,0,0,1,.56,5A13,13,0,0,0,72,91.56a15.44,15.44,0,0,1-3,3.19A19.06,19.06,0,0,0,69,92.28s-2.51.9-3.51.53a25.48,25.48,0,0,1,2.23-3A7.62,7.62,0,0,0,65,88.39a17.24,17.24,0,0,1,4.49-.9,10.15,10.15,0,0,0-1.81-2.2A8.68,8.68,0,0,1,72.92,88.2Z"/><path class="d" d="M72.92,88.2A18.47,18.47,0,0,1,68,91.48S71.73,88.85,72.92,88.2Z"/><path class="d" d="M71.9,89.12a3.85,3.85,0,0,1,.31.38l.14.2.14.23.14.25.13.27.11.27c0,.09.06.18.09.27s.05.17.07.26,0,.16.05.23,0,.27.06.35V92l0-.13-.1-.34-.07-.22L72.85,91l-.1-.26-.11-.27-.12-.26L72.4,90l-.12-.23-.12-.2Z"/><path class="d" d="M70.45,90.1s0,.2,0,.51c0,.08,0,.16,0,.25s0,.18,0,.27l0,.29,0,.3-.05.3c0,.1,0,.19-.06.29l-.06.27-.07.24c0,.15-.09.27-.12.35l-.05.13,0-.14.07-.36,0-.24,0-.27,0-.29,0-.3,0-.3,0-.29,0-.27,0-.24Z"/><path class="d" d="M70.24,90.1l-.5-.28-.25-.13-.28-.14-.3-.15-.31-.15-.31-.14L68,89l-.29-.12-.26-.1L67,88.62l-.15-.06.16,0,.41.1.27.08.3.1.31.12.32.14.31.15.3.16.27.16.24.15C70.06,90,70.24,90.1,70.24,90.1Z"/><path class="d" d="M72.15,88.89,72,88.74l-.29-.37-.2-.24-.23-.26-.26-.26-.28-.26-.29-.25-.29-.23-.28-.2-.26-.17-.4-.25-.15-.09.16.07c.1,0,.25.11.42.21l.27.16.29.19.3.22.3.25.28.27.26.27.22.27.19.25a4.52,4.52,0,0,1,.25.4Z"/><path class="d" d="M70.29,91.73l.14,0,.06,0,.07,0,.07,0,.07,0,.06.05.06.05.05.05,0,.05.06.09,0,0,0,0-.09,0-.06,0-.06,0-.06,0-.06,0-.06,0-.06,0-.06,0,0,0Z"/><path class="d" d="M68.56,89.18l-.13.06-.06,0-.07,0-.07,0-.08,0-.08,0-.08,0-.07,0-.07,0-.1,0h0l0,0,.08-.07.06,0,.07,0,.08,0,.08,0,.08,0,.08,0h.29Z"/><path class="d" d="M69.58,89.69s0-.1-.06-.24l0-.11,0-.12-.05-.13L69.34,89l-.06-.13-.06-.13-.05-.12,0-.11-.06-.17,0-.07,0,.05.11.15.07.1.07.12.07.13.06.14.05.14,0,.14s0,.09,0,.13a1.19,1.19,0,0,1,0,.12A1,1,0,0,1,69.58,89.69Z"/><path class="d" d="M71.16,87.69l-.2,0h-.88l-.14,0h0l.15,0H71Z"/><path class="d" d="M68.76,91.1s0,.07,0,.16,0,0,0,.08v.37s0,.06,0,.09,0,.06,0,.09V92s0,.09,0,.12v0l0,0a1,1,0,0,1,0-.12v-.08s0-.06,0-.09,0-.06,0-.09v-.28s0-.06,0-.09l0-.08A.86.86,0,0,1,68.76,91.1Z"/><path class="d" d="M68.54,91.16H68l-.12,0-.12,0-.11,0-.1,0-.09,0-.14,0-.05,0h.51l.12,0L68,91l.11,0,.1,0,.09,0Z"/><path class="d" d="M72.4,89.82s0,.09-.07.23l0,.11,0,.12-.05.13-.06.13-.06.13-.06.12-.06.11-.06.1-.1.14,0,.05,0-.06.05-.16,0-.11,0-.12.05-.13.06-.13.06-.13.06-.12.06-.11.06-.1C72.34,89.9,72.4,89.82,72.4,89.82Z"/><path class="d" d="M72.82,90.63H73l0,0,0,0v0l0,0v0h-.17l0,0,0,0v0A.18.18,0,0,1,72.82,90.63Z"/><path class="d" d="M70.41,90.86a1.48,1.48,0,0,1-.12.19l-.07.08-.08.09-.09.09-.1.09-.1.08-.1.08-.1.07-.09.05-.15.07-.06,0,0,0,.12-.11.08-.07.09-.08.1-.08.1-.08.1-.08.1-.08.09-.08.08-.07Z"/><path class="d" d="M71.73,88.33s0-.06,0-.15v-.62l0-.11v0l0,0a.64.64,0,0,1,0,.11.59.59,0,0,1,0,.07.7.7,0,0,1,0,.08.78.78,0,0,1,0,.09v.09l0,.09,0,.08,0,.08,0,.07A.65.65,0,0,1,71.73,88.33Z"/><path class="b" d="M18.74,36.09a4.76,4.76,0,0,0,2.8.77l-.52.4a9.46,9.46,0,0,1-2.32-1.05Z"/><path class="c" d="M18.81,36.23a18.72,18.72,0,0,1-3.31,2.05,10,10,0,0,0,.68-1.55,11.87,11.87,0,0,1-3.2-1,14.65,14.65,0,0,0,1.69-.86s-1.45-1.44-1.53-2.26a19.58,19.58,0,0,1,2.82.55,5.86,5.86,0,0,0,.1-2.33,13.25,13.25,0,0,1,2.11,2.82,7.8,7.8,0,0,0,.93-2A6.67,6.67,0,0,1,18.81,36.23Z"/><path class="d" d="M18.81,36.23A14.19,14.19,0,0,1,14.9,33.9S18,35.62,18.81,36.23Z"/><path class="d" d="M17.83,35.83a3,3,0,0,1-.16.34l-.09.16-.11.17-.13.18-.14.18L17,37l-.16.15-.15.14-.14.11-.23.16-.09.05.08-.07.2-.18.13-.12.14-.14L17,37l.15-.17.14-.17.13-.17.12-.16.1-.15Z"/><path class="d" d="M16.67,35.14s-.14.08-.35.18l-.17.08-.2.08-.21.08-.22.07-.22.06-.22.06-.21,0-.19,0-.28,0H14.3l.1,0,.27-.07.18,0,.2-.06.22-.06.22-.07.22-.07.21-.07.2-.07.18-.06Z"/><path class="d" d="M16.6,35l0-.44V34.1c0-.08,0-.17,0-.26s0-.18,0-.26,0-.18,0-.26v-.25l0-.24,0-.21,0-.32v-.12l0,.12c0,.08,0,.18.07.32s0,.14,0,.21,0,.16,0,.24,0,.17,0,.26,0,.18,0,.27,0,.18,0,.27,0,.17,0,.26,0,.16,0,.24,0,.15,0,.21C16.64,34.82,16.6,35,16.6,35Z"/><path class="d" d="M18.07,35.92l.06-.12.16-.32.1-.22.1-.25c0-.09.07-.18.1-.27s.06-.19.09-.28.05-.19.07-.28,0-.19.06-.28,0-.18,0-.26,0-.16,0-.24,0-.27,0-.36v0c0,.09,0,.21,0,.36s0,.16,0,.24,0,.18,0,.27,0,.19-.06.28,0,.19-.07.29-.06.19-.09.28-.07.18-.1.27l-.11.25-.11.21a3.47,3.47,0,0,1-.19.31Z"/><path class="d" d="M15.49,35.57a.52.52,0,0,1,0,.11s0,0,0,.05,0,0,0,.06V36l0,.06,0,.05,0,0,0,.07,0,0v0s0,0,0-.08v-.45A.94.94,0,0,1,15.49,35.57Z"/><path class="d" d="M16.68,33.53l-.08-.07,0,0,0,0,0,0,0,0,0,0,0,0,0,0,0,0,0-.06,0,0h0l.07,0,0,0,0,0,0,0,0,0,0,0,0,.05,0,0,0,0A.52.52,0,0,1,16.68,33.53Z"/><path class="d" d="M16.67,34.4l.15-.12.07-.06.07-.07.07-.08L17.1,34l.07-.08.07-.08.07-.08.06-.07.1-.1,0,0,0,0-.07.12,0,.08-.06.09-.07.09-.07.09-.08.08-.08.08-.08.06-.08.05A.76.76,0,0,1,16.67,34.4Z"/><path class="d" d="M18.57,34.84l-.09-.13,0-.07,0-.07,0-.08,0-.08,0-.08,0-.08,0-.08,0-.07,0-.11v0l0,0,.06.1,0,.07,0,.07,0,.08,0,.08,0,.09,0,.08,0,.08,0,.07A1.37,1.37,0,0,1,18.57,34.84Z"/><path class="d" d="M15.41,34.3l-.11.07-.05,0-.06,0-.06,0-.07,0-.07,0-.07,0-.06,0-.06,0-.09,0h0l0,0,.07-.06,0,0,.06,0,.06,0,.07,0,.07,0,.07,0,.06,0h.06Z"/><path class="d" d="M15.3,34.17a1.32,1.32,0,0,1-.07-.14l0-.07,0-.08,0-.08,0-.09,0-.09,0-.08,0-.08V33.4s0-.08,0-.11v0l0,0,0,.1,0,.07,0,.08,0,.08,0,.09,0,.09,0,.08,0,.08V34A1.32,1.32,0,0,1,15.3,34.17Z"/><path class="d" d="M17.51,36.41l-.18,0h-.8l-.13,0h0l.13,0h.8Z"/><path class="d" d="M17.09,37l0,0v.15l0,0h0l0,0v0a.08.08,0,0,1,0,0V37Z"/><path class="d" d="M16.13,35.37l-.17,0-.08,0-.09,0-.09,0-.09,0-.09,0-.09,0-.08,0-.07,0-.1-.08,0,0,0,0,.11,0,.08,0,.08,0,.09,0,.09,0,.09,0,.09,0,.08,0,.07,0Z"/><path class="d" d="M18.32,35.45l.11,0,.05,0,.06,0,.06,0,.06,0,.06,0,.06,0,.06,0h.05l.08,0h0l0,0-.07.05,0,0-.06,0-.06,0-.07,0-.07,0h-.19Z"/><circle class="e" cx="52.12" cy="46.58" r="27"/><circle class="f" cx="52.12" cy="46.58" r="17.46"/><rect class="e" x="45.13" y="11.81" width="13.98" height="4.93" rx="2" ry="2"/><rect class="c" x="50.06" y="32.79" width="4.12" height="15.51" rx="1.67" ry="1.67"/><rect class="c" x="54.01" y="40.56" width="4.12" height="12.03" rx="1.67" ry="1.67" transform="translate(102.65 -9.5) rotate(90)"/><path class="g" d="M29.24,83.83c8.26.78,12.8-2.15,12.8-2.15l-1.36,2.63a42.29,42.29,0,0,1-11.38.1Z"/><path class="f" d="M29.8,84.27S25,93.62,20.27,98.82c0,0,.3-6.16-.15-7.55,0,0-8.69,2.4-14.9,1.88,0,0,4.4-5,5.24-6.67,0,0-8.61-3.12-10.46-6.27,0,0,9.26-2.91,12.47-3.07,0,0-1.24-6.34-4-9.62,0,0,10.15,4,13.86,7.45,0,0,.92-7.64,0-9.78C22.39,65.19,29.92,73.11,29.8,84.27Z"/><path class="h" d="M29.8,84.27s-8.36.9-20.22-2.07C9.59,82.2,25.21,83.4,29.8,84.27Z"/><path class="h" d="M25.07,84.48s-.08.67-.24,1.66l-.14.8c0,.28-.12.58-.18.88s-.14.62-.22.94-.17.64-.25,1-.18.64-.29,1l-.3.91-.31.85-.3.75c-.19.47-.35.85-.47,1.12l-.18.43.26-.39c.16-.25.39-.61.62-1.06.12-.22.25-.47.37-.73s.25-.55.37-.84.24-.6.34-.92.2-.64.3-1,.17-.66.24-1,.13-.65.19-1S25,87.28,25,87s.06-.56.07-.82A13.23,13.23,0,0,0,25.07,84.48Z"/><path class="h" d="M19.09,83.88l-1.25,1.21-.61.58-.68.64-.74.68-.76.69-.77.68-.76.66-.71.6-.65.54-1,.8-.37.3.42-.23c.27-.15.64-.37,1.08-.67.22-.14.45-.31.7-.48l.76-.57c.26-.2.52-.41.78-.64l.79-.68.76-.71.71-.71c.23-.23.44-.47.64-.69l.56-.63C18.69,84.45,19.09,83.88,19.09,83.88Z"/><path class="h" d="M18.53,83.44s-.15-.78-.5-1.93c-.08-.29-.18-.59-.3-.92s-.23-.66-.37-1-.28-.71-.44-1.07-.33-.72-.49-1.08-.35-.71-.54-1.06-.38-.68-.56-1-.38-.63-.56-.92-.36-.56-.54-.8c-.34-.49-.64-.89-.86-1.16L13,72.07l.27.47L14,73.78l.47.83.51.94.53,1c.18.34.35.7.53,1.05s.34.71.5,1.07.32.7.47,1l.42,1,.36.89Z"/><path class="h" d="M26.25,84.4l.12-.6a15.52,15.52,0,0,0,.21-1.6c0-.33.05-.7.06-1.08s0-.79,0-1.21,0-.85-.08-1.29-.1-.88-.16-1.33-.15-.88-.25-1.31-.2-.85-.31-1.25-.23-.79-.36-1.15-.25-.7-.38-1c-.24-.62-.48-1.13-.66-1.47l-.28-.54.2.58c.13.37.31.89.5,1.52.1.32.2.66.3,1s.2.75.3,1.15.19.82.27,1.24.16.86.24,1.29.13.87.17,1.3.08.86.12,1.27.05.81.06,1.19,0,.74,0,1.07c0,.66,0,1.22-.05,1.6Z"/><path class="h" d="M15.11,87.86a4.2,4.2,0,0,0,0,.48l0,.22c0,.08,0,.16,0,.25l.05.26.06.27.07.27c0,.09,0,.17.07.26s0,.16.07.24l.07.22c0,.13.09.25.12.32l.06.12,0-.13a2.32,2.32,0,0,0,0-.35,2.11,2.11,0,0,0,0-.23,2.42,2.42,0,0,0,0-.26,2.75,2.75,0,0,0,0-.27l-.06-.28L15.69,89l-.09-.26c0-.08-.07-.16-.1-.24s-.07-.14-.11-.21A2.33,2.33,0,0,0,15.11,87.86Z"/><path class="h" d="M16.11,77.33a2.31,2.31,0,0,0-.36-.34l-.19-.14-.23-.14-.25-.13-.27-.12-.28-.1-.27-.07-.26,0-.24,0a2.29,2.29,0,0,0-.36,0l-.14,0,.12.07.32.16.21.1.24.1.25.1.26.1.26.1.26.09.24.08.22.07A4.83,4.83,0,0,0,16.11,77.33Z"/><path class="h" d="M17.69,80.9a3.41,3.41,0,0,0,.57-.64,4.07,4.07,0,0,0,.23-.35c.07-.13.15-.27.22-.42s.13-.3.2-.46.11-.32.16-.49.09-.33.13-.5.07-.33.1-.48.05-.31.07-.46,0-.28,0-.41,0-.47,0-.62v-.24l-.09.22c-.05.14-.13.34-.2.58l-.12.39-.13.44-.13.47c0,.16-.09.32-.14.48s-.09.32-.14.47-.1.31-.15.45l-.16.42c-.06.13-.1.26-.16.37C17.85,80.6,17.69,80.9,17.69,80.9Z"/><path class="h" d="M26.24,79.08a6.11,6.11,0,0,0-.43-.55l-.22-.25L25.32,78,25,77.73l-.3-.28-.31-.27-.31-.25-.3-.23-.27-.19c-.17-.12-.32-.21-.43-.27l-.17-.09.11.16c.07.1.18.24.32.39l.22.25.26.27.29.28.3.28.31.27.31.25.3.23.27.19A6.11,6.11,0,0,0,26.24,79.08Z"/><path class="h" d="M12.41,82.85a2.94,2.94,0,0,0-.47.31l-.21.17-.22.2-.23.23-.22.25-.21.26c-.07.08-.13.17-.19.26l-.17.25-.14.23a3.38,3.38,0,0,0-.18.37l-.05.15.12-.1.31-.26.19-.18.21-.21.21-.23.21-.25.21-.25.19-.25.18-.24.15-.22C12.3,83.05,12.41,82.85,12.41,82.85Z"/><path class="h" d="M11.71,82.53a5.89,5.89,0,0,0-.36-.58l-.19-.27-.22-.29-.24-.3-.26-.31-.27-.3L9.9,80.2l-.26-.25-.24-.22c-.15-.13-.29-.24-.39-.31l-.16-.11.09.17c.06.1.15.25.26.42l.19.27.22.29.25.3.26.3.27.3.27.28.26.25.24.22A5.9,5.9,0,0,0,11.71,82.53Z"/><path class="h" d="M24.86,87.44s-.32.07-.79.23l-.37.13-.41.16-.43.18-.44.2-.44.21-.42.21-.39.21-.34.2c-.21.13-.38.24-.5.32l-.18.13.22-.05.57-.17.37-.13.41-.16.43-.18.44-.2.44-.21.42-.22.39-.21.34-.2C24.6,87.64,24.86,87.44,24.86,87.44Z"/><path class="h" d="M24.21,90.48a.61.61,0,0,0-.06.18.47.47,0,0,0,0,.08.51.51,0,0,0,0,.09v.09l0,.09,0,.08a.36.36,0,0,0,0,.08l.05.07.06.05.11.07.06,0,0-.05a.56.56,0,0,0,0-.13.36.36,0,0,0,0-.08.34.34,0,0,0,0-.09.37.37,0,0,0,0-.09l0-.09,0-.08,0-.07-.06-.07-.06-.06A.61.61,0,0,0,24.21,90.48Z"/><path class="h" d="M17.32,85.83s-.31,0-.76,0H13.27l-.55,0-.21,0,.2.07a5,5,0,0,0,.54.13l.36.06.41,0,.44,0h.46l.45,0,.44,0,.41-.06.36-.07A5.08,5.08,0,0,0,17.32,85.83Z"/><path class="h" d="M26.36,82a2.22,2.22,0,0,0,.5-.14l.23-.1.25-.13.25-.17.24-.19.23-.21a2.66,2.66,0,0,0,.2-.22,2.39,2.39,0,0,0,.17-.22,2,2,0,0,0,.13-.21,2.2,2.2,0,0,0,.16-.34l0-.14-.12.09-.29.23-.18.16-.2.18-.21.19-.22.19-.22.19-.21.19-.2.17-.18.16C26.51,81.88,26.36,82,26.36,82Z"/><path class="g" d="M25,21.39A7.63,7.63,0,0,0,22,25l-.26-1a15.18,15.18,0,0,1,3-2.74Z"/><path class="f" d="M24.7,21.41a30,30,0,0,1-.91-6.18,16.07,16.07,0,0,0,1.84,2,19,19,0,0,1,3.55-4.06,23.51,23.51,0,0,0,.18,3s3.05-1.22,4.3-.81a31.42,31.42,0,0,1-2.62,3.8,9.4,9.4,0,0,0,3.36,1.64s-3.67,1.36-5.5,1.3a12.52,12.52,0,0,0,2.32,2.63A10.71,10.71,0,0,1,24.7,21.41Z"/><path class="h" d="M24.7,21.41a22.77,22.77,0,0,1,5.92-4.26S26.14,20.55,24.7,21.41Z"/><path class="h" d="M25.92,20.22l-.33-.5-.15-.25-.16-.28-.16-.3L25,18.57l-.15-.32-.14-.32-.12-.3-.1-.27-.14-.41-.05-.16,0,.17c0,.11,0,.25.08.43s0,.18.08.28.06.21.1.31.08.22.13.33l.15.33L25,19l.18.3.18.27.18.24A4.75,4.75,0,0,0,25.92,20.22Z"/><path class="h" d="M27.67,19l0-.62,0-.3,0-.33,0-.36,0-.37,0-.37,0-.36,0-.33,0-.3.07-.45,0-.17-.06.16c0,.1-.08.25-.13.44s0,.19-.07.3,0,.22-.07.33,0,.24-.06.36l0,.37,0,.37,0,.36c0,.12,0,.23,0,.34s0,.21,0,.3C27.64,18.71,27.67,19,27.67,19Z"/><path class="h" d="M27.93,18.95s.23.17.59.4l.3.18.34.18.37.18.39.17.4.16.39.14.37.11.33.09.51.11.19,0-.19-.06-.49-.16-.32-.11-.36-.13-.38-.15L30,19.92l-.39-.17-.37-.17-.35-.16-.31-.15Z"/><path class="h" d="M25.63,20.53l.11.19a5.57,5.57,0,0,0,.33.48l.24.3.29.32.33.33.36.32.38.29L28,23l.37.22.34.18c.21.11.4.19.53.24l.21.08-.19-.11-.5-.29-.33-.2-.36-.24-.37-.27-.37-.29L27,22l-.33-.31-.3-.31-.26-.28c-.16-.18-.28-.33-.37-.44Z"/><path class="h" d="M27.79,16.94l-.13-.12-.06-.05-.07-.06-.08-.06-.08-.06-.08-.06-.08-.05-.08,0-.07,0L27,16.35l0,0,0,0,.07.1.06.06.07.07.08.06.08.06.09.06.09,0,.08,0,.08,0A.84.84,0,0,0,27.79,16.94Z"/><path class="h" d="M30,20a.83.83,0,0,0,.18,0h.09l.09,0,.1,0,.1,0,.1,0,.09,0,.08,0,.07,0,.1-.09,0,0h0l-.12,0-.08,0-.09,0-.09,0-.09,0-.09,0-.09,0-.08,0-.08,0Z"/><path class="h" d="M28.76,19.43a1.22,1.22,0,0,0,0,.31,1.46,1.46,0,0,0,0,.15c0,.05,0,.11,0,.16l.06.17.07.17.08.16.09.15.09.14.08.12.14.18.06.06,0-.08-.09-.2-.06-.13-.07-.15-.08-.16-.08-.16L29,20.16,28.95,20l-.06-.15,0-.14C28.79,19.55,28.76,19.43,28.76,19.43Z"/><path class="h" d="M26.9,22l.25,0h1.09l.18,0,.07,0-.07,0-.18,0H27.15Z"/><path class="h" d="M29.71,17.64a1.05,1.05,0,0,0,.05-.2l0-.1s0-.07,0-.11v-.35s0-.08,0-.11,0-.07,0-.11l0-.1a1.22,1.22,0,0,0,0-.14l0-.05v.06s0,.08,0,.14,0,.06,0,.1,0,.07,0,.11,0,.07,0,.11v.45s0,.07,0,.09S29.71,17.64,29.71,17.64Z"/><path class="h" d="M30,17.56l.24.07.11,0,.13,0,.14,0,.14,0,.14,0h.63l-.06,0-.17,0-.11,0-.13,0-.14,0-.14,0H30Z"/><path class="h" d="M25.28,19.38s.07-.1.16-.25L25.5,19l.07-.14.07-.15.07-.16.07-.16.06-.16.05-.15,0-.13c0-.08,0-.16.06-.21l0-.08,0,.07-.11.18-.07.12-.07.14-.07.15-.07.16-.07.16-.06.16L25.4,19l0,.13C25.3,19.26,25.28,19.38,25.28,19.38Z"/><path class="h" d="M24.73,18.41a.22.22,0,0,0,0-.06l0,0,0,0,0,0,0,0h-.19v0l0,0,0,0,0,0,0,0,0,0h.19Z"/><path class="h" d="M27.68,18l.21-.18.1-.09.11-.1.11-.1.12-.11.12-.11.11-.11.11-.1.09-.09.14-.14.05-.06-.07,0-.18.09-.11.07-.12.09-.12.1-.12.11-.12.11-.11.12-.09.11-.08.11A1.82,1.82,0,0,0,27.68,18Z"/><path class="h" d="M26.16,21.19a.8.8,0,0,0-.1.16l0,.08,0,.09,0,.1,0,.11v.11a1,1,0,0,0,0,.11.86.86,0,0,0,0,.1.72.72,0,0,0,0,.09.79.79,0,0,0,0,.13l0,0v-.05l0-.13v-.77C26.16,21.26,26.16,21.19,26.16,21.19Z"/></svg>