<svg width="367" height="275" viewBox="0 0 367 275" fill="none" xmlns="http://www.w3.org/2000/svg">
<g clip-path="url(#clip0_724_56)">
<path d="M162.4 162.4H0V49.2C0 22 22 0 49.2 0H162.5V162.4H162.4Z" fill="#1D0E60"/>
<path d="M162.4 0V162.4H0V225.7C0 252.9 22 274.9 49.2 274.9H316.9C344.1 274.9 366.1 252.9 366.1 225.7V49.2C366.1 22 344.1 0 316.9 0H162.4Z" fill="#E00745"/>
<path d="M81.2002 109.2C96.6642 109.2 109.2 96.664 109.2 81.2C109.2 65.736 96.6642 53.2 81.2002 53.2C65.7362 53.2 53.2002 65.736 53.2002 81.2C53.2002 96.664 65.7362 109.2 81.2002 109.2Z" fill="#E5E1CF"/>
<path d="M106 56.4C104.4 54.8 104.4 52.2 106 50.6L114.4 42.2C116 40.6 118.6 40.6 120.2 42.2C121.8 43.8 121.8 46.4 120.2 48L111.8 56.4C110.2 58 107.6 58 106 56.4Z" fill="#E5E1CF"/>
<path d="M56.4 106C58 107.6 58 110.2 56.4 111.8L48 120.2C46.4 121.8 43.8 121.8 42.2 120.2C40.6 118.6 40.6 116 42.2 114.4L50.6 106C52.3 104.4 54.8 104.4 56.4 106Z" fill="#E5E1CF"/>
<path d="M81.2002 109.2C96.6642 109.2 109.2 96.664 109.2 81.2C109.2 65.736 96.6642 53.2 81.2002 53.2C65.7362 53.2 53.2002 65.736 53.2002 81.2C53.2002 96.664 65.7362 109.2 81.2002 109.2Z" fill="#E5E1CF"/>
<path d="M56.4001 56.4C54.8001 58 52.2001 58 50.6001 56.4L42.3001 48C40.7001 46.4 40.7001 43.8 42.3001 42.2C43.9001 40.6 46.5001 40.6 48.1001 42.2L56.5001 50.6C58.0001 52.3 58.0001 54.8 56.4001 56.4Z" fill="#E5E1CF"/>
<path d="M106 106C107.6 104.4 110.2 104.4 111.8 106L120.2 114.4C121.8 116 121.8 118.6 120.2 120.2C118.6 121.8 116 121.8 114.4 120.2L106 111.8C104.4 110.2 104.4 107.6 106 106Z" fill="#E5E1CF"/>
<path d="M116.3 81.2C116.3 79 118.1 77.1 120.4 77.1H132.3C134.5 77.1 136.4 78.9 136.4 81.2C136.4 83.4 134.6 85.3 132.3 85.3H120.4C118.1 85.3 116.3 83.5 116.3 81.2Z" fill="#E5E1CF"/>
<path d="M46.2001 81.2C46.2001 83.4 44.4001 85.3 42.1001 85.3H30.2001C28.0001 85.3 26.1001 83.5 26.1001 81.2C26.1001 79 27.9001 77.1 30.2001 77.1H42.1001C44.3001 77.1 46.2001 79 46.2001 81.2Z" fill="#E5E1CF"/>
<path d="M81.2002 109.2C96.6642 109.2 109.2 96.664 109.2 81.2C109.2 65.736 96.6642 53.2 81.2002 53.2C65.7362 53.2 53.2002 65.736 53.2002 81.2C53.2002 96.664 65.7362 109.2 81.2002 109.2Z" fill="#E5E1CF"/>
<path d="M81.2001 46.2C79.0001 46.2 77.1001 44.4 77.1001 42.1V30.2C77.1001 28 78.9001 26.1 81.2001 26.1C83.4001 26.1 85.3001 27.9 85.3001 30.2V42.1C85.3001 44.3 83.5001 46.2 81.2001 46.2Z" fill="#E5E1CF"/>
<path d="M81.2001 116.3C83.4001 116.3 85.3001 118.1 85.3001 120.4V132.3C85.3001 134.5 83.5001 136.4 81.2001 136.4C79.0001 136.4 77.1001 134.6 77.1001 132.3V120.4C77.1001 118.1 79.0001 116.3 81.2001 116.3Z" fill="#E5E1CF"/>
</g>
<defs>
<clipPath id="clip0_724_56">
<rect width="366.1" height="274.9" fill="white"/>
</clipPath>
</defs>
</svg>
