<svg width="339" height="616" viewBox="0 0 339 616" fill="none" xmlns="http://www.w3.org/2000/svg">
<g clip-path="url(#clip0_724_22)">
<path d="M242.2 39.2C242.2 35.1 237.9 32.4 234.2 34.2C230.7 35.9 227.2 38 223.8 40.4C213.5 47.7 195.2 72.3 203.2 72.3C211.2 72.3 224.3 67.6 232.3 61.9L233.9 60.7C234.1 60.5 234.4 60.3 234.6 60.1C235.2 59.5 235.8 58.8 236.4 58.2C242 51.6 242.6 44.6 242.2 39.6C242.2 39.5 242.2 39.3 242.2 39.2Z" fill="#151321"/>
<path d="M221.8 0C213.8 0 207.3 6.5 207.3 14.5V35.6C201.2 38.8 236.4 47.7 236.4 47.7V26.8V14.5C236.4 6.5 229.8 0 221.8 0Z" fill="#151321"/>
<path d="M198.7 65.2C197 65.2 196 66.6 196.5 68.3L208 106.8C208.5 108.5 210.3 109.9 212 109.9C213.7 109.9 214.7 108.5 214.2 106.8L202.7 68.3C202.2 66.6 200.4 65.2 198.7 65.2Z" fill="#EFB614"/>
<path d="M213.8 65.2C212.1 65.2 211.1 66.6 211.6 68.3L223.1 106.8C223.6 108.5 225.4 109.9 227.1 109.9C228.8 109.9 229.8 108.5 229.3 106.8L217.8 68.3C217.3 66.6 215.5 65.2 213.8 65.2Z" fill="#EFB614"/>
<path d="M165 33C163.3 33 162.9 34.4 164 36.1L190.6 74.6C191.8 76.3 194.1 77.7 195.8 77.7C197.5 77.7 197.9 76.3 196.8 74.6L170.2 36.1C169.1 34.4 166.8 33 165 33Z" fill="#513FFC"/>
<path d="M171.3 33C169.6 33 169.2 34.4 170.3 36.1L196.9 74.6C198.1 76.3 200.4 77.7 202.1 77.7C203.8 77.7 204.2 76.3 203.1 74.6L176.5 36.1C175.3 34.4 173 33 171.3 33Z" fill="#513FFC"/>
<path d="M159 33C157.3 33 156.9 34.4 158 36.1L184.6 74.6C185.8 76.3 188.1 77.7 189.8 77.7C191.5 77.7 191.9 76.3 190.8 74.6L164.2 36.1C163 34.4 160.7 33 159 33Z" fill="#513FFC"/>
<path d="M287.2 139.7C269.5 139.7 255.1 125.3 255.1 107.6V95.1C255.1 77.4 269.5 63 287.2 63C304.9 63 319.3 77.4 319.3 95.1V107.6C319.3 125.3 305 139.7 287.2 139.7Z" fill="#151321"/>
<path d="M125.4 139.7C107.7 139.7 93.3 125.3 93.3 107.6V95.1C93.3 77.4 107.7 63 125.4 63C143.1 63 157.5 77.4 157.5 95.1V107.6C157.5 125.3 143.1 139.7 125.4 139.7Z" fill="#151321"/>
<path d="M299.7 615.2H113.8C92.5999 615.2 75.3999 598 75.3999 576.8L95.3999 165.5C95.3999 130 124.1 101.3 159.6 101.3H253.9C289.4 101.3 318.1 130 318.1 165.5L338.1 576.8C338.1 598 320.9 615.2 299.7 615.2Z" fill="#1D0E60"/>
<path d="M218.1 279.4H195.3C183.9 279.4 174.6 270.1 174.6 258.7V191.9C174.6 180.5 183.9 171.2 195.3 171.2H218.1C229.5 171.2 238.8 180.5 238.8 191.9V258.7C238.9 270.1 229.6 279.4 218.1 279.4Z" fill="#E5E1CF"/>
<path d="M158.4 193.5C155 193.5 152.2 190.7 152.2 187.3V155C152.2 151.6 155 148.8 158.4 148.8C161.8 148.8 164.6 151.6 164.6 155V187.3C164.7 190.8 161.9 193.5 158.4 193.5Z" fill="#E5E1CF"/>
<path d="M255.1 193.5C251.7 193.5 248.9 190.7 248.9 187.3V155C248.9 151.6 251.7 148.8 255.1 148.8C258.5 148.8 261.3 151.6 261.3 155V187.3C261.3 190.8 258.5 193.5 255.1 193.5Z" fill="#E5E1CF"/>
<path d="M222.5 201.2H191C186.8 201.2 183.3 197.8 183.3 193.5C183.3 189.3 186.7 185.8 191 185.8H222.5C226.7 185.8 230.2 189.2 230.2 193.5C230.2 197.8 226.8 201.2 222.5 201.2Z" fill="#151321"/>
<path d="M180.1 221.2C184.6 226.2 190.8 229.9 197.3 231.7C207.2 234.5 218.2 232.6 226.7 226.8C229.1 225.2 231.4 223.3 233.4 221.1C235 219.3 235.3 216.4 233.4 214.7C231.7 213.1 228.7 212.8 227 214.7C226.5 215.2 226 215.7 225.5 216.2C225.1 216.6 224.7 217 224.3 217.3C224.1 217.5 223.8 217.7 223.6 217.9C223.5 218 223.3 218.1 223.2 218.3C223.5 218 224 217.7 223.3 218.2C221.9 219.2 220.5 220.1 218.9 220.9C218.5 221.1 218.1 221.3 217.6 221.5C217.4 221.6 217.2 221.7 217 221.8C217.7 221.6 216 222.2 217 221.8C216 222.1 215 222.6 213.9 222.9C212.8 223.2 211.8 223.4 210.7 223.6C210.7 223.6 209.5 223.8 210.2 223.7C210.9 223.6 209.6 223.8 209.6 223.8C208.9 223.9 208.3 223.9 207.6 223.9C206.4 223.9 205.2 223.9 204 223.8C204 223.8 202.7 223.7 203.4 223.8C204.1 223.9 202.9 223.7 202.9 223.7C202.3 223.6 201.7 223.5 201.1 223.3C200.1 223.1 199.1 222.8 198 222.4C197.5 222.2 197.1 222.1 196.6 221.9C196.3 221.8 195.6 221.7 196.6 221.9C196.3 221.8 196 221.6 195.7 221.5C194.1 220.7 192.5 219.8 191.1 218.8C190.7 218.5 190.4 218.3 190 218C189.5 217.6 190.4 218.2 190.3 218.3L189.8 217.9C189.3 217.5 188.7 217 188.2 216.5C187.6 215.9 187 215.3 186.4 214.7C184.8 212.9 181.6 213 180 214.7C178.4 216.7 178.4 219.3 180.1 221.2Z" fill="#151321"/>
<path d="M241.1 98.2C241.1 99.9 239.7 101.3 238 101.3H199.5C197.8 101.3 196.4 99.9 196.4 98.2C196.4 96.5 197.8 95.1 199.5 95.1H238C239.7 95.1 241.1 96.5 241.1 98.2Z" fill="#EFB614"/>
<path d="M206.8 372.1L125.9 353.3C122.8 352.6 120.7 349.9 120.7 346.7V315.8C120.7 311.4 124.8 308.2 129 309.2L206.8 327.3V372.1Z" fill="#E5E1CF"/>
<path d="M287.6 353.3L206.7 372.1V327.3L284.5 309.2C288.7 308.2 292.8 311.4 292.8 315.8V346.7C292.9 349.9 290.7 352.6 287.6 353.3Z" fill="#E5E1CF"/>
<path d="M207.3 35.7L187.7 77.2C190.1 78.7 193.2 80.3 197.1 81.2C210.6 84.2 221.8 76 224 74.3C231.4 70.3 236.4 47.8 236.4 47.8V26.8C231.3 27.4 219.8 29.1 207.3 35.7Z" fill="#513FFC"/>
<path d="M209.3 42.3V33.7C203.2 36 196.8 39.1 190.9 43.3C180.6 50.6 162.3 75.2 170.3 75.2C178.3 75.2 191.4 70.5 199.4 64.8L201.4 63.4C202.1 62.7 202.8 62 203.5 61.2C209.2 54.4 209.7 47.2 209.3 42.3Z" fill="#151321"/>
<path d="M221.8 0C213.8 0 207.3 6.5 207.3 14.5V35.6C219.8 29.1 231.3 37.3 236.4 36.8V14.5C236.4 6.5 229.8 0 221.8 0Z" fill="#151321"/>
<path d="M223.2 8.1C224.9 8.1 226.3 9.5 226.3 11.2V19.7C226.3 21.4 224.9 22.8 223.2 22.8C221.5 22.8 220.1 21.4 220.1 19.7V11.2C220.1 9.5 221.5 8.1 223.2 8.1Z" fill="#E5E1CF"/>
<path d="M244.9 26.8C244.9 28.5 243.5 29.9 241.8 29.9H233.3C231.6 29.9 230.2 28.5 230.2 26.8C230.2 25.1 231.6 23.7 233.3 23.7H241.8C243.6 23.7 244.9 25.1 244.9 26.8Z" fill="#EFB614"/>
<path d="M87.1001 446C110.4 440.6 124.9 417.3 119.4 394L84.9001 245.3C82.3001 234.3 71.4001 227.5 60.4001 230L15.8001 240.4C4.80007 243 -1.99993 253.9 0.500066 264.9L35.1001 413.6C40.6001 436.9 63.9001 451.4 87.1001 446Z" fill="#1D0E60"/>
<path d="M58.1 244.9L40.3 193.3C38 186.5 30.6 182.9 23.8 185.2C17 187.5 13.4 194.9 15.7 201.7L33.5 253.3L58.1 244.9Z" fill="#1D0E60"/>
<path d="M47.1001 246L53.9001 191.8C54.8001 184.7 61.3001 179.6 68.4001 180.5C75.5001 181.4 80.6001 187.9 79.7001 195L72.9001 249.2L47.1001 246Z" fill="#1D0E60"/>
<path d="M59.7 327.9C69.1 325.7 74.9 316.4 72.7 307L65.8 277.3C63.6 267.9 54.3 262.1 44.9 264.3C35.5 266.5 29.7 275.8 31.9 285.2L38.8 314.9C41 324.3 50.3 330.1 59.7 327.9Z" fill="#151321"/>
<path d="M89.2001 275.6L59.0001 286C52.2001 288.3 44.8001 284.7 42.5001 277.9C40.2001 271.1 43.8001 263.7 50.6001 261.4L80.7001 251L89.2001 275.6Z" fill="#1D0E60"/>
</g>
<defs>
<clipPath id="clip0_724_22">
<rect width="338.1" height="615.2" fill="white"/>
</clipPath>
</defs>
</svg>
