<?xml version="1.0" encoding="utf-8"?>
<!-- Generator: Adobe Illustrator 23.1.0, SVG Export Plug-In . SVG Version: 6.00 Build 0)  -->
<svg version="1.1" id="Layer_1" xmlns="http://www.w3.org/2000/svg" xmlns:xlink="http://www.w3.org/1999/xlink" x="0px" y="0px"
	 viewBox="0 0 1920 483.2" style="enable-background:new 0 0 1920 483.2;" xml:space="preserve">
<style type="text/css">
	.st0{fill:#FFFFFF;}
</style>
<g>
	<path class="st0" d="M1347.9,144c7.9,2,18.4,2.6,26.1,1.5c27.5-14.7-27.1-16.1-40.2-17.2l3,5.7C1334.6,138.6,1340,142,1347.9,144z"
		/>
	<path class="st0" d="M833.7,145.8c15.6-0.3,36.7,4.2,54.4-1.8c18.3,1,45,9.8,38,20.2c54.8,2.9,26.6-24.3,83.7-24.7
		c-12.1-5.1-25.2-6.8-38.9-7c-13.7-0.1-27.9,1.4-42.3,2.9c-28.7,3-57.7,5.9-83.3-4.7C824.6,131.1,823.1,143.7,833.7,145.8z"/>
	<path class="st0" d="M757.7,138.9c1.9,0.5,4.3,1,7,1.5C764.2,138.8,762.8,137.6,757.7,138.9z"/>
	<path class="st0" d="M766,144.5c1.2,13.7,43.3,20,61.4,18.6c-5.9-16-43-19.2-62.7-22.7C765.1,141.9,764.6,143.9,766,144.5z"/>
	<path class="st0" d="M772.2,186.6L783,191c5.2-0.1,24,7.7,20.5-2.6C795.3,182.9,782.4,184.2,772.2,186.6z"/>
	<path class="st0" d="M647.6,157.7l20.8-0.4l-6.6-15.9l-18.1,1.4C675,144.7,621.2,153.6,647.6,157.7z"/>
	<path class="st0" d="M607.3,143.6c-10.4,0.2-16.2-6.6-21.2-4.2l-7.3,5.9C592.1,148.4,599.8,147.1,607.3,143.6z"/>
	<path class="st0" d="M641.7,179.5c12.8-1.4-14.1-12.3-18.9-7.7C630.9,175.1,629,183.2,641.7,179.5z"/>
	<path class="st0" d="M1594.1,136.5l-5.5-4.6l-25.5,6.7C1573.8,143.2,1586.5,139.8,1594.1,136.5z"/>
	<path class="st0" d="M1436.5,148c14.4,1.8,29.2-0.2,44-2.4c14.8-2.2,29.6-4.6,43.9-4l17.7-7.9c-17.1-3-40.7-6-65.1-7.4
		c-24.5-1.4-49.8-1.2-70.3,2.2C1394.6,143.3,1414.9,136.5,1436.5,148z"/>
	<path class="st0" d="M1920,179.2c-21.3-14.9-47-29.3-75.5-43c-1.9,0.7-3.6,1.3-3.6,2.1c-36.4-0.5-86.5-13.8-127,4
		c18.4,3.6,18.7,8.2,47.4,12c-11.1,9.6-22.2,8.5-33.7,5.1c-11.6-3.4-23.6-9.2-36.6-9.4c21.1,4.8-7,12.5-25.1,13.4
		c-17-3-39.2-4.4-62.9-5.1c-23.7-0.6-49-0.5-72.4-0.7c-10.1,3.4-31.7,1.8-49.5,1.8c-17.8,0-32,1.7-27.4,11.4
		c-28.5,1.1-32.1-13.8-53.2-18.5c-15.9,5.4-30.8,5.3-45.3,2.6c-14.5-2.7-28.7-7.9-43-13.1c-28.7-10.3-58-20-92.1-6.8
		c4.4-11.4-29.3-10.2-42.4-11.3c-28.7-1-96.4-3.1-81.7,18.5c19.3,14.8,59.1-8.2,88.8,6.5c51.1,23.8-53.9,8.2-55,27.6
		c6.9-3.2,10.8,11.1,29.4,8.8c-38.7,8.2,23.8,21.1-0.3,32.2c37,8.3,47,11,57.8,19.4h-83.8l5.6-14.8c-21.8-13.6-38.9-34.1-34.8-47.8
		c-29.7-14.7-58-11.6-87.6-7.4c-14.8,2.1-29.8,4.5-45.5,5.1c-15.7,0.7-32-0.5-49.3-5.4c-16-4.4-49.8-5.2-51.5,5.1
		c-1,19.4,47.4,8.6,76.5,14.1c-16.2,8.7-37.6,8.1-60.5,6c-11.4-1-23.2-2.4-34.9-3.1c-11.7-0.7-23.2-0.8-34.1,0.8l29.8,14.4
		c-35.1,14.2-81.4-11.5-120.5-12.1l12.3-8.2c-23.4-0.9-50.8-16.3-57.3-1.4c15.8,2,21.3,6.5,36.7,3.9c3.1,5.7-9.8,7-12,10.5
		c-20.7,0.3-48.9,4.3-65.3-4.6c-8.7,4.1-26.9,4.5-40.6,6.3c-13.8,1.8-23.2,5.2-14.5,15.2c-31.2-0.5-67.1-2.3-103.8-2.6
		c-36.7-0.2-74.2,1.3-108.7,7.3c-6.3-11.3-29.1-5-37.4-10.5c7-8.2-16.7-11-20-18.9c-22.3,4.9-45.2,7.9-68.5,9.8
		c-11.7,1-23.4,1.7-35.2,2.3c-11.8,0.6-23.7,1.1-35.6,1.6c-23.8,0.9-47.7,1.8-71.3,3.4c-23.7,1.6-47.1,4.2-70.1,8.4
		C21.6,222,10.7,225.3,0,227.1v9.9v6.1v240.2h1920V237.9l0,0V179.2z M1690.7,229.9c40.6-11.4,52.8-3.4,62.9,7.1h-147.6
		C1602,224.4,1665.7,245,1690.7,229.9z M1592.7,235.8c-1.7,0.4-3.1,0.8-4.4,1.2h-32.4c3.4-2.2,6.9-4.3,10.7-6
		C1576.9,231.1,1592.4,231.2,1592.7,235.8z M1517.6,236.4c0.3,0.2,0.6,0.4,0.9,0.6h-20C1503.1,236,1509.2,235.7,1517.6,236.4z
		 M1270.8,225.3c35.6-9.1,63.1,13.7,93.9,9.2c-0.7,0.8-1.3,1.7-1.8,2.4h-98.1C1266.3,232.7,1267.4,228.5,1270.8,225.3z M589.5,232.9
		c1.3,1.5,2.1,2.9,2.4,4h-52.4C554.7,233.1,570.4,227.7,589.5,232.9z M501.3,237h-18.4C487.1,236.3,492.8,236.2,501.3,237z
		 M337.7,232.8c15.2-1,26.6,0.9,36.4,4.2h-41.3C335.4,235.3,337.3,233.9,337.7,232.8z M67.9,236.2c-3.2-5.6,9.9-4.9,20-7.5
		c12.8,1.5,25.7,4.3,35.1,8.3H67.8C67.7,236.7,67.8,236.5,67.9,236.2z M1896.4,237c2.6-0.5,4.9-1,7-1.8c4.9,0.3,9.1,0.9,12.8,1.8
		H1896.4z"/>
</g>
</svg>
