<svg width="256" height="256" viewBox="0 0 256 256" fill="none" xmlns="http://www.w3.org/2000/svg">
<rect width="256" height="256" fill="white"/>
<circle opacity="0.15" cx="128" cy="128" r="100" fill="#E4002B"/>
<g clip-path="url(#clip0_754_172)">
<path d="M79.9241 109.676C80.511 119.358 81.092 128.941 81.6789 138.623C81.9633 143.314 82.0541 148.118 82.5382 152.797C82.9254 155.879 83.6544 159.642 86.658 161.263C89.9732 163.066 94.9156 161.965 98.5151 161.847C103.811 161.626 109.108 161.405 114.404 161.184C124.298 160.785 134.292 160.379 144.18 159.88C148.777 159.701 153.475 159.517 158.066 159.239C162.464 159.072 167.304 159.58 170.94 156.755C178.018 151.217 175.537 140.046 174.971 132.366C174.297 122.89 173.316 113.332 172.043 103.891C171.644 100.61 171.471 96.1117 168.25 94.2032C164.922 92.2008 159.587 93.4259 155.987 93.544C134.109 94.5697 112.02 95.4079 89.9298 96.2461C84.1343 96.4973 79.174 110.523 85.6681 110.23C106.46 109.47 127.246 108.611 147.939 107.857C150.54 107.8 153.135 107.642 155.736 107.585C157.134 107.5 160.192 106.714 161.363 107.845C162.321 108.789 162.237 114.003 162.321 115.401C162.672 117.884 162.93 120.473 163.181 122.963C163.689 128.041 164.197 133.12 164.599 138.104C164.751 140.6 164.908 143.195 165.059 145.691C165.138 146.988 165.211 148.186 165.289 149.484C165.253 152.191 165.441 151.979 165.864 149.048C167.083 147.672 168.202 146.302 169.421 144.925C168.254 145.497 164.823 145.104 163.42 145.089C160.725 145.252 158.124 145.31 155.429 145.473C150.132 145.694 144.836 145.915 139.54 146.136C128.947 146.577 118.354 147.019 107.762 147.461C105.066 147.624 102.465 147.682 99.7701 147.845C98.4725 147.924 94.4163 148.771 93.3516 147.733C92.2869 146.696 92.7556 142.861 92.677 141.563C92.5196 138.968 92.3623 136.372 92.211 133.877C91.5878 123.596 90.9645 113.315 90.3412 103.034C90.1415 99.7397 87.3678 98.6055 84.6577 100.172C81.6602 101.957 79.7184 106.282 79.9241 109.676Z" fill="#E00745"/>
<path d="M105.423 107.229C106.379 123 107.435 138.765 108.391 154.536C108.584 157.73 111.376 159.164 114.074 157.397C122.268 152.092 130.952 148.259 140.302 145.488C148.871 143.065 157.446 140.742 164.742 135.491C168.002 133.089 172.164 125.724 167.566 122.597C152.198 112.007 135.458 103.605 117.661 97.5705C111.726 95.5259 105.332 109.038 110.961 111.001C128.765 117.134 145.504 125.537 161.066 136.014C162.01 131.75 162.948 127.385 163.891 123.12C156.502 128.477 147.585 130.119 139.028 132.742C129.884 135.601 121.218 139.733 113.218 144.926C115.081 145.915 117.038 146.798 118.902 147.787C117.946 132.016 116.89 116.251 115.934 100.48C115.734 97.1864 112.96 96.0522 110.25 97.619C107.153 99.4098 105.217 103.835 105.423 107.229Z" fill="#E00745"/>
<path d="M141.16 113.377C147.346 114.605 152.772 118.184 156.581 123.162C160.601 128.329 168.764 115.912 165.18 111.32C160.276 104.805 153.422 100.812 145.516 99.2881C139.947 98.3233 134.469 112.08 141.16 113.377Z" fill="#E00745"/>
<path d="M85.2055 114.165C85.2087 122.48 85.0399 162.664 102.414 155.099C111.098 151.266 110.381 141.091 108.823 133.571C106.721 123.68 104.718 113.783 102.61 103.793C100.244 107.743 97.8792 111.693 95.5078 115.544C97.123 115.747 98.8381 115.943 100.284 116.657C101.73 117.371 102.356 119.437 102.822 117.204C102.274 119.742 101.83 123.977 105.459 124.358C108.684 124.663 111.817 120.166 112.359 117.528C114.772 107.764 109.068 102.9 99.8693 101.554C94.6123 100.771 92.0383 109.543 92.7674 113.306C93.9169 119.047 95.1662 124.782 96.3217 130.622C97.0144 133.786 97.6134 137.056 98.3061 140.22C98.5784 141.406 98.6691 142.903 99.141 144.076C99.2771 144.669 99.4193 145.362 99.4556 145.961C102.641 143.964 103.342 142.319 101.373 141.236C101.019 140.356 99.8548 139.324 99.395 138.351C98.8112 136.983 98.3151 135.41 97.931 134.031C97.1566 131.173 96.6816 128.296 96.3065 125.414C95.644 119.443 95.5864 113.536 95.423 107.534C95.5167 104.122 92.4557 103.206 89.9391 104.661C86.7419 106.458 85.0935 110.665 85.2055 114.165Z" fill="#E00745"/>
<path d="M138.802 153.794C148.726 153.894 158.665 152.59 168.22 149.907C172.751 148.63 176.916 139.662 172.412 136.429C170.002 134.671 167.591 132.914 165.18 131.157C165.092 134.668 164.899 138.086 164.811 141.598C164.917 141.692 165.017 141.686 165.123 141.78C170.552 140.449 174.409 126.389 166.801 128.153C163.344 128.964 160.676 131.229 158.75 134.151C156.917 136.967 154.923 142.097 158.381 144.593C160.791 146.35 163.202 148.107 165.613 149.865C167.044 145.37 168.374 140.881 169.805 136.386C160.937 138.827 152.089 139.965 142.963 139.817C137.343 139.657 132.183 153.695 138.802 153.794Z" fill="#E00745"/>
</g>
<defs>
<clipPath id="clip0_754_172">
<rect width="94" height="67.3" fill="white" transform="translate(79.0498 96.9057) rotate(-3.46915)"/>
</clipPath>
</defs>
</svg>
