<svg width="256" height="256" viewBox="0 0 256 256" fill="none" xmlns="http://www.w3.org/2000/svg">
<rect width="256" height="256" fill="white"/>
<circle opacity="0.2" cx="128" cy="128" r="100" fill="#513FFC"/>
<path d="M85.4776 85.0785C86.3776 94.0785 82.3776 103.279 75.3776 108.979C73.8776 110.179 77.2776 111.879 78.0776 112.179C79.2776 112.679 80.5776 113.079 81.7776 113.179C82.5776 113.179 83.6776 113.379 84.2776 112.779C92.0776 106.579 95.9776 96.7785 94.9776 86.9785C94.8776 86.2785 93.5776 85.4785 93.0776 85.2785C91.9776 84.6785 90.6776 84.1785 89.4776 83.9785C88.3776 83.7785 85.2776 83.2785 85.4776 85.0785Z" fill="#513FFC"/>
<path d="M96.9777 95.0785C117.178 90.8785 137.678 87.6785 158.178 85.4785C158.478 85.4785 158.878 85.3785 159.178 85.3785C159.278 85.3785 160.978 85.1785 159.678 85.2785C158.478 85.3785 159.578 85.2785 159.878 85.2785C160.278 85.2785 160.678 85.1785 161.078 85.1785C162.378 85.0785 163.678 84.8785 165.078 84.7785C165.578 84.7785 166.078 84.7785 166.578 84.6785C164.378 84.7785 165.178 84.6785 165.678 84.6785C167.078 84.7785 164.378 84.3785 165.178 84.5785C165.378 84.6785 166.278 84.8785 165.278 84.5785C164.178 84.2785 165.478 84.5785 165.578 84.6785C165.578 84.6785 164.678 84.0785 165.378 84.5785C165.678 84.7785 165.978 84.9785 166.278 85.2785C166.578 83.9785 166.978 82.6785 167.278 81.4785C160.278 85.5785 155.478 91.9785 154.578 99.9785C154.478 100.979 156.178 101.879 156.878 102.079C158.478 102.679 160.578 102.879 162.178 102.779C163.978 102.679 165.878 102.479 167.478 101.579C168.478 101.079 169.378 100.479 169.578 99.2785C169.678 98.2785 169.878 97.2785 170.078 96.2785C169.978 96.5785 169.878 96.8785 169.878 97.0785C170.578 94.4785 171.778 91.9785 173.378 89.7785C173.778 89.2785 174.178 88.7785 174.578 88.2785C174.878 87.9785 174.178 88.5785 174.778 88.0785C175.078 87.7785 175.278 87.5785 175.578 87.2785C176.078 86.8785 176.478 86.4785 176.978 86.0785C177.278 85.8785 177.578 85.6785 177.878 85.3785C178.178 85.1785 179.178 84.5785 177.978 85.2785C178.778 84.7785 179.778 84.3785 179.978 83.3785C180.178 82.4785 179.778 82.0785 178.978 81.3785C176.478 79.2785 172.878 78.5785 169.778 78.3785C166.978 78.1785 164.278 78.3785 161.478 78.6785C155.478 79.2785 149.578 79.8785 143.578 80.6785C132.678 81.9785 121.778 83.6785 110.978 85.5785C104.878 86.6785 98.6777 87.8785 92.5777 89.0785C91.1777 89.3785 89.3777 89.7785 88.1777 90.6785C87.4777 91.2785 86.8777 92.2785 87.5777 93.0785C88.3777 94.0785 89.8777 94.5785 91.0777 94.7785C93.0777 95.3785 95.0777 95.4785 96.9777 95.0785Z" fill="#513FFC"/>
<path d="M100.678 69.4785C107.878 69.2785 114.378 66.4785 121.178 64.3785C127.678 62.2785 134.078 60.6785 140.578 59.3785C142.478 58.9785 144.578 57.9785 145.978 56.5785C146.578 55.9785 148.278 53.9785 146.778 53.3785C144.078 52.3785 141.678 50.7785 139.678 48.5785C138.678 47.4785 136.578 48.1785 135.478 48.7785C133.678 49.5785 132.078 50.7785 131.078 52.4785C130.378 53.6785 129.778 54.2785 128.778 55.2785C128.078 55.9785 129.378 54.8785 128.478 55.4785C128.178 55.6785 127.878 55.9785 127.478 56.1785C128.078 55.8785 127.878 55.8785 127.378 56.1785C126.178 56.8785 127.878 55.9785 126.978 56.3785C125.878 56.9785 124.678 57.5785 123.778 58.5785C123.278 59.0785 122.478 59.9785 122.478 60.7785C122.478 62.7785 125.978 61.5785 126.778 61.1785C132.078 58.5785 136.478 54.8785 139.478 49.7785C136.678 51.0785 133.778 52.3785 130.978 53.6785C133.178 56.1785 135.878 58.0785 138.878 59.1785C140.878 57.1785 142.978 55.1785 144.978 53.1785C138.178 54.4785 131.478 56.1785 124.878 58.2785C121.778 59.2785 118.678 60.3785 115.478 61.3785C112.378 62.3785 109.978 63.1785 106.878 63.2785C104.578 63.3785 102.178 64.4785 100.578 66.1785C100.078 66.8785 98.2776 69.5785 100.678 69.4785Z" fill="#513FFC"/>
<path d="M100.077 75.8785C101.777 77.3785 103.477 78.8785 105.177 80.3785C106.177 81.2785 107.177 81.9785 108.477 82.4785C108.977 82.6785 109.577 82.8785 110.177 82.8785C110.677 82.9785 111.177 82.9785 111.677 82.8785C111.877 82.7785 112.177 82.6785 112.377 82.5785C112.777 82.2785 112.977 81.9785 112.977 81.4785C112.877 81.2785 112.877 80.9785 112.777 80.7785C112.477 80.1785 112.077 79.5785 111.577 79.1785C109.877 77.6785 108.177 76.1785 106.477 74.6785C105.477 73.7785 104.477 73.0785 103.177 72.5785C102.677 72.3785 102.077 72.1785 101.477 72.1785C100.977 72.0785 100.477 72.0785 99.9775 72.1785C99.7775 72.2785 99.4775 72.3785 99.2775 72.4785C98.8775 72.7785 98.6775 73.0785 98.6775 73.5785C98.7775 73.7785 98.7775 74.0785 98.8775 74.2785C99.1775 74.8785 99.5775 75.4785 100.077 75.8785Z" fill="#513FFC"/>
<path d="M118.378 72.0785C118.978 72.4785 119.478 72.8785 120.078 73.3785C119.778 73.1785 119.478 72.9785 119.278 72.6785C120.678 73.8785 122.078 75.0785 123.278 76.4785C123.678 76.8785 124.178 77.1785 124.578 77.4785C125.078 77.8785 125.678 78.0785 126.278 78.3785C126.878 78.6785 127.478 78.7785 128.178 78.8785C128.678 78.9785 129.278 79.0785 129.878 79.0785C130.178 79.0785 130.478 78.9785 130.778 78.9785C131.278 78.8785 131.578 78.6785 131.778 78.2785C131.978 77.4785 131.378 76.9785 130.978 76.3785C129.078 74.1785 126.878 72.2785 124.478 70.5785C123.478 69.8785 122.178 69.2785 120.978 68.9785C120.378 68.7785 119.878 68.6785 119.278 68.6785C118.778 68.5785 118.378 68.6785 117.878 68.7785C117.278 68.9785 116.678 69.2785 116.878 70.0785C116.978 70.2785 117.078 70.4785 117.178 70.6785C117.378 71.2785 117.878 71.6785 118.378 72.0785Z" fill="#513FFC"/>
<path d="M141.478 79.4785C146.478 76.2785 151.078 72.4785 155.278 68.1785C155.378 68.0785 155.278 66.6785 155.278 66.6785C155.278 65.4785 155.278 64.2785 155.278 63.1785C155.278 61.9785 155.278 60.7785 155.278 59.6785C155.278 59.4785 155.078 58.3785 155.278 58.1785C151.078 62.4785 146.478 66.2785 141.478 69.4785C141.378 69.5785 141.478 71.0785 141.478 70.9785C141.478 72.1785 141.478 73.3785 141.478 74.4785C141.478 75.6785 141.478 76.8785 141.478 77.9785C141.478 78.2785 141.578 79.4785 141.478 79.4785Z" fill="#513FFC"/>
<path d="M100.878 114.979C100.378 121.979 97.3775 128.579 92.6775 133.779C92.4775 133.979 93.1775 135.179 93.1775 135.179C93.7775 136.179 94.4775 137.179 95.1775 138.079C95.3775 138.379 98.2775 142.079 98.6775 141.679C103.578 136.379 106.378 129.579 106.978 122.479C106.978 121.979 106.078 120.779 105.878 120.379C105.178 119.279 104.478 118.279 103.578 117.279C102.978 116.479 102.278 115.679 101.578 115.079C101.378 114.979 100.878 114.479 100.878 114.979Z" fill="#E4002B"/>
<path d="M123.078 119.979C126.278 121.579 129.678 122.679 133.278 123.379C133.978 123.479 134.278 122.579 134.378 122.079C134.478 121.079 133.978 119.879 133.478 119.079C132.878 117.979 132.178 116.879 131.178 115.979C130.878 115.779 130.578 115.579 130.378 115.279C129.978 114.979 129.478 114.779 128.878 114.779C128.778 114.779 128.678 114.779 128.578 114.679C128.778 114.679 129.078 114.779 129.278 114.779C126.078 114.179 122.978 113.079 120.078 111.579C119.478 111.279 118.778 111.479 118.478 112.079C118.078 112.779 118.478 114.079 118.678 114.679C119.478 116.879 120.978 118.879 123.078 119.979Z" fill="#E4002B"/>
<path d="M136.277 113.979C139.277 115.779 142.177 117.579 145.177 119.379C145.477 119.479 145.777 119.579 146.177 119.479C146.677 119.479 147.177 119.479 147.577 119.379C148.777 119.179 150.177 118.879 151.277 118.479C151.777 118.279 155.377 116.879 154.277 116.179C151.277 114.379 148.377 112.579 145.377 110.779C145.077 110.679 144.777 110.579 144.377 110.679C143.877 110.679 143.377 110.679 142.977 110.779C141.777 110.979 140.377 111.279 139.277 111.679C138.777 111.879 135.077 113.279 136.277 113.979Z" fill="#E4002B"/>
<path d="M140.777 124.579C140.877 124.679 141.777 125.279 141.177 124.879C140.677 124.479 141.277 124.979 141.377 125.079C141.877 125.479 140.677 124.379 141.377 125.079C141.977 125.679 141.277 124.779 141.477 125.179C141.477 125.279 141.877 125.879 141.677 125.579C141.477 125.179 141.877 126.079 141.877 126.179C142.177 126.879 142.077 126.879 142.277 127.579C142.577 127.079 142.777 126.579 143.077 126.179C132.677 127.179 122.177 125.379 112.677 120.979C112.177 120.779 111.177 120.379 110.677 120.879C110.177 121.379 110.477 122.379 110.677 122.979C111.577 125.079 113.477 127.079 115.577 128.079C125.977 132.879 137.577 134.879 149.077 133.879C149.777 133.779 149.977 132.979 149.877 132.479C148.977 127.579 145.777 123.079 141.877 120.079C141.077 119.479 138.177 117.379 137.677 119.279C136.977 120.979 139.477 123.579 140.777 124.579Z" fill="#E4002B"/>
<path d="M110.678 148.179C109.778 156.679 105.878 164.679 100.078 170.979C97.1776 174.079 93.8776 176.779 90.3776 178.979C88.7776 179.979 86.8776 181.079 84.9776 181.979C84.4776 182.279 83.9776 182.479 83.4776 182.679C83.1776 182.779 82.9776 182.879 82.6776 183.079C83.0776 182.879 82.9776 182.979 82.4776 183.179C81.4776 183.579 80.3776 184.079 79.3776 184.479C78.5776 184.779 75.6776 186.079 76.8776 187.279C78.0776 188.479 81.2776 187.479 82.5776 186.979C96.5776 181.579 109.878 172.379 116.278 158.379C117.978 154.679 118.978 150.779 119.378 146.779C119.578 145.079 116.878 145.379 115.778 145.579C114.678 145.779 113.478 146.079 112.478 146.679C111.878 146.879 110.778 147.479 110.678 148.179Z" fill="#513FFC"/>
<path d="M122.077 160.179C125.077 159.279 128.177 158.579 131.277 157.879C131.977 157.679 132.677 157.579 133.377 157.379C133.677 157.279 133.977 157.279 134.377 157.179C133.577 157.379 135.177 157.079 135.077 157.079C136.577 156.779 138.077 156.579 139.577 156.279C139.877 156.279 140.577 156.279 140.777 156.079C140.177 155.979 139.577 155.779 139.077 155.679C139.077 155.679 139.077 155.679 139.077 155.579C138.977 155.779 139.077 156.479 138.977 156.779C138.677 158.079 138.277 159.279 137.877 160.479C137.177 162.679 136.277 164.979 135.277 167.079C133.277 171.279 130.577 175.679 127.477 178.879C126.677 179.779 125.777 180.579 124.877 181.379C124.477 181.779 123.977 182.079 123.577 182.479C122.977 182.979 123.277 182.679 123.477 182.579C123.077 182.879 122.777 183.079 122.377 183.379C119.977 184.979 118.577 185.679 115.877 186.779C115.577 186.879 115.177 187.079 114.877 187.179C113.577 187.679 115.677 186.879 114.377 187.379C113.677 187.579 112.977 187.779 112.277 187.979C110.777 188.379 109.177 188.779 107.577 189.079C107.277 189.179 106.977 189.179 106.677 189.279C106.177 189.379 106.077 189.379 106.577 189.279C106.377 189.279 106.177 189.379 105.977 189.379C105.177 189.479 104.377 189.679 103.577 189.779C101.977 190.079 100.377 190.279 98.7775 190.479C97.1775 190.779 94.2775 191.579 93.8775 193.479C93.4775 195.379 96.4775 195.579 97.6775 195.479C110.677 193.479 123.977 190.779 133.677 181.179C137.777 177.079 141.077 172.279 143.477 167.079C144.677 164.479 145.777 161.779 146.677 158.979C147.477 156.579 149.177 152.779 145.977 151.379C143.877 150.479 141.277 151.179 139.077 151.479C136.877 151.879 134.777 152.279 132.677 152.679C128.677 153.479 124.777 154.479 120.877 155.579C119.577 155.979 116.677 157.179 117.177 158.979C117.677 160.979 120.877 160.579 122.077 160.179Z" fill="#513FFC"/>
<path d="M108.078 167.279C108.578 167.379 109.178 167.479 109.678 167.579C109.678 167.579 110.378 167.779 109.978 167.679C109.578 167.579 110.378 167.779 110.478 167.779C111.478 168.079 112.378 168.479 113.378 168.879C115.278 169.679 116.478 170.379 118.278 171.679C121.678 174.079 124.778 176.979 127.678 179.879C134.078 186.479 140.178 193.479 148.678 197.379C153.378 199.579 158.678 200.679 163.778 199.979C165.778 199.779 168.278 198.579 168.478 196.279C168.678 194.179 166.278 192.979 164.378 193.179C163.378 193.279 162.478 193.379 161.478 193.379C162.178 193.379 160.678 193.279 160.578 193.279C160.078 193.179 159.478 193.179 158.978 193.079C158.678 192.979 158.478 192.979 158.178 192.879C158.178 192.879 157.478 192.679 157.878 192.779C158.278 192.879 157.478 192.679 157.378 192.579C157.178 192.479 156.978 192.479 156.778 192.379C155.678 191.979 154.678 191.579 153.678 191.079C151.978 190.279 150.478 189.379 148.678 188.079C146.978 186.879 145.378 185.479 143.778 183.979C137.478 178.179 132.178 171.179 124.978 166.179C120.778 163.279 116.178 161.179 111.078 160.379C108.978 160.079 106.278 161.079 105.478 163.079C104.478 165.379 106.078 166.979 108.078 167.279Z" fill="#513FFC"/>
<rect x="84.5" y="108.5" width="77" height="36" rx="2.5" stroke="#E4002B" stroke-width="3" stroke-dasharray="8 8"/>
</svg>
