<svg width="256" height="256" viewBox="0 0 256 256" fill="none" xmlns="http://www.w3.org/2000/svg">
<rect width="256" height="256" fill="white"/>
<circle opacity="0.2" cx="128" cy="128" r="100" fill="#513FFC"/>
<g clip-path="url(#clip0_754_143)">
<path d="M166.007 68.8215C149.242 55.006 124.806 53.012 106.195 64.2638C87.5838 75.3731 74.0871 97.4494 75.6499 119.526C77.3548 142.741 98.3812 156.414 118.839 162.111C142.707 168.663 160.466 152.854 169.701 132.202C178.793 111.977 182.913 76.0853 156.062 67.2548C147.538 64.4062 137.735 83.2066 145.407 85.7703C166.433 92.7493 164.018 120.523 153.505 135.62C141.713 152.569 116.85 141.317 103.78 131.632C88.1521 119.668 86.7314 98.1615 101.791 85.2006C117.277 71.8124 140.15 74.9458 155.209 87.337C161.603 92.6068 172.826 74.661 166.007 68.8215Z" fill="#513FFC"/>
<path d="M97.3866 78.6489C95.6817 83.9188 93.8348 89.0461 92.1299 94.316C90.8513 98.3039 89.0044 102.862 90.283 107.134C92.4141 114.113 103.78 119.668 109.605 122.944C110.031 117.959 110.599 113.116 111.025 108.131C104.206 115.68 99.9438 124.653 97.6707 134.48C102.643 131.774 107.616 128.926 112.588 126.22C110.173 118.956 106.763 112.119 102.359 105.71C99.8017 102.007 94.9714 104.998 92.6982 107.277C89.2885 110.695 87.5837 115.395 88.294 120.095C90.8513 136.19 107.9 147.726 118.839 158.123C125.943 164.96 137.877 147.584 132.052 142.029C126.085 136.332 120.118 130.635 114.293 124.938C109.178 119.953 104.348 114.825 103.069 107.562C98.381 112.404 93.6927 117.247 89.0044 121.947C92.6982 127.359 95.5396 132.771 97.6707 139.038C101.08 149.293 111.452 135.335 112.588 130.777C113.583 126.22 115.714 122.801 118.839 119.383C121.539 116.392 125.232 107.419 120.26 104.571C115.287 101.722 109.747 98.7312 105.769 94.6008C104.632 93.4614 104.632 93.8887 105.769 95.7402C106.337 94.0311 106.905 92.322 107.474 90.4704C108.61 87.0522 109.747 83.4915 111.025 80.0732C112.162 76.5125 112.872 70.5306 107.9 69.676C103.211 68.8215 98.6652 74.9458 97.3866 78.6489Z" fill="#513FFC"/>
<path d="M158.477 132.914C157.198 127.359 155.494 122.089 153.078 116.962C151.231 112.831 147.111 108.416 145.975 104.143C145.691 106.422 145.549 108.844 145.264 111.122C143.418 116.25 145.975 110.695 147.111 109.128C147.964 107.847 148.674 106.565 149.384 105.14C151.516 101.01 152.794 96.7372 153.362 92.1795C153.789 89.0461 153.931 85.7703 151.8 83.349C149.384 80.6429 144.412 79.0762 141.286 77.652C133.331 73.8064 122.959 92.4644 130.631 96.1675C133.899 97.7342 137.735 99.0161 140.576 101.295C139.724 99.5858 139.013 98.0191 138.161 96.3099C138.729 100.44 135.32 102.719 133.473 105.995C131.199 109.983 130.063 114.825 131.768 119.098C133.473 123.086 136.598 126.647 138.445 130.635C140.718 135.477 142.281 140.462 143.418 145.732C144.554 150.717 150.095 149.15 152.936 146.729C157.056 143.596 159.614 137.756 158.477 132.914Z" fill="#513FFC"/>
<path d="M65.1366 163.251C69.1146 166.384 73.0926 169.518 77.2126 172.651C80.4802 175.215 86.021 166.099 82.6113 163.393C78.6333 160.26 74.6554 157.126 70.5353 153.993C67.1256 151.429 61.5849 160.402 65.1366 163.251Z" fill="#513FFC"/>
<path d="M82.3271 154.563C74.9394 158.978 67.4097 165.672 67.6938 175.215C68.12 184.472 78.207 189.315 86.5892 189.173C93.8348 189.173 100.086 177.636 100.938 171.654C102.501 161.257 92.8403 157.696 85.3106 153.708C81.4747 151.572 76.2181 160.972 79.9119 162.966C83.1795 164.675 86.7313 166.242 89.7148 168.378C92.13 169.945 93.2665 171.227 92.8403 174.218C92.5562 176.497 91.1355 178.775 88.7203 179.345C85.1685 180.2 78.3491 176.781 76.3601 174.075C72.8084 169.09 78.4912 165.814 82.185 163.536C84.174 162.254 86.163 159.548 86.0209 156.984C86.0209 154.705 84.4581 153.281 82.3271 154.563Z" fill="#513FFC"/>
<path d="M87.5839 179.772C93.977 181.624 100.37 183.333 106.763 185.185C110.599 186.324 115.146 176.781 110.457 175.357C104.064 173.506 97.6709 171.796 91.2777 169.945C87.2997 168.948 82.7535 178.49 87.5839 179.772Z" fill="#513FFC"/>
<path d="M119.692 166.384C115.572 165.957 111.309 165.957 107.616 168.236C103.211 171.084 101.507 176.069 101.08 181.054C100.654 185.754 100.37 191.024 103.211 195.012C106.337 199.427 111.452 199.285 116.424 198.858C120.402 198.43 123.812 188.603 118.271 189.315C112.162 190.027 108.468 187.748 108.468 181.197C108.468 179.203 108.184 177.066 109.889 176.212C111.594 175.5 114.293 176.069 115.998 176.212C120.118 176.497 124.522 166.811 119.692 166.384Z" fill="#513FFC"/>
<path d="M188.028 154.848C184.05 157.981 180.072 161.114 175.952 164.248C174.105 165.672 172.542 168.805 173.252 171.084C174.105 173.506 176.378 172.793 177.941 171.654C181.919 168.521 185.897 165.387 190.017 162.254C191.864 160.83 193.426 157.696 192.716 155.417C192.006 152.996 189.59 153.708 188.028 154.848Z" fill="#513FFC"/>
<path d="M171.832 163.536C175.383 165.672 179.788 168.236 181.066 172.509C182.345 176.924 174.389 180.057 170.695 179.345C167.285 178.633 162.029 171.369 164.444 168.093C166.291 165.672 171.69 164.105 174.247 162.681C177.799 160.687 179.646 150.86 174.105 153.851C166.717 157.839 157.34 161.542 155.92 170.942C154.925 177.351 159.898 189.315 167.57 189.03C176.236 188.745 185.47 184.045 188.454 175.5C191.721 165.957 184.76 158.836 177.23 154.278C173.536 151.999 168.138 161.257 171.832 163.536Z" fill="#513FFC"/>
<path d="M168.422 170.087C162.029 171.939 155.636 173.648 149.242 175.5C146.827 176.212 144.98 178.918 144.554 181.197C144.27 183.048 144.98 185.754 147.395 185.042C153.789 183.191 160.182 181.481 166.575 179.63C168.99 178.918 170.837 176.212 171.263 173.933C171.547 172.081 170.979 169.375 168.422 170.087Z" fill="#513FFC"/>
<path d="M138.161 176.069C142.423 175.642 147.111 175.642 148.106 180.769C148.39 182.478 149.1 186.324 148.248 187.891C146.969 190.027 143.702 189.315 141.429 189.03C137.308 188.603 133.046 198.288 137.735 198.858C142.849 199.427 147.395 199 151.089 195.154C154.783 191.309 156.204 186.324 156.062 181.054C156.062 176.781 155.778 171.227 152.226 168.378C148.816 165.672 143.986 166.099 140.008 166.527C136.03 166.811 132.62 176.639 138.161 176.069Z" fill="#513FFC"/>
</g>
<defs>
<clipPath id="clip0_754_143">
<rect width="129" height="142" fill="white" transform="translate(64 57)"/>
</clipPath>
</defs>
</svg>
