<svg width="256" height="256" viewBox="0 0 256 256" fill="none" xmlns="http://www.w3.org/2000/svg">
<rect width="256" height="256" fill="white"/>
<circle opacity="0.15" cx="128" cy="128" r="100" fill="#E4002B"/>
<g clip-path="url(#clip0_754_224)">
<path d="M60 98C60.2 119.8 60.3 141.6 60.5 163.3C60.5 166.6 63.2 167.9 66 166.5C69.1 165 71.3 160.7 71.3 157.3C71.1 135.6 71 113.8 70.8 92C70.8 88.7 68.1 87.4 65.3 88.8C62.2 90.4 60 94.6 60 98Z" fill="#E00745"/>
<path d="M66.1999 97.7C79.6999 98 93.0999 97.8 106.6 97.3C106.1 96.7 105.7 96 105.2 95.4C105.4 118 105.7 140.5 105.9 163.1C105.9 167.5 111.3 163 111.3 160.1C111 137.6 110.8 115 110.6 92.4C110.6 91.6 110.2 90.4 109.2 90.5C95.6999 91 82.1999 91.1 68.7999 90.9C65.8999 90.8 62.9999 97.7 66.1999 97.7Z" fill="#E00745"/>
<path d="M64.9001 123.2C78.5001 123 92.0001 123 105.5 123.5C108.4 123.6 111.3 116.7 108.1 116.6C94.6001 116.2 81.0001 116.1 67.5001 116.4C64.6001 116.4 61.7001 123.3 64.9001 123.2Z" fill="#E00745"/>
<path d="M65.5998 150.2C78.6998 150.4 91.7998 150.6 104.9 150.9C107.8 151 110.7 144.1 107.5 144C94.3998 143.8 81.2998 143.6 68.1998 143.3C65.1998 143.3 62.2998 150.2 65.5998 150.2Z" fill="#E00745"/>
<path d="M101.1 100.5C101.9 121.4 102.6 142.4 103.4 163.3C103.5 166.6 106.1 167.9 108.9 166.5C111.9 165 114.3 160.7 114.2 157.3C113.5 136.4 112.7 115.5 112 94.5C111.9 91.2 109.3 89.9 106.5 91.3C103.4 92.9 101 97.2 101.1 100.5Z" fill="#E00745"/>
<path d="M129.6 114.7C146.9 115.9 164.2 116.5 181.6 116.3C184.5 116.3 187.4 109.4 184.2 109.4C166.8 109.6 149.5 109.1 132.2 107.8C129.2 107.6 126.3 114.4 129.6 114.7Z" fill="#E00745"/>
<path d="M151.4 96.7C151.4 119.3 151.6 142 152.3 164.6C152.4 167.9 155 169.2 157.8 167.8C160.9 166.3 163.2 162 163.1 158.6C162.5 136 162.2 113.4 162.2 90.7C162.2 87.4 159.5 86.1 156.7 87.5C153.6 89.1 151.4 93.3 151.4 96.7Z" fill="#E00745"/>
<path d="M142.9 152.2C151.8 152.5 160.7 152.7 169.5 153C172.4 153.1 175.3 146.2 172.1 146.1C163.2 145.8 154.3 145.6 145.5 145.3C142.5 145.2 139.6 152.1 142.9 152.2Z" fill="#E00745"/>
<path d="M126.5 153.7C138.7 142 149.3 128.8 157.2 113.8C158.2 112 159.5 108.2 157.1 106.8C154.8 105.5 151.9 108.4 151 110.2C144.1 123.4 135 135.1 124.2 145.3C122.3 147.1 120.2 150.4 121.2 153.1C122 155.6 124.7 155.3 126.5 153.7Z" fill="#E00745"/>
<path d="M194.5 148.4C183.4 137.8 174.1 126 167 112.4C165.5 109.6 161 115.5 162.3 118.1C169.4 131.7 178.8 143.5 189.9 154C192.4 156.4 196.6 150.3 194.5 148.4Z" fill="#E00745"/>
</g>
<defs>
<clipPath id="clip0_754_224">
<rect width="135.1" height="81.3" fill="white" transform="translate(60 87)"/>
</clipPath>
</defs>
</svg>
