<svg width="243" height="83" viewBox="0 0 243 83" fill="none" xmlns="http://www.w3.org/2000/svg">
<g clip-path="url(#clip0_723_16)">
<path d="M21.5 81.2C17.4 81.2 13.7 80.2 10.4 78.3C7.2 76.4 4.6 73.6 2.7 69.9C0.9 66.3 0 62 0 57C0 52 1 47.7 3 44.2C5 40.7 7.8 38 11.3 36.2C14.8 34.4 18.8 33.5 23.3 33.5C26.1 33.5 28.9 33.9 31.5 34.8C34.1 35.7 36.3 37 38 38.9V43.4V0H52.1V80H37.9V71.4L39 74.4C36.7 76.3 34.1 77.9 31.3 79.2C28.5 80.6 25.2 81.2 21.5 81.2ZM26.2 69.3C28.1 69.3 29.8 69 31.2 68.5C32.7 68 33.9 67.2 35.1 66.3C36.2 65.3 37.2 64.1 38 62.6V51.7C37.5 50.2 36.6 48.9 35.5 47.9C34.4 46.9 33 46 31.4 45.5C29.8 44.9 28.1 44.6 26.2 44.6C24.1 44.6 22.2 45.1 20.4 46.2C18.6 47.2 17.2 48.7 16.1 50.5C15 52.3 14.5 54.4 14.5 56.8C14.5 59.2 15 61.3 16.1 63.2C17.2 65.1 18.6 66.6 20.4 67.7C22.1 68.7 24.1 69.3 26.2 69.3Z" fill="#E5E1CF"/>
<path d="M55.5 57.3C55.5 52.8 56.6 48.7 58.7 45.1C60.8 41.5 63.8 38.7 67.7 36.6C71.6 34.5 76 33.5 81 33.5C86.1 33.5 90.5 34.5 94.2 36.6C97.9 38.7 100.8 41.5 102.8 45.1C104.8 48.7 105.8 52.7 105.8 57.3C105.8 61.8 104.8 65.9 102.8 69.5C100.8 73.1 97.9 76 94.2 78.1C90.5 80.2 86 81.2 80.8 81.2C75.9 81.2 71.6 80.3 67.8 78.4C64 76.5 61 73.8 58.8 70.2C56.6 66.6 55.5 62.3 55.5 57.3ZM69.8 57.4C69.8 59.7 70.3 61.8 71.2 63.6C72.1 65.5 73.4 66.9 75.1 68C76.7 69.1 78.5 69.6 80.6 69.6C82.8 69.6 84.8 69.1 86.4 68C88 66.9 89.3 65.4 90.2 63.6C91.1 61.7 91.5 59.7 91.5 57.4C91.5 55 91.1 52.9 90.2 51.1C89.3 49.3 88.1 47.8 86.4 46.7C84.8 45.6 82.9 45.1 80.6 45.1C78.6 45.1 76.7 45.6 75.1 46.7C73.5 47.8 72.2 49.2 71.2 51.1C70.3 52.9 69.8 55 69.8 57.4Z" fill="#E5E1CF"/>
<path d="M112.5 47.3C110.1 47.3 107.9 46.4 106.1 44.7C104.3 42.9 103.4 40.6 103.4 37.6V31.5H114V32.9C114 34.3 114.3 35.1 114.8 35.4C115.3 35.6 116.2 35.8 117.5 35.8H145.6L121.1 71.5L118.5 68.6H145.4V80H100.5L125.8 43.2L127.9 47.3H112.5Z" fill="#E5E1CF"/>
<path d="M148.6 80V0H162.5V44.6L162.4 42.9C164 40.1 166.2 37.9 169 36.2C171.8 34.5 175.3 33.6 179.4 33.6C183.6 33.6 187.1 34.8 189.9 37.3C192.7 39.8 194.1 43 194.2 46.9V80H180V52.1C179.9 50.1 179.4 48.6 178.4 47.4C177.4 46.2 175.8 45.6 173.5 45.6C171.3 45.6 169.4 46.3 167.8 47.7C166.2 49.1 164.9 51 164 53.5C163.1 55.9 162.7 58.7 162.7 61.9V80H148.6Z" fill="#E5E1CF"/>
<path d="M212.1 82.1C208.1 82.1 204.8 80.9 202.1 78.4C199.4 75.9 198 72.7 197.8 68.8V35.7H212V63.6C212.1 65.6 212.6 67.1 213.5 68.3C214.4 69.5 215.9 70.1 218 70.1C220.1 70.1 221.9 69.4 223.4 68C224.9 66.6 226.1 64.6 226.9 62.2C227.7 59.7 228.2 56.9 228.2 53.8V35.7H242.4V80H229.5L228.4 71.9L228.6 72.8C227.6 74.6 226.3 76.2 224.7 77.7C223.1 79.1 221.3 80.2 219.2 81C217.1 81.8 214.8 82.1 212.1 82.1Z" fill="#E5E1CF"/>
</g>
<defs>
<clipPath id="clip0_723_16">
<rect width="242.4" height="82.1" fill="white"/>
</clipPath>
</defs>
</svg>
