<svg id="Camada_1" data-name="Camada 1" xmlns="http://www.w3.org/2000/svg" viewBox="0 0 32 32"><title>icon</title><path d="M16,0A16,16,0,1,0,32,16,16,16,0,0,0,16,0Zm4.16,13.25c-.1.8-.18,1.61-.25,2.41,0,.28-.15.36-.4.36-.57,0-1.14,0-1.71,0-.35,0-.46.11-.46.47,0,2.65,0,5.3,0,8,0,.42-.1.58-.55.56-.91,0-1.83,0-2.74,0-.36,0-.46-.11-.46-.46,0-2.64,0-5.27,0-7.91V16c-.49,0-.94,0-1.38,0s-.42-.11-.41-.42c0-.79,0-1.59,0-2.38,0-.33.13-.42.43-.41s.69,0,1,0,.34-.1.33-.35q0-.9,0-1.8A3.45,3.45,0,0,1,17.3,7c.81,0,1.62,0,2.43,0,.34,0,.44.13.44.45,0,.73,0,1.47,0,2.2,0,.34-.1.49-.46.47s-1,0-1.53,0-.78.25-.81.76,0,1.08,0,1.62c0,.29.17.31.38.31.67,0,1.35,0,2,0C20.08,12.81,20.21,12.9,20.16,13.25Z"/></svg>