<svg id="Camada_1" data-name="Camada 1" xmlns="http://www.w3.org/2000/svg" viewBox="0 0 600 346.1"><title>lojong-logo</title><path d="M163,52.05c-6.83-4.27-134.21,128-110,198,17.2,43.28,79,17.28,94.6-6,7.58-10.46,23-34.46,25.61-44.39,2.35-9.13,0-14.51-9.39-9.39s-45.24,23.78-58.9,20.85.06-21.45,8-32c7.24-9.56,59-74.74,64.54-81.95,6-7.69,13.66-18.78,6-29S163,52.05,163,52.05Z" transform="translate(-50 -51.95)"/><path d="M293.64,229.48c-12,69.27-63.17,123.05-109.26,91.47-9.11-5.69-8.54-18.78-12.8-17.93s-9.11,16.5-7.68,27.19c.7,5.27.87,59.88,69.58,67.56,33.14,3.41,75.16-25.06,84.07-78.53,8.82-52.93,11.1-92,0-115.55s-16.22-13.35-17.07-9.08S295.25,221.37,293.64,229.48Z" transform="translate(-50 -51.95)"/><path d="M303,146c2.59,6.82,8.54,25.09,22.19,17.67s5.12-17.67,0-23.64S314.12,122.9,303,126.32s0,6.83,0,9.39S301.22,141.21,303,146Z" transform="translate(-50 -51.95)"/><path d="M437.8,249.88c13.53-40.59,32.47-92.75,72.81-103,17.78-3.42,42.22-3.33,50.61,23.25,5.57,17.64-10.9,49.38-21.17,71.43-8.76,18.8-16.37,36.22-27.6,35.7s-17.46-13-8.09-35.14c7.44-17.54,9.68-18.66,10.36-24.81s-2.28-9.32-8.89-8.36c-8.16,1.19-36.17,39.72-46.11,52.85-1.81,2.39-11.11,16.45-17,15.39C429.94,274.85,433.66,262.3,437.8,249.88Z" transform="translate(-50 -51.95)"/><path d="M254.54,139.12c-15.37-3.41-35-7.32-48.49,12-29.48,42-24.92,46.1-23.21,71.71S196.5,274.85,217,274.85s63.17-32.44,65.73-61.89S269.91,142.54,254.54,139.12Zm-4.27,50.36c-3.41,6-11.1,12.8-15.37,18.29S217,231.31,216.29,219.23s8.41-27.84,22-35.72C254.54,174.12,253.69,183.51,250.28,189.49Z" transform="translate(-50 -51.95)"/><path d="M649.33,227.33c0-23.9-10.83-43.65-10.83-43.65-2.28-5.86-.16-9.17,3-11.77,12.4-10.31,8.12-19.31,6.42-21.48-3.25-4.16-7.48-7.8-15.93-3.72-15.27,7.36-38.4,19.16-45.16,25-14.63,12.54-17,32.51-19.9,44.28-3.64,14.94.29,34.54,4.5,40.3,4.69,6.41,12.17,13.73,23.08,16.14a99.82,99.82,0,0,0,10,1.17c-1.76,8-7,15-11.81,22-9.93,14.43-24.45,29.38-48.45,34.24-12.65,1.83-35.32-3.44-41.91-21.13-2.79-5.53-5.1-9-10.77,5.5-3.41,9.35-4.78,35.39,10.26,53.74C510,379,554.15,417.55,601.1,384,651.32,350,649.29,298.26,649.33,227.33Zm-27.17-33.69c-3.41,6-11.1,12.8-15.37,18.29s-17.93,23.54-18.62,11.46,8.41-27.84,22-35.72C626.43,178.27,625.57,187.66,622.16,193.64Z" transform="translate(-50 -51.95)"/><path d="M410.6,139.12c-15.37-3.41-35-7.32-48.49,12-29.48,42-24.92,46.1-23.21,71.71s13.66,52.07,34.15,52.07,63.17-32.44,65.73-61.89S426,142.54,410.6,139.12Zm-4.27,50.36c-3.41,6-11.1,12.8-15.37,18.29S373,231.31,372.35,219.23s8.41-27.84,22-35.72C410.6,174.12,409.75,183.51,406.33,189.49Z" transform="translate(-50 -51.95)"/></svg>